<svg xmlns="http://www.w3.org/2000/svg" width="62" height="62" viewBox="0 0 62 62">
  <g id="Grupo_984241" data-name="Grupo 984241" transform="translate(-244 -5274)">
    <g id="Grupo_983967" data-name="Grupo 983967" transform="translate(0 -5149)">
      <g id="Rectángulo_340676" data-name="Rectángulo 340676" transform="translate(244 10423)" fill="none" stroke="#39a900" stroke-width="3">
        <rect width="62" height="62" rx="7" stroke="none"/>
        <rect x="1.5" y="1.5" width="59" height="59" rx="5.5" fill="none"/>
      </g>
    </g>
    <g id="Page-1" transform="translate(252 5282)">
      <g id="_053---Earth-Powers" data-name="053---Earth-Powers" transform="translate(0 0)">
        <path id="Shape" d="M45.443,8.663c0,.766-6.13,6.9-6.9,6.9s-4.6-2.3-5.364-2.3-3.065,3.831-4.6,3.831-4.6-2.3-6.13-2.3-4.6,4.6-5.364,4.6-3.831-3.831-6.13-4.6S1,10.961,1,9.429c0-.766,3.065-4.6,5.364-4.6,1.533,0,2.3-2.3,3.065-2.3s3.831.766,5.364.766,2.3-2.3,4.6-2.3,8.429,4.6,9.961,4.6,5.364-1.533,6.9-1.533S45.443,7.9,45.443,8.663Z" transform="translate(-0.234 -0.234)" fill="#60a917"/>
        <path id="Shape-2" data-name="Shape" d="M32.3,5.6a6.959,6.959,0,0,0,1.456-.23C31.5,4.448,26.63,1,24.638,1a3.119,3.119,0,0,0-1.186.23C26.2,2.153,30.974,5.6,32.3,5.6Z" transform="translate(-5.482 -0.234)" fill="#549414"/>
        <path id="Shape-3" data-name="Shape" d="M24.691,19c-1.113,0-3.031,2.42-4.291,3.748.558.5,1,.85,1.226.85.635,0,2.85-3.155,4.463-4.234a3.985,3.985,0,0,0-1.4-.363Z" transform="translate(-4.768 -4.441)" fill="#549414"/>
        <path id="Shape-4" data-name="Shape" d="M38.88,17c-.623,0-2.258,2.529-3.671,3.478a3.921,3.921,0,0,0,1.372.353c1.161,0,2.759-2.2,3.8-3.263A5.4,5.4,0,0,0,38.88,17Z" transform="translate(-8.23 -3.974)" fill="#549414"/>
        <path id="Shape-5" data-name="Shape" d="M46.589,5a6.578,6.578,0,0,0-1.347.2C47.8,6,53.485,8.937,53.485,9.6c0,.628-4.12,4.86-6.026,6.364a5.062,5.062,0,0,0,1.428.533c.766,0,6.9-6.13,6.9-6.9S48.122,5,46.589,5Z" transform="translate(-10.575 -1.169)" fill="#549414"/>
        <path id="Shape-6" data-name="Shape" d="M45.443,11c0,3.831-2.3,14.559-2.3,14.559,0-.766-1.533-2.3-1.533-2.3-.766,3.065-6.13,15.325-6.13,15.325a126.887,126.887,0,0,0-3.831-12.26l-3.065,6.13c-.766-1.533-2.3-5.364-2.3-5.364-1.533,5.364-8.429,20.689-8.429,20.689L12.494,36.287l-1.533.766C9.429,32.455,7.9,25.559,7.9,25.559a45.563,45.563,0,0,0-2.3,5.364C4.065,26.325,1,16.364,1,11.766c0,1.533,7.663,4.6,9.961,5.364s5.364,4.6,6.13,4.6,3.831-4.6,5.364-4.6,4.6,2.3,6.13,2.3,3.831-3.831,4.6-3.831,4.6,2.3,5.364,2.3S45.443,11.766,45.443,11Z" transform="translate(-0.234 -2.571)" fill="#91562d"/>
        <path id="Shape-7" data-name="Shape" d="M28.771,32c-1.149,4.011-5.287,13.587-7.308,18.166l1.178,2.523s4.951-11,7.4-17.624C29.388,33.544,28.771,32,28.771,32Z" transform="translate(-5.017 -7.48)" fill="#6d4122"/>
        <path id="Shape-8" data-name="Shape" d="M53.143,14.121c-.6,4.7-2.042,11.438-2.042,11.438,0-.766-1.533-2.3-1.533-2.3-.51,2.037-3.047,8.132-4.694,11.994.369,1.253.681,2.422.863,3.332,0,0,5.364-12.26,6.13-15.325,0,0,1.533,1.533,1.533,2.3,0,0,2.3-10.728,2.3-14.559A12.923,12.923,0,0,1,53.143,14.121Z" transform="translate(-10.489 -2.571)" fill="#6d4122"/>
        <path id="Shape-9" data-name="Shape" d="M36.3,44c-1.713,0-2.3,4.6-2.3,6.13s1.533,5.364,2.3,5.364,2.3-2.3,2.3-3.831S37.065,44,36.3,44Z" transform="translate(-7.947 -10.285)" fill="#6d4122"/>
        <path id="Shape-10" data-name="Shape" d="M55.533,39C54.39,39,54,41.452,54,42.27s1.021,2.86,1.533,2.86,1.533-1.226,1.533-2.044S56.044,39,55.533,39Z" transform="translate(-12.622 -9.116)" fill="#6d4122"/>
        <path id="Shape-11" data-name="Shape" d="M4.533,47.13C3.39,47.13,3,44.678,3,43.86S4.021,41,4.533,41s1.533,1.226,1.533,2.044S5.044,47.13,4.533,47.13Z" transform="translate(-0.701 -9.583)" fill="#6d4122"/>
        <g id="Grupo_984239" data-name="Grupo 984239">
          <path id="Shape-12" data-name="Shape" d="M5.364,29.118a.766.766,0,0,0,.727-.524c.005-.017.451-1.342,1.323-3.295C8,27.724,9,31.722,10,34.724a.766.766,0,0,0,1.073.444l.828-.415,5.031,10.781a.766.766,0,0,0,.691.442h.005a.766.766,0,0,0,.69-.452c.252-.56,5.584-12.426,7.816-18.773.5,1.2,1.117,2.65,1.533,3.477a.8.8,0,0,0,1.372,0l2.26-4.521a103.658,103.658,0,0,1,3.2,10.461.766.766,0,0,0,1.456.153c.2-.446,4.291-9.817,5.754-14.089a2.42,2.42,0,0,1,.438.756.766.766,0,0,0,1.516.161c.093-.441,2.316-10.852,2.316-14.72a.65.65,0,0,0-.041-.2.758.758,0,0,0-.2-.351c-1.429-1.843-8.8-4.81-9.719-4.81a16.452,16.452,0,0,0-3.659.8,16.808,16.808,0,0,1-3.237.737,18.081,18.081,0,0,1-3.706-1.85C23.059,1.4,20.626,0,19.156,0a4.808,4.808,0,0,0-3.29,1.511c-.562.488-.925.788-1.308.788A23.294,23.294,0,0,1,11.2,1.831a14.074,14.074,0,0,0-2-.3c-.684,0-1.131.556-1.6,1.142-.436.543-.93,1.156-1.461,1.156C3.4,3.831,0,7.958,0,9.2c0,5.093,3.549,16.136,4.637,19.4a.766.766,0,0,0,.727.524Zm37.2-8.266c-.245-.291-.481-.536-.648-.7a.766.766,0,0,0-1.285.356c-.552,2.21-3.627,9.489-5.185,13.114-1.136-4.125-3.208-9.837-3.313-10.125a.766.766,0,0,0-.676-.5.777.777,0,0,0-.73.422l-2.35,4.7c-.743-1.695-1.605-3.848-1.616-3.877a.766.766,0,0,0-1.448.077c-1.216,4.254-5.93,15.04-7.709,19.052l-4.653-9.971a.766.766,0,0,0-1.037-.362l-.736.369C9.773,28.93,8.423,22.886,8.41,22.824a.766.766,0,0,0-.654-.594.777.777,0,0,0-.779.418c-.659,1.318-1.177,2.492-1.556,3.411A97.537,97.537,0,0,1,1.693,11.273c2.946,2.049,8.715,3.989,8.793,4.014a14.3,14.3,0,0,1,3.9,2.923c1.314,1.218,1.872,1.713,2.47,1.713.633,0,1.17-.567,2.432-1.965.71-.788,2.375-2.632,2.932-2.632A8.937,8.937,0,0,1,24.944,16.4a9.013,9.013,0,0,0,3.408,1.226c1.244,0,2.439-1.354,3.595-2.664a12.48,12.48,0,0,1,1.086-1.142,23.04,23.04,0,0,1,2.257,1.047,9.275,9.275,0,0,0,3.024,1.226c.811,0,3.941-2.862,5.941-5.134-.368,3.122-1.19,7.417-1.686,9.894ZM6.13,5.364A3.582,3.582,0,0,0,8.785,3.636a5.343,5.343,0,0,1,.5-.567c.313.025,1.012.153,1.636.268a23.387,23.387,0,0,0,3.64.494,3.543,3.543,0,0,0,2.314-1.164,3.413,3.413,0,0,1,2.283-1.135c1.061,0,3.518,1.411,5.492,2.544,2.284,1.311,3.618,2.054,4.47,2.054a16.452,16.452,0,0,0,3.659-.8A16.808,16.808,0,0,1,36.014,4.6c1.067,0,6.961,2.828,8.3,3.928a40.061,40.061,0,0,1-6.073,6.011,22.486,22.486,0,0,1-2.267-1.047c-1.748-.874-2.512-1.23-3.024-1.23-.663,0-1.226.634-2.152,1.686-.661.751-1.893,2.146-2.445,2.146a8.937,8.937,0,0,1-2.723-1.069,8.963,8.963,0,0,0-3.408-1.23c-1.149,0-2.411,1.3-4.07,3.138A18.774,18.774,0,0,1,16.83,18.31c-.323-.23-.911-.774-1.4-1.226-1.323-1.226-2.968-2.755-4.461-3.252C7.578,12.7,2.125,10.214,1.552,9.188c.325-.8,2.871-3.824,4.578-3.824Z" transform="translate(0 0)"/>
          <path id="Shape-13" data-name="Shape" d="M36.065,56.026c1.392,0,3.065-2.824,3.065-4.6,0-.4-1.159-8.429-3.065-8.429C33.132,43,33,49.827,33,49.9,33,51.269,34.485,56.026,36.065,56.026ZM35.85,44.621A25.766,25.766,0,0,1,37.6,51.429,5.057,5.057,0,0,1,36.142,54.4a11.176,11.176,0,0,1-1.609-4.5C34.533,47.942,35.189,45.146,35.85,44.621Z" transform="translate(-7.713 -10.051)"/>
          <path id="Shape-14" data-name="Shape" d="M55.3,38C53.39,38,53,41.183,53,42.036s1.061,3.627,2.3,3.627c1.066,0,2.3-1.7,2.3-2.81C57.6,42.6,56.8,38,55.3,38Zm.077,6.014a5.088,5.088,0,0,1-.843-1.978,5.194,5.194,0,0,1,.582-2.329,12.03,12.03,0,0,1,.951,3.145,2.191,2.191,0,0,1-.686,1.161Z" transform="translate(-12.388 -8.882)"/>
          <path id="Shape-15" data-name="Shape" d="M4.3,40C3.061,40,2,42.765,2,43.627s.39,4.036,2.3,4.036c1.5,0,2.3-4.6,2.3-4.853C6.6,41.7,5.365,40,4.3,40Zm-.185,5.955a5.194,5.194,0,0,1-.582-2.329,5.088,5.088,0,0,1,.847-1.978,2.192,2.192,0,0,1,.686,1.161,12.03,12.03,0,0,1-.951,3.145Z" transform="translate(-0.467 -9.35)"/>
          <path id="Shape-16" data-name="Shape" d="M14.763,10.062a.766.766,0,0,0,1.533,0,4.434,4.434,0,0,0-.991-2.841.766.766,0,1,0-1.083,1.083,3.009,3.009,0,0,1,.542,1.757Z" transform="translate(-3.269 -1.633)"/>
          <path id="Shape-17" data-name="Shape" d="M18.747,11.057h.019a.776.776,0,0,0,.766-.738,1.679,1.679,0,0,1,.542-1.008.766.766,0,0,0-1.083-1.083A3.112,3.112,0,0,0,18,10.3.757.757,0,0,0,18.747,11.057Z" transform="translate(-4.207 -1.873)"/>
          <path id="Shape-18" data-name="Shape" d="M28.769,14.068a.766.766,0,1,0,1.533,0,4.434,4.434,0,0,0-.991-2.841.766.766,0,0,0-1.083,1.083A3.009,3.009,0,0,1,28.769,14.068Z" transform="translate(-6.548 -2.574)"/>
          <path id="Shape-19" data-name="Shape" d="M32.747,15.057h.019a.776.776,0,0,0,.766-.738,1.679,1.679,0,0,1,.542-1.008.766.766,0,0,0-1.083-1.083A3.112,3.112,0,0,0,32,14.3.757.757,0,0,0,32.747,15.057Z" transform="translate(-7.48 -2.808)"/>
          <path id="Shape-20" data-name="Shape" d="M44.769,11.068a.766.766,0,1,0,1.533,0,4.434,4.434,0,0,0-.991-2.841.766.766,0,0,0-1.083,1.083A3.009,3.009,0,0,1,44.769,11.068Z" transform="translate(-10.287 -1.873)"/>
          <path id="Shape-21" data-name="Shape" d="M48.747,12.057h.019a.776.776,0,0,0,.766-.738,1.679,1.679,0,0,1,.542-1.008.766.766,0,0,0-1.083-1.083A3.112,3.112,0,0,0,48,11.3a.757.757,0,0,0,.747.756Z" transform="translate(-11.22 -2.107)"/>
        </g>
      </g>
    </g>
  </g>
</svg>
