<svg xmlns="http://www.w3.org/2000/svg" width="62" height="62" viewBox="0 0 62 62">
  <g id="Grupo_984244" data-name="Grupo 984244" transform="translate(-650 -5690)">
    <g id="Grupo_984091" data-name="Grupo 984091" transform="translate(406 -4733)">
      <g id="Rectángulo_340676" data-name="Rectángulo 340676" transform="translate(244 10423)" fill="none" stroke="#39a900" stroke-width="3">
        <rect width="62" height="62" rx="7" stroke="none"/>
        <rect x="1.5" y="1.5" width="59" height="59" rx="5.5" fill="none"/>
      </g>
    </g>
    <g id="soil-analysis" transform="translate(642 5679.685)">
      <path id="Trazado_728483" data-name="Trazado 728483" d="M24,360H68.238v11.441H24Z" transform="translate(-7.237 -308.204)" fill="#a8652f"/>
      <path id="Trazado_728484" data-name="Trazado 728484" d="M236.576,308.2l-2.288,2.288L232,308.2V296h4.576Z" transform="translate(-195.407 -250.306)" fill="#aeadaa"/>
      <circle id="Elipse_5895" data-name="Elipse 5895" cx="6.864" cy="6.864" r="6.864" transform="translate(32.017 29.677)" fill="#e6e5e0"/>
      <path id="Trazado_728485" data-name="Trazado 728485" d="M223.626,163.816a3.814,3.814,0,1,0-7.309,1.525h6.991A3.8,3.8,0,0,0,223.626,163.816Z" transform="translate(-180.931 -127.274)" fill="#a1dcff"/>
      <path id="Trazado_728486" data-name="Trazado 728486" d="M224,264h6.1v3.051H224Z" transform="translate(-188.169 -221.357)" fill="#d6d5d0"/>
      <g id="Grupo_984243" data-name="Grupo 984243" transform="translate(17.525 32.33)">
        <path id="Trazado_728487" data-name="Trazado 728487" d="M32,264h2.474a3.714,3.714,0,0,1,3.184,1.8l1.207,2.011H36.391a3.714,3.714,0,0,1-3.184-1.8Z" transform="translate(-32 -253.687)" fill="#57a865"/>
        <path id="Trazado_728488" data-name="Trazado 728488" d="M110.864,264h-2.474a3.714,3.714,0,0,0-3.184,1.8L104,267.814h2.474a3.714,3.714,0,0,0,3.184-1.8Z" transform="translate(-97.136 -253.687)" fill="#57a865"/>
        <path id="Trazado_728489" data-name="Trazado 728489" d="M82.774,155.825l-1.679,2.93a3.822,3.822,0,0,0,.054,3.894l1.625,2.66,1.614-2.68a3.822,3.822,0,0,0,.053-3.853Z" transform="translate(-75.956 -155.825)" fill="#57a865"/>
        <path id="Trazado_728490" data-name="Trazado 728490" d="M336,264h2.474a3.714,3.714,0,0,1,3.184,1.8l1.207,2.011h-2.474a3.714,3.714,0,0,1-3.184-1.8Z" transform="translate(-307.017 -253.687)" fill="#57a865"/>
        <path id="Trazado_728491" data-name="Trazado 728491" d="M414.864,264h-2.474a3.714,3.714,0,0,0-3.184,1.8L408,267.814h2.474a3.714,3.714,0,0,0,3.184-1.8Z" transform="translate(-372.152 -253.687)" fill="#57a865"/>
        <path id="Trazado_728492" data-name="Trazado 728492" d="M387.775,160.388l-1.68,2.93a3.822,3.822,0,0,0,.054,3.894l1.625,2.66,1.614-2.68a3.822,3.822,0,0,0,.053-3.853Z" transform="translate(-351.878 -159.953)" fill="#57a865"/>
      </g>
      <path id="Trazado_728493" data-name="Trazado 728493" d="M219.338,216a3.814,3.814,0,0,0,6.991,0Z" transform="translate(-183.952 -177.933)" fill="#5ebef7"/>
      <path id="Trazado_728494" data-name="Trazado 728494" d="M61,142.078H54.236l-.033-3.814h1.643a4.5,4.5,0,0,0,3.839-2.174l1.206-2.011a.763.763,0,0,0-.654-1.155H57.764a4.5,4.5,0,0,0-3.591,1.807l-.019-2.238,1.167-1.936a3.931,3.931,0,0,0,.055-3.957L54,124.161a.763.763,0,0,0-1.326,0l-1.39,2.424a3.924,3.924,0,0,0,.056,4l1.294,2.118.018,2.139a4.5,4.5,0,0,0-3.667-1.91H46.509a.763.763,0,0,0-.654,1.155l1.206,2.01a4.5,4.5,0,0,0,3.839,2.174h1.779l.033,3.814H41.932V137.5a.763.763,0,0,0,.763-.763v-2.552a7.627,7.627,0,1,0-7.627,0v2.552a.763.763,0,0,0,.763.763v4.576H25.253l-.033-3.814h1.643a4.5,4.5,0,0,0,3.839-2.174l1.206-2.011a.763.763,0,0,0-.654-1.155H28.781a4.5,4.5,0,0,0-3.591,1.807l-.019-2.238,1.167-1.936a3.931,3.931,0,0,0,.055-3.957l-1.38-2.441a.763.763,0,0,0-.662-.387h0a.763.763,0,0,0-.662.383L22.3,126.58a3.924,3.924,0,0,0,.056,4l1.294,2.118.018,2.139A4.5,4.5,0,0,0,20,132.925H17.525a.763.763,0,0,0-.654,1.155l1.206,2.01a4.5,4.5,0,0,0,3.839,2.174h1.779l.033,3.814H16.763a.763.763,0,0,0-.763.763v11.441a.763.763,0,0,0,.763.763H61a.763.763,0,0,0,.763-.763V142.841a.763.763,0,0,0-.763-.763Zm-5.767-6.195a2.965,2.965,0,0,1,2.53-1.433h1.126l-.513.855a2.965,2.965,0,0,1-2.53,1.433H54.72Zm-4.334.855a2.965,2.965,0,0,1-2.53-1.433l-.513-.855h1.126a2.965,2.965,0,0,1,2.53,1.433l.513.855Zm-24.649-.855a2.965,2.965,0,0,1,2.53-1.433h1.126l-.513.855a2.965,2.965,0,0,1-2.53,1.433H25.737Zm-4.334.855a2.965,2.965,0,0,1-2.53-1.433l-.513-.855H20a2.965,2.965,0,0,1,2.53,1.433l.513.855Zm30.722-6.956a2.4,2.4,0,0,1-.034-2.445l.723-1.262.72,1.275a2.4,2.4,0,0,1-.033,2.419l-.687,1.14Zm-19.858-2.2a6.1,6.1,0,1,1,6.1,6.1,6.1,6.1,0,0,1-6.1-6.1Zm6.864,12.966h.763v8.074l-1.525,1.525-1.525-1.525V137.5h3.051v1.525h-.763a.763.763,0,1,0,0,1.525Zm-3.051-4.576v-1.114a7.631,7.631,0,0,0,4.576,0v1.114Zm-12.939-6.193a2.4,2.4,0,0,1-.034-2.445l.723-1.262.72,1.275a2.4,2.4,0,0,1-.033,2.419l-.686,1.14Zm36.583,23.735H17.525V143.6H35.831v5.339a.763.763,0,0,0,.223.539l2.288,2.288a.763.763,0,0,0,1.079,0l2.288-2.288a.763.763,0,0,0,.223-.539V143.6H60.238Z" transform="translate(0 -91.045)"/>
      <path id="Trazado_728495" data-name="Trazado 728495" d="M223.633,54.18a.763.763,0,0,0,.539-1.3,5.338,5.338,0,0,0-7.193-.326.763.763,0,1,0,.977,1.171,3.814,3.814,0,0,1,5.138.233A.76.76,0,0,0,223.633,54.18Z" transform="translate(-181.57 -28.948)"/>
      <path id="Trazado_728496" data-name="Trazado 728496" d="M207.117,23.074a.763.763,0,0,0,.539-1.3,8.389,8.389,0,0,0-11.3-.512.763.763,0,1,0,.977,1.171,6.863,6.863,0,0,1,9.248.419A.76.76,0,0,0,207.117,23.074Z" transform="translate(-162.896)"/>
      <path id="Trazado_728497" data-name="Trazado 728497" d="M237.464,83.844a.763.763,0,1,0,.977,1.171.762.762,0,0,1,1.027.047.763.763,0,1,0,1.079-1.079,2.288,2.288,0,0,0-3.083-.139Z" transform="translate(-200.102 -57.897)"/>
      <path id="Trazado_728498" data-name="Trazado 728498" d="M217.153,156.576a4.576,4.576,0,1,0-4.576,4.576A4.576,4.576,0,0,0,217.153,156.576Zm-7.627,0a3.051,3.051,0,1,1,6.005.763h-1.9l.428-1.284a.763.763,0,1,0-1.447-.482l-.589,1.767h-2.4A3.045,3.045,0,0,1,209.525,156.576Zm3.049,2.288h2.017a3.042,3.042,0,0,1-4.029,0Z" transform="translate(-173.695 -120.035)"/>
      <circle id="Elipse_5896" data-name="Elipse 5896" cx="0.763" cy="0.763" r="0.763" transform="translate(20.576 56.372)"/>
      <circle id="Elipse_5897" data-name="Elipse 5897" cx="0.763" cy="0.763" r="0.763" transform="translate(26.678 59.423)"/>
      <circle id="Elipse_5898" data-name="Elipse 5898" cx="0.763" cy="0.763" r="0.763" transform="translate(42.695 59.423)"/>
      <circle id="Elipse_5899" data-name="Elipse 5899" cx="0.763" cy="0.763" r="0.763" transform="translate(45.746 54.847)"/>
      <circle id="Elipse_5900" data-name="Elipse 5900" cx="0.763" cy="0.763" r="0.763" transform="translate(48.034 56.372)"/>
      <circle id="Elipse_5901" data-name="Elipse 5901" cx="0.763" cy="0.763" r="0.763" transform="translate(54.136 59.423)"/>
      <circle id="Elipse_5902" data-name="Elipse 5902" cx="0.763" cy="0.763" r="0.763" transform="translate(32.78 58.661)"/>
      <circle id="Elipse_5903" data-name="Elipse 5903" cx="0.763" cy="0.763" r="0.763" transform="translate(57.187 55.61)"/>
      <circle id="Elipse_5904" data-name="Elipse 5904" cx="0.763" cy="0.763" r="0.763" transform="translate(51.848 54.847)"/>
      <circle id="Elipse_5905" data-name="Elipse 5905" cx="0.763" cy="0.763" r="0.763" transform="translate(25.915 54.847)"/>
      <circle id="Elipse_5906" data-name="Elipse 5906" cx="0.763" cy="0.763" r="0.763" transform="translate(32.017 54.847)"/>
    </g>
  </g>
</svg>
