<svg xmlns="http://www.w3.org/2000/svg" xmlns:xlink="http://www.w3.org/1999/xlink" width="62" height="62" viewBox="0 0 62 62">
  <defs>
    <clipPath id="clip-path">
      <path id="path7313" d="M0-682.665H51.027v51.027H0Z" transform="translate(0 682.665)"/>
    </clipPath>
  </defs>
  <g id="Grupo_984105" data-name="Grupo 984105" transform="translate(-213 -2912)">
    <g id="Grupo_984088" data-name="Grupo 984088" transform="translate(-31 -7511)">
      <g id="Rectángulo_340676" data-name="Rectángulo 340676" transform="translate(244 10423)" fill="none" stroke="#39a900" stroke-width="3">
        <rect width="62" height="62" rx="7" stroke="none"/>
        <rect x="1.5" y="1.5" width="59" height="59" rx="5.5" fill="none"/>
      </g>
    </g>
    <g id="g7305" transform="translate(218 3599.665)">
      <path id="path7307" d="M59.534-461.232H10v-8.054H59.534Z" transform="translate(-9.254 -197.43)" fill="#cbcbcb"/>
      <g id="g7309" transform="translate(0 -682.665)">
        <g id="g7311" transform="translate(0 0)" clip-path="url(#clip-path)">
          <g id="g7317" transform="translate(0.748 15.949)">
            <path id="path7319" d="M-591.323,0V5.286a1.007,1.007,0,0,1-1.007,1.007h-46.764V8.054h49.532V0Z" transform="translate(639.093)" fill="#ababab"/>
          </g>
          <path id="path7321" d="M27.519-469.287H10v8.054H27.519Z" transform="translate(-9.254 485.236)" fill="#fc8086"/>
          <path id="path7323" d="M10-383.344H27.517v-1.762H10Z" transform="translate(-9.253 407.347)" fill="#fb636f"/>
          <path id="path7325" d="M59.534-641.715H10v-8.054H59.534Z" transform="translate(-9.254 652.228)" fill="#cbcbcb"/>
          <g id="g7327" transform="translate(0.748 2.459)">
            <path id="path7329" d="M-591.323,0V5.285a1.007,1.007,0,0,1-1.007,1.007h-46.764V8.054h49.532V0Z" transform="translate(639.093)" fill="#ababab"/>
          </g>
          <path id="path7331" d="M27.519-649.768H10v8.054H27.519Z" transform="translate(-9.254 652.227)" fill="#97e4f9"/>
          <path id="path7333" d="M10-563.827H27.517v-1.762H10Z" transform="translate(-9.253 574.34)" fill="#0acefa"/>
          <path id="path7335" d="M18.054-288.447H10V-296.5h8.054Z" transform="translate(-9.253 325.365)" fill="#fc8086"/>
          <path id="path7337" d="M203.026-288.447h-8.054V-296.5h8.054Z" transform="translate(-180.398 325.365)" fill="#fce25c"/>
          <path id="path7339" d="M388-288.447h-8.054V-296.5H388Z" transform="translate(-351.543 325.365)" fill="#97e4f9"/>
          <path id="path7341" d="M572.969-288.447h-8.054V-296.5h8.054Z" transform="translate(-522.689 325.365)" fill="#b9ea6a"/>
          <path id="path7343" d="M18.054-132.594H10v-8.054h8.054Z" transform="translate(-9.253 181.162)" fill="#304ec7"/>
          <path id="path7345" d="M203.026-132.594h-8.054v-8.054h8.054Z" transform="translate(-180.398 181.162)" fill="#de3e9b"/>
          <path id="path7347" d="M388-132.594h-8.054v-8.054H388Z" transform="translate(-351.543 181.162)" fill="#fba615"/>
          <path id="path7349" d="M572.969-132.594h-8.054v-8.054h8.054Z" transform="translate(-522.689 181.162)" fill="#fdcb82"/>
          <g id="g7351" transform="translate(0 15.202)">
            <path id="path7353" d="M-568.86-.451h-49.532a.747.747,0,0,1-.747-.747V-9.253a.747.747,0,0,1,.747-.747h42.029a.747.747,0,0,1,.747.747.747.747,0,0,1-.747.747h-41.282v6.559h48.037V-8.505h-3.253a.747.747,0,0,1-.747-.747.747.747,0,0,1,.747-.747h4a.747.747,0,0,1,.747.747V-1.2A.747.747,0,0,1-568.86-.451Z" transform="translate(619.14 10)"/>
          </g>
          <g id="g7355" transform="translate(17.518 15.202)">
            <path id="path7357" d="M-9.252-108.2a.747.747,0,0,1-.747-.747V-117a.747.747,0,0,1,.747-.747.747.747,0,0,1,.747.747v8.054A.747.747,0,0,1-9.252-108.2Z" transform="translate(10 117.75)"/>
          </g>
          <g id="g7359" transform="translate(33.223 17.92)">
            <path id="path7361" d="M3.131-8.505H-9.252A.747.747,0,0,1-10-9.252.747.747,0,0,1-9.252-10H3.131a.747.747,0,0,1,.747.747A.747.747,0,0,1,3.131-8.505Z" transform="translate(10 10)"/>
          </g>
          <g id="g7363" transform="translate(33.223 20.538)">
            <path id="path7365" d="M-2.91-8.505H-9.253A.747.747,0,0,1-10-9.252.747.747,0,0,1-9.253-10H-2.91a.747.747,0,0,1,.747.747A.747.747,0,0,1-2.91-8.505Z" transform="translate(10 10)"/>
          </g>
          <g id="g7367" transform="translate(0 1.711)">
            <path id="path7369" d="M-81.528-.451H-131.06a.747.747,0,0,1-.747-.747V-9.253A.747.747,0,0,1-131.06-10h5.613a.747.747,0,0,1,.747.747.747.747,0,0,1-.747.747h-4.866v6.559h48.037V-8.505h-39.68a.747.747,0,0,1-.747-.747.747.747,0,0,1,.747-.747h40.427a.747.747,0,0,1,.747.747V-1.2A.747.747,0,0,1-81.528-.451Z" transform="translate(131.808 10)"/>
          </g>
          <g id="g7371" transform="translate(17.518 1.711)">
            <path id="path7373" d="M-9.252-108.2a.747.747,0,0,1-.747-.747V-117a.747.747,0,0,1,.747-.747.747.747,0,0,1,.747.747v8.054A.747.747,0,0,1-9.252-108.2Z" transform="translate(10 117.75)"/>
          </g>
          <g id="g7375" transform="translate(33.223 4.43)">
            <path id="path7377" d="M3.131-8.505H-9.252A.747.747,0,0,1-10-9.252.747.747,0,0,1-9.252-10H3.131a.747.747,0,0,1,.747.747A.747.747,0,0,1,3.131-8.505Z" transform="translate(10 10)"/>
          </g>
          <g id="g7379" transform="translate(33.223 7.047)">
            <path id="path7381" d="M-2.91-8.505H-9.253A.747.747,0,0,1-10-9.252.747.747,0,0,1-9.253-10H-2.91a.747.747,0,0,1,.747.747A.747.747,0,0,1-2.91-8.505Z" transform="translate(10 10)"/>
          </g>
          <path id="path7383" d="M8.8-296.952H.747A.747.747,0,0,1,0-297.7v-8.054a.747.747,0,0,1,.747-.747H8.8a.747.747,0,0,1,.747.747v8.054A.747.747,0,0,1,8.8-296.952Zm-7.307-1.495H8.054v-6.559H1.495Z" transform="translate(0 334.618)"/>
          <path id="path7385" d="M193.773-296.952h-8.054a.747.747,0,0,1-.747-.747v-8.054a.747.747,0,0,1,.747-.747h8.054a.747.747,0,0,1,.747.747v8.054A.747.747,0,0,1,193.773-296.952Zm-7.307-1.495h6.559v-6.559h-6.559Z" transform="translate(-171.145 334.618)"/>
          <path id="path7387" d="M378.745-296.952h-8.054a.747.747,0,0,1-.747-.747v-8.054a.747.747,0,0,1,.747-.747h8.054a.747.747,0,0,1,.747.747v8.054A.747.747,0,0,1,378.745-296.952Zm-7.307-1.495H378v-6.559h-6.559Z" transform="translate(-342.291 334.618)"/>
          <path id="path7389" d="M563.716-296.952h-8.054a.747.747,0,0,1-.747-.747v-8.054a.747.747,0,0,1,.747-.747h8.054a.747.747,0,0,1,.747.747v8.054A.747.747,0,0,1,563.716-296.952Zm-7.307-1.495h6.559v-6.559H556.41Z" transform="translate(-513.436 334.618)"/>
          <path id="path7391" d="M8.8-141.1H.747A.747.747,0,0,1,0-141.846V-149.9a.747.747,0,0,1,.747-.747H8.8a.747.747,0,0,1,.747.747v8.054A.747.747,0,0,1,8.8-141.1Zm-7.307-1.495H8.054v-6.559H1.495Z" transform="translate(0 190.414)"/>
          <path id="path7393" d="M193.773-141.1h-8.054a.747.747,0,0,1-.747-.747V-149.9a.747.747,0,0,1,.747-.747h8.054a.747.747,0,0,1,.747.747v8.054A.747.747,0,0,1,193.773-141.1Zm-7.307-1.495h6.559v-6.559h-6.559Z" transform="translate(-171.145 190.414)"/>
          <path id="path7395" d="M378.745-141.1h-8.054a.747.747,0,0,1-.747-.747V-149.9a.747.747,0,0,1,.747-.747h8.054a.747.747,0,0,1,.747.747v8.054A.747.747,0,0,1,378.745-141.1Zm-7.307-1.495H378v-6.559h-6.559Z" transform="translate(-342.291 190.414)"/>
          <path id="path7397" d="M563.716-141.1h-8.054a.747.747,0,0,1-.747-.747V-149.9a.747.747,0,0,1,.747-.747h8.054a.747.747,0,0,1,.747.747v8.054A.747.747,0,0,1,563.716-141.1Zm-7.307-1.495h6.559v-6.559H556.41Z" transform="translate(-513.436 190.414)"/>
        </g>
      </g>
    </g>
  </g>
</svg>
