<svg xmlns="http://www.w3.org/2000/svg" width="62" height="62" viewBox="0 0 62 62">
  <g id="Grupo_984556" data-name="Grupo 984556" transform="translate(-213 -9486)">
    <g id="Grupo_984088" data-name="Grupo 984088" transform="translate(-31 -937)">
      <g id="Rectángulo_340676" data-name="Rectángulo 340676" transform="translate(244 10423)" fill="none" stroke="#39a900" stroke-width="3">
        <rect width="62" height="62" rx="7" stroke="none"/>
        <rect x="1.5" y="1.5" width="59" height="59" rx="5.5" fill="none"/>
      </g>
    </g>
    <g id="smell" transform="translate(185.704 9463.98)">
      <circle id="Elipse_5924" data-name="Elipse 5924" cx="17.994" cy="17.994" r="17.994" transform="translate(40.296 35.02)" fill="#badc61"/>
      <path id="Trazado_728743" data-name="Trazado 728743" d="M166.148,54.105c-.07-3.728.782-3.129-5.634-4.427-1.273-.257-2.6-1.948-2.6-5.194,0-1.129,2.124-2.608,4.171-4.931,4.2-4.265,6.486-8.472,10.008-10.506,6.684-2.259,8.7,2.584,4.02,6.955-2.839,3.734,1.53,10.633,1.291,14.824-.685,4.1-5.878,4.676-8.663,2.039" transform="translate(-98.072)" fill="#ffded5"/>
      <path id="Trazado_728744" data-name="Trazado 728744" d="M162.574,56.043a.782.782,0,0,1-.683-1.162,3.007,3.007,0,0,0,.468-1.4c0-.994-3.351-1.815-5.061-1.815-1.679,0-3.38-2.053-3.38-5.977,0-.916.878-1.807,2.093-3.041.577-.586,1.174-1.193,1.7-1.833,3.763-4.553,9.346-10.534,9.4-10.594a.782.782,0,0,1,1.143,1.068c-.056.06-5.607,6.007-9.338,10.523-.572.693-1.222,1.353-1.795,1.934a8.257,8.257,0,0,0-1.643,1.956c0,2.828,1.074,4.4,1.816,4.4,1.315,0,6.626.6,6.626,3.38a4.574,4.574,0,0,1-.665,2.156A.781.781,0,0,1,162.574,56.043Z" transform="translate(-94.855 -1.208)"/>
      <g id="Grupo_984550" data-name="Grupo 984550" transform="translate(66.835 45.845)">
        <path id="Trazado_728745" data-name="Trazado 728745" d="M197.746,123.525s-.89-5.4,4.394.7h-1.956" transform="translate(-196.901 -120.531)" fill="#6b4f5b"/>
        <path id="Trazado_728746" data-name="Trazado 728746" d="M198.9,121.768H196.94a.782.782,0,1,1,0-1.565h.166c-1.11-1.1-1.626-1.3-1.792-1.333a3.051,3.051,0,0,0-.04,1.292.782.782,0,0,1-1.544.253c-.093-.557-.3-2.419.9-2.982,1.108-.519,2.56.391,4.854,3.04a.783.783,0,0,1-.591,1.295Z" transform="translate(-193.656 -117.294)"/>
      </g>
      <g id="Grupo_984551" data-name="Grupo 984551" transform="translate(49.66 28.681)">
        <path id="Trazado_728747" data-name="Trazado 728747" d="M211.293,123.089a6.236,6.236,0,0,1-1.424-.16.782.782,0,0,1,.386-1.516c.027.006,1.995.481,2.978-.557.818-.864.837-2.667.053-5.214a.782.782,0,0,1,1.5-.46c.975,3.169.833,5.442-.421,6.758A4.153,4.153,0,0,1,211.293,123.089Z" transform="translate(-189.05 -97.986)"/>
        <path id="Trazado_728748" data-name="Trazado 728748" d="M150.663,34.36a2.413,2.413,0,1,1,2.413-2.413A2.416,2.416,0,0,1,150.663,34.36Zm0-3.262a.849.849,0,1,0,.849.848A.849.849,0,0,0,150.663,31.1Z" transform="translate(-139.956 -29.533)"/>
        <path id="Trazado_728749" data-name="Trazado 728749" d="M107.367,127.466a.783.783,0,0,1-.568-1.32c.419-.442.62-.836.554-1.082-.044-.163-.286-.343-.519-.517a1.91,1.91,0,0,1-.989-1.515,2.777,2.777,0,0,1,2.009-2.565.783.783,0,0,1,.507,1.481,1.263,1.263,0,0,0-.952,1.085c.026.012.227.161.36.26a2.578,2.578,0,0,1,1.093,1.36,2.7,2.7,0,0,1-.927,2.569A.783.783,0,0,1,107.367,127.466Z" transform="translate(-105.844 -102.648)"/>
        <path id="Trazado_728750" data-name="Trazado 728750" d="M123.367,103.465a.783.783,0,0,1-.568-1.32c.419-.442.62-.837.554-1.082-.044-.163-.286-.343-.519-.517a1.91,1.91,0,0,1-.989-1.515,2.777,2.777,0,0,1,2.009-2.565.783.783,0,0,1,.507,1.481,1.263,1.263,0,0,0-.952,1.085c.026.012.227.161.36.26a2.578,2.578,0,0,1,1.093,1.36,2.7,2.7,0,0,1-.927,2.569A.783.783,0,0,1,123.367,103.465Z" transform="translate(-118.715 -83.341)"/>
      </g>
      <g id="Grupo_984552" data-name="Grupo 984552" transform="translate(36 55.67)">
        <path id="Trazado_728751" data-name="Trazado 728751" d="M47.432,181.7H45.048a5.085,5.085,0,0,1,0-10.17h2.384a1.174,1.174,0,0,1,1.173,1.173v7.823A1.174,1.174,0,0,1,47.432,181.7Zm-2.384-7.823a2.738,2.738,0,0,0,0,5.476h1.211v-5.476Z" transform="translate(-39.218 -170.745)" fill="#fff"/>
        <path id="Trazado_728752" data-name="Trazado 728752" d="M44.214,179.263H41.83a5.867,5.867,0,0,1,0-11.735h2.384a1.958,1.958,0,0,1,1.956,1.956v7.823A1.958,1.958,0,0,1,44.214,179.263Zm-2.384-10.17a4.3,4.3,0,0,0,0,8.606h2.384a.392.392,0,0,0,.391-.391v-7.823a.392.392,0,0,0-.391-.391Zm1.211,7.823H41.83a3.521,3.521,0,0,1,0-7.041h1.211a.782.782,0,0,1,.782.782v5.476A.782.782,0,0,1,43.041,176.916Zm-1.211-5.476a1.956,1.956,0,0,0,0,3.912h.429v-3.912Z" transform="translate(-36 -167.528)"/>
      </g>
      <g id="Grupo_984553" data-name="Grupo 984553" transform="translate(42.259 55.67)">
        <path id="Trazado_728753" data-name="Trazado 728753" d="M82.17,190.3A10.17,10.17,0,0,1,72,180.133v-8.606H92.341v8.606A10.17,10.17,0,0,1,82.17,190.3Z" transform="translate(-71.218 -170.745)" fill="#fff"/>
        <path id="Trazado_728754" data-name="Trazado 728754" d="M78.953,187.868A10.965,10.965,0,0,1,68,176.915v-8.606a.782.782,0,0,1,.782-.782H89.123a.782.782,0,0,1,.782.782v8.606A10.965,10.965,0,0,1,78.953,187.868Zm-9.388-18.776v7.823a9.388,9.388,0,0,0,18.776,0v-7.823Z" transform="translate(-68 -167.527)"/>
      </g>
      <g id="Grupo_984554" data-name="Grupo 984554" transform="translate(42.259 55.67)">
        <path id="Trazado_728755" data-name="Trazado 728755" d="M72,171.527v6.65a1.173,1.173,0,0,0,2.347,0V175.83a1.173,1.173,0,0,0,2.347,0v5.476a1.173,1.173,0,1,0,2.347,0v-4.694a1.173,1.173,0,1,0,2.347,0v-5.085Z" transform="translate(-71.218 -170.745)" fill="#bf7e68"/>
        <path id="Trazado_728756" data-name="Trazado 728756" d="M74.65,180.044a1.958,1.958,0,0,1-1.956-1.956v-3.56a1.98,1.98,0,0,1-.782,0v.43a1.956,1.956,0,1,1-3.912,0v-6.65a.782.782,0,0,1,.782-.782H78.17a.782.782,0,0,1,.782.782v5.085a1.957,1.957,0,0,1-2.347,1.917v2.777A1.958,1.958,0,0,1,74.65,180.044Zm-.391-7.432v5.476a.391.391,0,1,0,.782,0v-4.694a.782.782,0,0,1,1.565,0,.391.391,0,0,0,.782,0v-4.3H69.565v5.867a.391.391,0,1,0,.782,0v-2.347a.782.782,0,1,1,1.565,0,.391.391,0,1,0,.782,0,.782.782,0,1,1,1.565,0Z" transform="translate(-68 -167.527)"/>
      </g>
      <g id="Grupo_984555" data-name="Grupo 984555" transform="translate(39.912 74.446)">
        <path id="Trazado_728757" data-name="Trazado 728757" d="M60,267.527H93.64" transform="translate(-59.218 -266.745)" fill="#bf7e68"/>
        <path id="Trazado_728758" data-name="Trazado 728758" d="M90.422,265.092H56.782a.782.782,0,0,1,0-1.565h33.64a.782.782,0,0,1,0,1.565Z" transform="translate(-56 -263.527)"/>
      </g>
    </g>
  </g>
</svg>
