<svg xmlns="http://www.w3.org/2000/svg" xmlns:xlink="http://www.w3.org/1999/xlink" width="348" height="367" viewBox="0 0 348 367">
  <defs>
    <clipPath id="clip-path">
      <rect id="Rectángulo_338983" data-name="Rectángulo 338983" width="348" height="285" transform="translate(0 0)" fill="#0e494d" stroke="#707070" stroke-width="1"/>
    </clipPath>
    <clipPath id="clip-path-2">
      <rect id="Rectángulo_344815" data-name="Rectángulo 344815" width="200.783" height="367" fill="none"/>
    </clipPath>
    <clipPath id="clip-path-4">
      <rect id="Rectángulo_344794" data-name="Rectángulo 344794" width="13.043" height="4.211" fill="none"/>
    </clipPath>
    <clipPath id="clip-path-5">
      <rect id="Rectángulo_344795" data-name="Rectángulo 344795" width="10.427" height="11.333" fill="none"/>
    </clipPath>
    <clipPath id="clip-path-6">
      <rect id="Rectángulo_344796" data-name="Rectángulo 344796" width="19.06" height="48.716" fill="none"/>
    </clipPath>
    <clipPath id="clip-path-7">
      <rect id="Rectángulo_344798" data-name="Rectángulo 344798" width="25.749" height="17.241" fill="none"/>
    </clipPath>
    <clipPath id="clip-path-9">
      <rect id="Rectángulo_344799" data-name="Rectángulo 344799" width="10.598" height="17.357" fill="none"/>
    </clipPath>
    <clipPath id="clip-path-10">
      <rect id="Rectángulo_344800" data-name="Rectángulo 344800" width="9.546" height="19.693" fill="none"/>
    </clipPath>
    <clipPath id="clip-path-11">
      <rect id="Rectángulo_344801" data-name="Rectángulo 344801" width="7.363" height="6.499" fill="none"/>
    </clipPath>
    <clipPath id="clip-path-12">
      <rect id="Rectángulo_344802" data-name="Rectángulo 344802" width="4.208" height="4.99" fill="none"/>
    </clipPath>
    <clipPath id="clip-path-13">
      <rect id="Rectángulo_344803" data-name="Rectángulo 344803" width="6.156" height="18.95" fill="none"/>
    </clipPath>
    <clipPath id="clip-path-14">
      <rect id="Rectángulo_344804" data-name="Rectángulo 344804" width="7.015" height="8.634" fill="none"/>
    </clipPath>
    <clipPath id="clip-path-15">
      <rect id="Rectángulo_344805" data-name="Rectángulo 344805" width="9.225" height="4.169" fill="none"/>
    </clipPath>
    <clipPath id="clip-path-16">
      <rect id="Rectángulo_344806" data-name="Rectángulo 344806" width="8.347" height="3.684" fill="none"/>
    </clipPath>
    <clipPath id="clip-path-17">
      <rect id="Rectángulo_344807" data-name="Rectángulo 344807" width="4.756" height="10.564" fill="none"/>
    </clipPath>
    <clipPath id="clip-path-18">
      <rect id="Rectángulo_344808" data-name="Rectángulo 344808" width="57.899" height="22.493" fill="none"/>
    </clipPath>
    <clipPath id="clip-path-19">
      <rect id="Rectángulo_344809" data-name="Rectángulo 344809" width="10.361" height="2.133" fill="none"/>
    </clipPath>
    <clipPath id="clip-path-20">
      <rect id="Rectángulo_344810" data-name="Rectángulo 344810" width="85.188" height="13.555" fill="none"/>
    </clipPath>
    <clipPath id="clip-path-21">
      <rect id="Rectángulo_344811" data-name="Rectángulo 344811" width="10.964" height="13.472" fill="none"/>
    </clipPath>
    <clipPath id="clip-path-22">
      <rect id="Rectángulo_344812" data-name="Rectángulo 344812" width="5.098" height="14.386" fill="none"/>
    </clipPath>
    <clipPath id="clip-path-23">
      <rect id="Rectángulo_344813" data-name="Rectángulo 344813" width="13.292" height="12.651" fill="none"/>
    </clipPath>
  </defs>
  <g id="Grupo_984549" data-name="Grupo 984549" transform="translate(-285 -8690)">
    <g id="Grupo_984374" data-name="Grupo 984374" transform="translate(285 8749.448)">
      <path id="Rectángulo_338981" data-name="Rectángulo 338981" d="M21,0H189a0,0,0,0,1,0,0V287a21,21,0,0,1-21,21H21A21,21,0,0,1,0,287V21A21,21,0,0,1,21,0Z" transform="translate(159 -0.448)" fill="#badc61"/>
      <rect id="Rectángulo_338982" data-name="Rectángulo 338982" width="171" height="274" rx="21" transform="translate(0 33.552)" fill="#34bc85"/>
      <g id="Enmascarar_grupo_559" data-name="Enmascarar grupo 559" transform="translate(0 22.551)" clip-path="url(#clip-path)">
        <path id="Unión_142" data-name="Unión 142" d="M80.363,51.821C74.714,40.93,63.866,36.4,49.839,41.062,24.857,49.363-.744,83.67-7.344,117.692s8.3,54.873,33.284,46.573c14.843-4.932,29.9-19.044,41.07-36.825,5.518,19.952,21.064,29.415,42.323,22.352,18.425-6.122,37.114-23.318,51.243-45.124,3.335,18.136,16.066,27.172,33.98,21.22,24.982-8.3,50.584-42.608,57.183-76.63s-8.3-54.873-33.284-46.572c-11.948,3.97-24.037,13.888-34.122,26.88C183.305-.172,165.855-16.237,139.865-7.6,117.567-.193,94.885,23.431,80.363,51.821Z" transform="matrix(-0.809, -0.588, 0.588, -0.809, 16.766, 384.864)" fill="#0e494d"/>
      </g>
    </g>
    <g id="Grupo_984548" data-name="Grupo 984548" transform="translate(331.723 8690)">
      <g id="Grupo_984547" data-name="Grupo 984547" transform="translate(0)" clip-path="url(#clip-path-2)">
        <g id="Grupo_984546" data-name="Grupo 984546">
          <g id="Grupo_984545" data-name="Grupo 984545" clip-path="url(#clip-path-2)">
            <path id="Trazado_728668" data-name="Trazado 728668" d="M34.909,79.917l-.637-45.028A13.532,13.532,0,0,1,35.112,30c1.326-3.582,4.362-9.283,10.382-9.855,8.844-.84,13.649,1.4,16.937-3.583,0,0,3.826,10.873-8.333,13.109s-13.511-2.383-15.535-1.482c-1.956.869-2.315,3.476-2.315,8.882s-1.338,42.849-1.338,42.849" transform="translate(107.506 -1.93)" fill="#8ac4a2"/>
            <path id="Trazado_728669" data-name="Trazado 728669" d="M34.909,79.917l-.637-45.028A13.532,13.532,0,0,1,35.112,30c1.326-3.582,4.362-9.283,10.382-9.855,8.844-.84,13.649,1.4,16.937-3.583,0,0,3.826,10.873-8.333,13.109s-13.511-2.383-15.535-1.482c-1.956.869-2.315,3.476-2.315,8.882S34.909,79.917,34.909,79.917Z" transform="translate(107.506 -1.93)" fill="none" stroke="#8ac4a2" stroke-miterlimit="10" stroke-width="1"/>
            <path id="Trazado_728670" data-name="Trazado 728670" d="M59.8,74.847s-.375,13.109,0,21.855c.277,6.479,3.488,7.162,5.4,7.161,1.929,0,5.264.263,5.264-7.47V74.847Z" transform="translate(77.642 -8.725)" fill="#b2dfc7"/>
            <path id="Trazado_728671" data-name="Trazado 728671" d="M70.3,74.5c0,.988-2.388,1.789-5.332,1.789s-5.333-.8-5.333-1.789,2.388-1.789,5.333-1.789,5.332.8,5.332,1.789" transform="translate(77.807 -8.476)" fill="#8ac4a2"/>
            <path id="Trazado_728672" data-name="Trazado 728672" d="M71.727,46.909H57.154V97.8A6.444,6.444,0,0,0,63.6,104.24h1.687A6.444,6.444,0,0,0,71.727,97.8Z" transform="translate(78.565 -5.468)" fill="none" stroke="#fff" stroke-miterlimit="10" stroke-width="1.984"/>
            <path id="Trazado_728673" data-name="Trazado 728673" d="M72.123,47.938H55.739a1.722,1.722,0,0,1-1.722-1.721V44.494a1.722,1.722,0,0,1,1.722-1.721H72.123a1.721,1.721,0,0,1,1.721,1.721v1.724a1.721,1.721,0,0,1-1.721,1.721" transform="translate(79.219 -4.986)" fill="#fff"/>
            <g id="Grupo_984487" data-name="Grupo 984487" transform="translate(153.821 19.603)" opacity="0.48" style="mix-blend-mode: multiply;isolation: isolate">
              <g id="Grupo_984486" data-name="Grupo 984486" transform="translate(0)">
                <g id="Grupo_984485" data-name="Grupo 984485" transform="translate(0)" clip-path="url(#clip-path-4)">
                  <path id="Trazado_728674" data-name="Trazado 728674" d="M38.4,25.707c1.544.272,3.094.542,4.7.693,3.058-.722,6.188-1.968,8.341-4.21a15.8,15.8,0,0,1-8.609,2.1c-1.424.541-2.928.983-4.434,1.419" transform="translate(-38.396 -22.19)" fill="#8ac4a2"/>
                </g>
              </g>
            </g>
            <path id="Trazado_728675" data-name="Trazado 728675" d="M78.407,23.06s3.176-4.651-1.779-9.826S66.75,6.284,66.04,1.657c0,0-5.023,10.307,1.438,16.777S78.407,23.06,78.407,23.06" transform="translate(64.676 -0.193)" fill="#8ac4a2"/>
            <path id="Trazado_728676" data-name="Trazado 728676" d="M78.407,23.06s3.176-4.651-1.779-9.826S66.75,6.284,66.04,1.657c0,0-5.023,10.307,1.438,16.777S78.407,23.06,78.407,23.06Z" transform="translate(64.676 -0.193)" fill="none" stroke="#8ac4a2" stroke-miterlimit="10" stroke-width="1"/>
            <g id="Grupo_984490" data-name="Grupo 984490" transform="translate(130.026 7.11)" opacity="0.48" style="mix-blend-mode: multiply;isolation: isolate">
              <g id="Grupo_984489" data-name="Grupo 984489" transform="translate(0)">
                <g id="Grupo_984488" data-name="Grupo 984488" transform="translate(0)" clip-path="url(#clip-path-5)">
                  <path id="Trazado_728677" data-name="Trazado 728677" d="M68.292,8.048a8.867,8.867,0,0,0,1.97,5.157,44.06,44.06,0,0,0,4.551,2.842,12.342,12.342,0,0,1,3.906,3.333A12.84,12.84,0,0,0,75.453,15.2a43.064,43.064,0,0,1-3.733-3.543,7.836,7.836,0,0,1-3.428-3.605" transform="translate(-68.291 -8.048)" fill="#8ac4a2"/>
                </g>
              </g>
            </g>
            <path id="Trazado_728678" data-name="Trazado 728678" d="M63.609,32.2c.354-7.359,2.576-18.042,2.576-22.463s-4.618-8.133-4.618-8.133,3.62,3.7,3.3,7.639-3.374,15.725-3.3,22.226" transform="translate(80.209 -0.188)" fill="#8ac4a2"/>
            <path id="Trazado_728679" data-name="Trazado 728679" d="M63.609,32.2c.354-7.359,2.576-18.042,2.576-22.463s-4.618-8.133-4.618-8.133,3.62,3.7,3.3,7.639-3.374,15.725-3.3,22.226" transform="translate(80.209 -0.188)" fill="none" stroke="#8ac4a2" stroke-miterlimit="10" stroke-width="1"/>
            <path id="Trazado_728680" data-name="Trazado 728680" d="M69.633,112.763s-21.9-46.029-23.609-48.919S35.071,51.715,34.261,51.256s-14.716-3.323-15.335.118S30.241,54.869,31.5,56.907s4.089,5.921,4.089,5.921S22.242,58.221,20.83,60.4s-1.07,4.346,1.845,5.276,11.517,3.046,11.1,4.347-12.7-2.315-13.817-.625c-1.7,2.558.624,4.786.624,4.786s-3.171,3.484-1.648,6.335c.958,1.793,10.642,5.68,10.642,5.68a25.078,25.078,0,0,0,15.7,12.976l3.5,33.264s17.389-12.565,18.763-13.127,2.088-6.549,2.088-6.549" transform="translate(114.787 -5.794)" fill="#f5bc97"/>
            <path id="Trazado_728681" data-name="Trazado 728681" d="M159.259,57.1c1.638,14.263-.918,20.172-6.339,32.036-5.8,12.7,3.87,22.058,3.87,22.058s12.577,1.177,18.786-3.02l-2.5-8.589L183.4,112.374l12.948-1.757.847-11.444-19.469-19.1Z" transform="translate(-129.865 -6.657)" fill="#af635e"/>
            <path id="Trazado_728682" data-name="Trazado 728682" d="M126.675,57.968s.677,20.008,8.1,28.469c7.246,8.256-1.688,15.508-1.688,15.508L127.809,96.7l.861,6.5s-11.221,3.56-19.549,2.118-11.14-23.047-11.14-23.047Z" transform="translate(-23.389 -6.757)" fill="#af635e"/>
            <path id="Trazado_728683" data-name="Trazado 728683" d="M173.808,51.7s13.758-13.418,9.288-27.2c-3.123-9.634-7.15-17.295-33.671-12.049-25.883,5.12-35.984-1.582-43.777,9.041-17.9,24.4,4.782,58.04,15.929,63.812s15.568,5.9,15.568,5.9Z" transform="translate(-70.665 -1.252)" fill="#af635e"/>
            <path id="Trazado_728684" data-name="Trazado 728684" d="M167.562,242.95s12.278,35.062,16.521,86.865c1.37,16.725,1.188,39.86.187,64.764H135.748l-2.018-51.986-4,51.986h-48.6c-.365-40.012.479-81.922,3.756-118.545,1.422-15.9,18.859-39.435,18.859-39.435" transform="translate(-55.885 -27.58)" fill="#38474f"/>
            <g id="Grupo_984493" data-name="Grupo 984493" transform="translate(114.25 116.879)" opacity="0.44" style="mix-blend-mode: multiply;isolation: isolate">
              <g id="Grupo_984492" data-name="Grupo 984492" transform="translate(0)">
                <g id="Grupo_984491" data-name="Grupo 984491" transform="translate(0)" clip-path="url(#clip-path-6)">
                  <path id="Trazado_728685" data-name="Trazado 728685" d="M95.431,181.017,82.77,175.33,76.377,132.3l5.107,2.861,13.952,8.4" transform="translate(-76.377 -132.301)" fill="#38474f"/>
                </g>
              </g>
            </g>
            <path id="Trazado_728686" data-name="Trazado 728686" d="M132.013,151.13c8.024,3.2,19.779,7.725,26.568-1.108,3.518-4.578,3.066-14.657,5.412-20.129-11.131-6.767-21.08-6.986-23.16-9.828-3.673-5.017-5.736-22.8-5.736-22.8l-23.6-5.208s2.422,4.966-1.653,20.962c-1.079,4.233-9.319,7.077-14.89,11.981a104.97,104.97,0,0,0,37.062,26.133" transform="translate(-47.092 -10.731)" fill="#f5bc97"/>
            <g id="Grupo_984499" data-name="Grupo 984499" transform="translate(63.83 81.322)" opacity="0.42" style="mix-blend-mode: multiply;isolation: isolate">
              <g id="Grupo_984498" data-name="Grupo 984498" transform="translate(0)">
                <g id="Grupo_984497" data-name="Grupo 984497" transform="translate(0)" clip-path="url(#clip-path-7)">
                  <g id="Grupo_984496" data-name="Grupo 984496" transform="translate(0)" opacity="0.52">
                    <g id="Grupo_984495" data-name="Grupo 984495">
                      <g id="Grupo_984494" data-name="Grupo 984494" transform="translate(0)" clip-path="url(#clip-path-7)">
                        <path id="Trazado_728687" data-name="Trazado 728687" d="M125.877,108.326c2.512-12.3.572-16.272.572-16.272l23.6,5.208a100.491,100.491,0,0,0,1.575,9.952,22.98,22.98,0,0,1-9.074,2.08c-8.123,0-16.152-3.79-16.152-3.79" transform="translate(-125.877 -92.053)" fill="#f5bc97"/>
                      </g>
                    </g>
                  </g>
                </g>
              </g>
            </g>
            <path id="Trazado_728688" data-name="Trazado 728688" d="M148.1,18.1s21.1,2.953,22.146,39.67c.9,31.6-12.667,39.4-23.867,39.444-13.915.058-34.124-9.62-37-38.6S124.4,13.8,148.1,18.1" transform="translate(-65.867 -2.029)" fill="#f5bc97"/>
            <path id="Trazado_728689" data-name="Trazado 728689" d="M88.423,122.425c4.062-3.7,23.44-6.643,23.44-6.643s8.878,13.395,18.019,12.959,12.972-5.91,12.972-5.91,23.117,6.855,23.16,9.828,1.306,25.685,6.095,39.179.186,53.524-11.319,57.028c-15.961,4.862-68.466,0-68.466,0s-8.8-21.043-5.754-49.775c0,0,6.347-7.154,9.462-21.149,4-17.973-9.818-33.506-7.611-35.517" transform="translate(-49.114 -13.497)" fill="#38474f"/>
            <path id="Trazado_728690" data-name="Trazado 728690" d="M111.04,66.535c-.4-1.737-1.983-6.837-1.983-7.31s-.952-12.865-.952-12.865l6.526-13.981,5.572-7.27,8.282-5.424,7.752-2.174,12.835-1.638,14.913,7.851,9.5,16.92c-4.411,0-20.837-14.529-20.837-14.529s-11.216,16.237-23.879,25.418c0,0-6.1,5.387-1.26,24.1,1.693,6.543,8.022,11.493,8.022,11.493S118.681,85.839,112.58,80.2s-1.541-13.662-1.541-13.662" transform="translate(-68.199 -1.85)" fill="#af635e"/>
            <path id="Trazado_728691" data-name="Trazado 728691" d="M169.364,71.116l.009-15.2s-9.067-6.118-11.753,1.544c-3.028,8.636,11.744,13.657,11.744,13.657" transform="translate(-107.473 -6.248)" fill="#f5bc97"/>
            <path id="Trazado_728692" data-name="Trazado 728692" d="M124.142,59.936a2.232,2.232,0,1,1-4.367.019c0-.992.053-2.143,2.18-2.134,2,.008,2.186.964,2.186,2.116" transform="translate(-29.171 -6.74)" fill="#38474f"/>
            <path id="Trazado_728693" data-name="Trazado 728693" d="M142.672,59.943a2.387,2.387,0,0,1-2.159,2.705,2.486,2.486,0,0,1-2.207-2.687c0-.964.04-2.155,2.179-2.152,1.986,0,2.082,1.018,2.187,2.133" transform="translate(-64.083 -6.739)" fill="#38474f"/>
            <path id="Trazado_728694" data-name="Trazado 728694" d="M117.019,51.125a7.5,7.5,0,0,1,2.705-1.163,6.473,6.473,0,0,1,5.59,1.329.629.629,0,0,1,0,.885.641.641,0,0,1-.885,0,5.166,5.166,0,0,0-4.636-.942,6.355,6.355,0,0,0-2.142.973.631.631,0,0,1-.856-.224.641.641,0,0,1,.224-.857" transform="translate(-27.818 -5.805)" fill="#38474f"/>
            <path id="Trazado_728695" data-name="Trazado 728695" d="M144.32,52.229a6.412,6.412,0,0,0-2.138-.981,5.17,5.17,0,0,0-4.641.921.646.646,0,0,1-.885,0,.63.63,0,0,1,0-.885,6.473,6.473,0,0,1,5.6-1.309,7.505,7.505,0,0,1,2.7,1.173.645.645,0,0,1,.225.857.631.631,0,0,1-.857.224" transform="translate(-65.043 -5.806)" fill="#38474f"/>
            <path id="Trazado_728696" data-name="Trazado 728696" d="M115.485,58.662c1.087.27,2.175.541,3.182.9a9.762,9.762,0,0,1,6.06.534,10.793,10.793,0,0,0-6.063-2.664c-1.118.356-2.149.8-3.179,1.233" transform="translate(-25.967 -6.694)" fill="#38474f"/>
            <path id="Trazado_728697" data-name="Trazado 728697" d="M146.448,58.767c-1.031-.436-2.062-.877-3.179-1.234a10.794,10.794,0,0,0-6.062,2.664,9.758,9.758,0,0,1,6.059-.534c1.007-.355,2.1-.625,3.182-.9" transform="translate(-66.876 -6.707)" fill="#38474f"/>
            <g id="Grupo_984502" data-name="Grupo 984502" transform="translate(32.159 137.117)" opacity="0.46" style="mix-blend-mode: multiply;isolation: isolate">
              <g id="Grupo_984501" data-name="Grupo 984501" transform="translate(0)">
                <g id="Grupo_984500" data-name="Grupo 984500" transform="translate(0)" clip-path="url(#clip-path-9)">
                  <path id="Trazado_728698" data-name="Trazado 728698" d="M189.477,155.21l-1.716,2.675c-1.023,1.61-2.358,3.773-3.69,5.938-1.317,2.173-2.632,4.349-3.6,5.994l-1.6,2.749,1.716-2.676c1.023-1.609,2.358-3.772,3.69-5.938,1.317-2.174,2.632-4.35,3.6-5.995l1.6-2.748" transform="translate(-178.879 -155.21)" fill="#f5bc97"/>
                </g>
              </g>
            </g>
            <path id="Trazado_728699" data-name="Trazado 728699" d="M121.059,110.587s12.193,5.777,17.76,4.589a44.413,44.413,0,0,0,8.681-2.639s3.179,9.589,4.193,9.9-.644,4.709-.644,4.709-6.073,5.322-7.675,5.485-7.929.419-7.929.419-7.422-3.036-8.772-5.144-3.88-4.808-4.808-6.664A37.122,37.122,0,0,1,120,115.176Z" transform="translate(-57.25 -12.891)" fill="#38474f"/>
            <g id="Grupo_984505" data-name="Grupo 984505" transform="translate(81.812 52.094)" opacity="0.49" style="mix-blend-mode: multiply;isolation: isolate">
              <g id="Grupo_984504" data-name="Grupo 984504" transform="translate(0)">
                <g id="Grupo_984503" data-name="Grupo 984503" transform="translate(0)" clip-path="url(#clip-path-10)">
                  <path id="Trazado_728700" data-name="Trazado 728700" d="M126.553,59.564a20.9,20.9,0,0,0,.356,7.954c.669,2.327,2.573,3.258,4.758,3.944,2.326.73,2.056,3.445.756,5.04-1.942,2.383-5.179,2.284-7.959,2.039-.8-.071-.8-1.323,0-1.252,1.8.157,3.8.38,5.483-.414,1.156-.544,2.56-1.93,2.213-3.358-.218-.9-1.211-.922-1.948-1.191a9.31,9.31,0,0,1-2-.989,5.7,5.7,0,0,1-2.065-2.29c-1.318-2.806-1.19-6.462-.844-9.484.09-.792,1.344-.8,1.252,0" transform="translate(-123.864 -58.968)" fill="#f5bc97"/>
                </g>
              </g>
            </g>
            <g id="Grupo_984508" data-name="Grupo 984508" transform="translate(51.718 49.439)" opacity="0.4" style="mix-blend-mode: multiply;isolation: isolate">
              <g id="Grupo_984507" data-name="Grupo 984507" transform="translate(0)">
                <g id="Grupo_984506" data-name="Grupo 984506" transform="translate(0)" clip-path="url(#clip-path-11)">
                  <path id="Trazado_728701" data-name="Trazado 728701" d="M160.411,61.672a6.4,6.4,0,0,1,.637-1.856,6.758,6.758,0,0,1,2.873-2.994,8.031,8.031,0,0,1,3.217-.858.626.626,0,1,1,0,1.252,6.814,6.814,0,0,0-2.4.595,5.051,5.051,0,0,0-1.614,1.179c-.107.115-.208.234-.308.354s.02-.034-.065.085c-.045.063-.091.125-.135.19a6.66,6.66,0,0,0-.422.709c-.057.11-.111.223-.163.337-.008.019-.082.192-.042.1s-.038.1-.049.125q-.1.266-.182.54a4.353,4.353,0,0,0-.135.58.631.631,0,0,1-.77.437.643.643,0,0,1-.437-.77" transform="translate(-160.401 -55.963)" fill="#f5bc97"/>
                </g>
              </g>
            </g>
            <g id="Grupo_984511" data-name="Grupo 984511" transform="translate(55.722 52.826)" opacity="0.4" style="mix-blend-mode: multiply;isolation: isolate">
              <g id="Grupo_984510" data-name="Grupo 984510" transform="translate(0)">
                <g id="Grupo_984509" data-name="Grupo 984509" clip-path="url(#clip-path-12)">
                  <path id="Trazado_728702" data-name="Trazado 728702" d="M160.233,59.807a4.262,4.262,0,0,1,1.216.436,3.936,3.936,0,0,1,1.824,1.861,4.505,4.505,0,0,1,.367,2.056.626.626,0,1,1-1.252,0c.007-.147.01-.293,0-.44,0-.064-.007-.13-.012-.194,0-.032-.008-.064-.01-.095,0-.081.022.125,0,.005a4.075,4.075,0,0,0-.19-.722c-.054-.146.052.106-.014-.032-.022-.047-.044-.093-.067-.139-.052-.1-.109-.194-.171-.287-.026-.04-.055-.078-.082-.117-.082-.117.087.1-.021-.026-.067-.077-.135-.153-.208-.225s-.127-.12-.194-.177a.993.993,0,0,1-.1-.081c-.005.019.123.09.052.041l-.076-.055a3.992,3.992,0,0,0-.425-.261c-.064-.034-.127-.065-.193-.1-.031-.014-.063-.027-.094-.042-.081-.038.087.035.082.034a.487.487,0,0,1-.067-.027c-.11-.042-.222-.083-.336-.117a2.809,2.809,0,0,0-.371-.092.629.629,0,0,1-.437-.77.645.645,0,0,1,.77-.437" transform="translate(-159.44 -59.796)" fill="#f5bc97"/>
                </g>
              </g>
            </g>
            <path id="Trazado_728703" data-name="Trazado 728703" d="M134.744,89.347a5.505,5.505,0,0,1-4.433,1.911,6.262,6.262,0,0,1-4.646-1.785c-.542-.594.34-1.482.885-.885a4.986,4.986,0,0,0,3.661,1.418,4.336,4.336,0,0,0,3.452-1.291.647.647,0,0,1,.857-.225.631.631,0,0,1,.224.857" transform="translate(-44.919 -10.304)" fill="#38474f"/>
            <path id="Trazado_728704" data-name="Trazado 728704" d="M32.658,183.46l-.428-10.345a237.467,237.467,0,0,0,4.586,41.9c3.441,17.614-8.948,34.251-11.651,49.741-3.827,21.93-6.359,58.784-6.359,58.784H134.867s-1.1-40.285-5.686-61.25-9.786-27.131-4.311-49.33,2.6-37.819,2.6-37.819,62.63,17.988,72.154,9.725c6.317-5.481-15.2-88.333-15.2-88.333l-28,6.728,7.236,45.112s-21.191-13.616-36.6-20.239c-18.5-7.951-30.018-7.951-30.018-7.951L78.761,215.835l-20.933-102.3s-17.194,2.145-26.6,7.62C24.321,125.177,5.364,137.9,2.06,178.719L.064,211c-.883,11.553,7.546,17.074,16.382,18.771" transform="translate(0 -11.252)" fill="#fff"/>
            <path id="Trazado_728705" data-name="Trazado 728705" d="M139.711,328.012c.272-9.277.684-18.542,1.3-27.79q.2-27.786,2.493-55.544-3.322,27.627-4.622,55.487c.095,9.294.393,18.578.83,27.848" transform="translate(-65.411 -28.522)" fill="#f7f7f7"/>
            <line id="Línea_1630" data-name="Línea 1630" x2="11.044" y2="26.314" transform="translate(110.807 227.735)" fill="none" stroke="#ebebeb" stroke-miterlimit="10" stroke-width="2.835"/>
            <line id="Línea_1631" data-name="Línea 1631" x1="11.044" y2="26.314" transform="translate(37.309 227.735)" fill="none" stroke="#ebebeb" stroke-miterlimit="10" stroke-width="2.835"/>
            <path id="Trazado_728706" data-name="Trazado 728706" d="M69.73,240.673s10.924,2.524,12.324,1.234,3.361-3.973.486-4.854-19.064-3.492-19.064-3.492Z" transform="translate(60.688 -27.226)" fill="#e8ac8b"/>
            <g id="Grupo_984514" data-name="Grupo 984514" transform="translate(143.129 236.089)" opacity="0.49">
              <g id="Grupo_984513" data-name="Grupo 984513" transform="translate(0)">
                <g id="Grupo_984512" data-name="Grupo 984512" transform="translate(0)" clip-path="url(#clip-path-13)">
                  <path id="Trazado_728707" data-name="Trazado 728707" d="M62.949,286.021l.529-.088c.646-.108,1.065-.922.954-1.859l-1.963-16.621c-.021-.189-.189-.28-.276-.151l-3.862,5.718a.274.274,0,0,0-.036.177l1.319,11.168c.114.976.727,1.879,1.41,1.823Z" transform="translate(-58.293 -267.241)" fill="#8ac4a2"/>
                </g>
              </g>
            </g>
            <path id="Trazado_728708" data-name="Trazado 728708" d="M63.184,286.752c-1.612.1-3.132-1.665-3.4-3.975l-3.948-33.447,8.936-.727,3.947,33.448c.275,2.327-.821,4.321-2.447,4.453l-.662.054.113,1.126c.078.762-.3,1.393-.841,1.391l-.614,0c-.547,0-1.03-.663-1.054-1.438Z" transform="translate(82.702 -28.979)" fill="none" stroke="#fff" stroke-miterlimit="10" stroke-width="1"/>
            <path id="Trazado_728709" data-name="Trazado 728709" d="M70.02,246.279s1.17-16.6-5.045-16.689-1.152,16.8-1.152,16.8" transform="translate(76.011 -26.763)" fill="#38474f"/>
            <g id="Grupo_984517" data-name="Grupo 984517" transform="translate(139.104 210.998)" opacity="0.27" style="mix-blend-mode: multiply;isolation: isolate">
              <g id="Grupo_984516" data-name="Grupo 984516" transform="translate(0)">
                <g id="Grupo_984515" data-name="Grupo 984515" clip-path="url(#clip-path-14)">
                  <path id="Trazado_728710" data-name="Trazado 728710" d="M68.8,247.357a50.782,50.782,0,0,0-.216-8.518l-6.711,5.846c.393,1.665.73,2.788.73,2.788" transform="translate(-61.878 -238.839)" fill="#38474f"/>
                </g>
              </g>
            </g>
            <path id="Trazado_728711" data-name="Trazado 728711" d="M70.469,247.266l0,1.543c0,.359-.182.638-.434.663l-10.449,1.039c-.271.027-.535-.251-.605-.637l-.25-1.393c-.078-.427.112-.817.412-.851l10.7-1.189c.325-.036.626.36.626.825" transform="translate(78.442 -28.727)" fill="#38474f"/>
            <path id="Trazado_728712" data-name="Trazado 728712" d="M83.773,247.8a11.434,11.434,0,0,0,4.43,1.47c3.121.474,8.591-1.966,9.006-2.082,0,0,5.983,3.035,8.116,3.249s2.989-3.533,2.989-3.533a13.091,13.091,0,0,0,2.259.663,3.639,3.639,0,0,0,4.067-3.377c2.863.771,3.893-1.292,4.3-2.99s-10.028-7.463-10.028-7.463,9.9,3.429,17.552,6.31c6.105,2.3,8.162-1.3,5.123-2.959-9.723-5.307-18.336-9.663-25.083-10.391-5.821-.628-22.8,5.867-26.569,8.409-1,.675-17.925-1.451-17.925-1.451L57.922,253.1Z" transform="translate(16.637 -26.421)" fill="#f5bc97"/>
            <g id="Grupo_984520" data-name="Grupo 984520" transform="translate(120.444 212.448)" opacity="0.43" style="mix-blend-mode: multiply;isolation: isolate">
              <g id="Grupo_984519" data-name="Grupo 984519">
                <g id="Grupo_984518" data-name="Grupo 984518" clip-path="url(#clip-path-15)">
                  <path id="Trazado_728713" data-name="Trazado 728713" d="M80.5,240.48c1.008.547,1.99,1.122,2.94,1.737a44.442,44.442,0,0,1,6.285,2.432,45.147,45.147,0,0,0-5.812-3.591c-1.136-.24-2.277-.428-3.413-.578" transform="translate(-80.499 -240.48)" fill="#f5bc97"/>
                </g>
              </g>
            </g>
            <g id="Grupo_984523" data-name="Grupo 984523" transform="translate(114.787 215.656)" opacity="0.43" style="mix-blend-mode: multiply;isolation: isolate">
              <g id="Grupo_984522" data-name="Grupo 984522" transform="translate(0)">
                <g id="Grupo_984521" data-name="Grupo 984521" transform="translate(0)" clip-path="url(#clip-path-16)">
                  <path id="Trazado_728714" data-name="Trazado 728714" d="M87.895,244.112c.922.486,1.845.97,2.726,1.492a16.962,16.962,0,0,1,5.621,2.192,17.568,17.568,0,0,0-5.218-3.377c-1.051-.139-2.09-.222-3.129-.307" transform="translate(-87.895 -244.112)" fill="#f5bc97"/>
                </g>
              </g>
            </g>
            <g id="Grupo_984526" data-name="Grupo 984526" transform="translate(144.995 263.219)" opacity="0.49">
              <g id="Grupo_984525" data-name="Grupo 984525" transform="translate(0)">
                <g id="Grupo_984524" data-name="Grupo 984524" transform="translate(0)" clip-path="url(#clip-path-17)">
                  <path id="Trazado_728715" data-name="Trazado 728715" d="M60.032,297.951s5.5,10.581.151,10.564-.151-10.564-.151-10.564" transform="translate(-57.767 -297.951)" fill="#8ac4a2"/>
                </g>
              </g>
            </g>
            <g id="Grupo_984529" data-name="Grupo 984529" transform="translate(31.681 217.498)" opacity="0.34">
              <g id="Grupo_984528" data-name="Grupo 984528" transform="translate(0)">
                <g id="Grupo_984527" data-name="Grupo 984527" transform="translate(0)" clip-path="url(#clip-path-18)">
                  <path id="Trazado_728716" data-name="Trazado 728716" d="M183.776,261.275a54.249,54.249,0,0,1-28.926,7.4c-17.295-.344-28.973-6.268-28.973-6.268l5.015-16.214Z" transform="translate(-125.877 -246.197)" fill="#ebebeb"/>
                </g>
              </g>
            </g>
            <path id="Trazado_728717" data-name="Trazado 728717" d="M125.877,240.628l73.134,14.054-.3-26.241-46.527-12.973c-.671-2.263-11.86-25.831-11.86-25.831Z" transform="translate(-109.431 -22.106)" fill="#fff"/>
            <path id="Trazado_728718" data-name="Trazado 728718" d="M116.409,123.456s14.963-.435,16.718,3.122c1.939,3.932-5.486,20.834-6.465,21.106a88.9,88.9,0,0,1-10.253,1.441s6.1,5.637,5.714,9.507-24.536,60.531-24.536,60.531Z" transform="translate(-18.876 -14.389)" fill="#f7f7f7"/>
            <path id="Trazado_728719" data-name="Trazado 728719" d="M156.75,115.939s-16.535-.139-18.417,3.293c-2.02,3.687,7.438,20.067,8.416,20.339A88.927,88.927,0,0,0,157,141.012s-6.1,5.637-5.714,9.507,25.965,68.057,25.965,68.057Z" transform="translate(-98.429 -13.515)" fill="#f7f7f7"/>
            <g id="Grupo_984532" data-name="Grupo 984532" transform="translate(137.825 69.212)" opacity="0.48" style="mix-blend-mode: multiply;isolation: isolate">
              <g id="Grupo_984531" data-name="Grupo 984531" transform="translate(0)">
                <g id="Grupo_984530" data-name="Grupo 984530" transform="translate(0)" clip-path="url(#clip-path-19)">
                  <path id="Trazado_728720" data-name="Trazado 728720" d="M69.9,80.074q-1.61-.865-3.256-1.694-3.565-.083-7.1.024,3.408.953,6.739,2.073,1.8-.227,3.622-.4" transform="translate(-59.538 -78.345)" fill="#f5bc97"/>
                </g>
              </g>
            </g>
            <path id="Trazado_728721" data-name="Trazado 728721" d="M90.092,177.913a28.594,28.594,0,0,0,.437-7.078,29.158,29.158,0,0,0-6.961-12.1,28.093,28.093,0,0,1,4.878,12.541,27.533,27.533,0,0,1,1.646,6.637" transform="translate(36.367 -18.504)" fill="#f7f7f7"/>
            <path id="Trazado_728722" data-name="Trazado 728722" d="M204.485,221.358l-7.8,3.931L194.83,226.7a3.039,3.039,0,0,1-.77.426c-.252.071-.3.065-.37.034l.217.431c-.192-.56.352-1.414,1.064-2.107l2.253-2.2,4.525-4.41-5.031,3.823-2.521,1.921a6.428,6.428,0,0,0-1.236,1.23,2.836,2.836,0,0,0-.585,1.977l.026.219.192.212a1.781,1.781,0,0,0,.915.519,2.337,2.337,0,0,0,.916.007,4.573,4.573,0,0,0,1.379-.52l2.069-1.2Z" transform="translate(-173.637 -25.514)" fill="#f7f7f7"/>
            <path id="Trazado_728723" data-name="Trazado 728723" d="M24.006,161.469a23.435,23.435,0,0,0,6.961,9.891,23.311,23.311,0,0,0,3.558,1.868,19.948,19.948,0,0,0,1.906.7,3.269,3.269,0,0,0,2.449-.091l.72-.373-.421-.641-8.864-13.48,7.627,14.217.3-1.013c-.617.292-1.878-.39-2.952-.936a21.4,21.4,0,0,1-3.1-2,22.371,22.371,0,0,1-8.186-8.149" transform="translate(139.975 -18.575)" fill="#f7f7f7"/>
            <path id="Trazado_728724" data-name="Trazado 728724" d="M146.706,223.217a116.541,116.541,0,0,0,11.076,3.9,116.47,116.47,0,0,0,23.348,1.212,115.389,115.389,0,0,1-22.931-3.3,115.367,115.367,0,0,1-11.493-1.807" transform="translate(-109.952 -26.02)" fill="#f7f7f7"/>
            <path id="Trazado_728725" data-name="Trazado 728725" d="M189.429,205.123a48.015,48.015,0,0,1,1.17-6.841,48.371,48.371,0,0,1,2.06-13.568,49.449,49.449,0,0,0-4.181,13.384,49.053,49.053,0,0,0,.951,7.025" transform="translate(-158.383 -21.532)" fill="#f7f7f7"/>
            <path id="Trazado_728726" data-name="Trazado 728726" d="M158.23,73.047a2.938,2.938,0,1,0,2.938-2.938,2.938,2.938,0,0,0-2.938,2.938" transform="translate(-103.108 -8.173)" fill="#fff"/>
            <g id="Grupo_984535" data-name="Grupo 984535" transform="translate(103.185 345.476)" opacity="0.16" style="mix-blend-mode: multiply;isolation: isolate">
              <g id="Grupo_984534" data-name="Grupo 984534">
                <g id="Grupo_984533" data-name="Grupo 984533" clip-path="url(#clip-path-20)">
                  <path id="Trazado_728727" data-name="Trazado 728727" d="M14.048,396.745c0,3.139,18.289,7.871,41.813,7.871s43.376-4.733,43.376-7.871-19.07-5.684-42.594-5.684-42.595,2.545-42.595,5.684" transform="translate(-14.048 -391.062)" fill="#af635e"/>
                </g>
              </g>
            </g>
            <path id="Trazado_728728" data-name="Trazado 728728" d="M21.448,382.138c0,2.357,16.143,4.268,36.057,4.268s36.057-1.911,36.057-4.268S77.42,377.87,57.505,377.87s-36.057,1.911-36.057,4.268" transform="translate(88.273 -44.048)" fill="#f7f7f7"/>
            <path id="Trazado_728729" data-name="Trazado 728729" d="M88.249,386.544a5.335,5.335,0,0,0-3.624-3.267,4.981,4.981,0,0,0-3.86,1.308,3.633,3.633,0,0,0-6.73-2.694c-.914-3.229-1.986-6.695-4.677-8.7a10.778,10.778,0,0,0-5.159-1.869,7.659,7.659,0,0,0-3.434.214,8.2,8.2,0,0,0-3.562,2.908,24.946,24.946,0,0,0-4.375,8.659,4.877,4.877,0,0,0-9.215-.405,1.224,1.224,0,0,1-.465.7c-.321.166-.7-.023-1.019-.2a10.178,10.178,0,0,0-4.121-1.433,6.743,6.743,0,0,0-6.681,4.344s9.138,1.458,29.592,2.121,27.329-1.688,27.329-1.688" transform="translate(84.858 -43.273)" fill="#38474f"/>
            <path id="Trazado_728730" data-name="Trazado 728730" d="M93.561,393.206c0,2.357-16.143,4.268-36.057,4.268s-36.057-1.911-36.057-4.268V382.7s.956,4.268,36.057,4.268c30.932,0,36.057-4.268,36.057-4.268Z" transform="translate(88.275 -44.611)" fill="#fff"/>
            <path id="Trazado_728731" data-name="Trazado 728731" d="M82.513,318.619c-.294-4.833,3.2-9.992,1.724-14.869-.693-2.286-2.588-3.971-4.4-5.529l-8.459-7.287c1.632,1.682,1.032,4.473.038,6.6-1.234,2.634-2.919,5.089-3.669,7.9s-.3,6.233,2.052,7.946c1.633,1.19,3.781,1.3,5.786,1.555s3.725,2.093,4.826,3.788" transform="translate(56.622 -33.914)" fill="#8ac4a2"/>
            <path id="Trazado_728732" data-name="Trazado 728732" d="M80.728,318.674a11.834,11.834,0,0,0-1.813-2.3,5.973,5.973,0,0,0-2.521-1.548c-1.942-.384-3.94-.445-5.561-1.407a5.618,5.618,0,0,1-2.581-4.6,9.166,9.166,0,0,1,.216-2.754,14.034,14.034,0,0,1,.955-2.635c.834-2,2.01-3.907,2.928-6.011a10.089,10.089,0,0,0,.84-3.412,4.465,4.465,0,0,0-1.175-3.429l-.612.65,6.41,5.374c1.064.9,2.149,1.785,3.192,2.692a13.184,13.184,0,0,1,2.711,3.059,7.9,7.9,0,0,1,1.027,3.9,16.654,16.654,0,0,1-.523,4.1c-.608,2.7-1.565,5.407-1.393,8.219-.1-2.815.927-5.471,1.61-8.166a16.924,16.924,0,0,0,.641-4.157,8.306,8.306,0,0,0-.975-4.12,13.649,13.649,0,0,0-2.724-3.251c-1.036-.951-2.087-1.857-3.128-2.786l-6.265-5.543-.612.65a3.529,3.529,0,0,1,.834,2.755,9.076,9.076,0,0,1-.841,3.032c-.917,1.967-2.15,3.849-3.094,5.945a15.214,15.214,0,0,0-.879,2.914,10.176,10.176,0,0,0-.076,3.072,7.544,7.544,0,0,0,.978,2.922,5.643,5.643,0,0,0,2.233,2.122c1.854.959,3.92.888,5.79,1.163a5.744,5.744,0,0,1,2.49,1.359,11.792,11.792,0,0,1,1.919,2.189" transform="translate(56.308 -33.869)" fill="#8ac4a2"/>
            <path id="Trazado_728733" data-name="Trazado 728733" d="M60.039,376.37a20.383,20.383,0,0,0,1.992-8.99c.05-1.356.335-2.731.507-4.049a20.58,20.58,0,0,1,2.409-7.294c.405-.728.853-1.43,1.328-2.174a21.646,21.646,0,0,0,2.661-5.144,14.231,14.231,0,0,0-2.062-11.856,25.387,25.387,0,0,0-8.862-7.792l-.779-.442c-2.283-1.292-4.926-2.577-5.794-4.736a5.413,5.413,0,0,1-.294-1.694l-2.1.163a11.038,11.038,0,0,0,6.94,8.464l.764.434a22.966,22.966,0,0,1,8.013,6.993,11.7,11.7,0,0,1,1.761,9.714,19.583,19.583,0,0,1-2.381,4.539c-.473.741-.962,1.509-1.4,2.3a23.128,23.128,0,0,0-2.706,8.2c-.188,1.434-.242,2.9-.294,4.31-.109,2.957.053,5.959-1.192,8.353Z" transform="translate(87.986 -37.559)" fill="#8ac4a2"/>
            <path id="Trazado_728734" data-name="Trazado 728734" d="M42.232,323.7a10.177,10.177,0,0,1,4.5-3.849,17.306,17.306,0,0,0,7.517-6.1,13.056,13.056,0,0,0,2.128-9.337c-.543-3.134-2.388-6.163-1.778-9.285a23.581,23.581,0,0,1-10.681,13.926c-2.754,1.659-6.14,3.177-6.95,6.288-.843,3.237,1.178,6.323,3.449,8.779" transform="translate(111.746 -34.403)" fill="#8ac4a2"/>
            <path id="Trazado_728735" data-name="Trazado 728735" d="M40.285,324.108a14.52,14.52,0,0,1-3.115-5.093,5.815,5.815,0,0,1,.917-5.5,15.741,15.741,0,0,1,4.793-3.4,26.937,26.937,0,0,0,5.114-3.43,23.572,23.572,0,0,0,6.913-11.455l-.886-.2a9.822,9.822,0,0,0,.436,4.534c.42,1.429.966,2.788,1.3,4.181a12.362,12.362,0,0,1-.966,8.366,15.756,15.756,0,0,1-5.8,6.334,19.44,19.44,0,0,1-1.9,1.072,14.264,14.264,0,0,0-1.949,1.028,10.672,10.672,0,0,0-3.05,3.14,10.606,10.606,0,0,1,3.111-3.043,13.943,13.943,0,0,1,1.96-.971,19.6,19.6,0,0,0,1.952-1.032,16.108,16.108,0,0,0,6.082-6.324,12.945,12.945,0,0,0,1.224-8.723c-.32-1.466-.836-2.85-1.2-4.242a8.985,8.985,0,0,1-.309-4.144l-.886-.2a22.5,22.5,0,0,1-6.873,10.758A25.854,25.854,0,0,1,42.41,309.3a16.392,16.392,0,0,0-4.821,3.829,6.293,6.293,0,0,0-.716,5.983,14.665,14.665,0,0,0,3.412,4.994" transform="translate(111.882 -34.388)" fill="#8ac4a2"/>
            <path id="Trazado_728736" data-name="Trazado 728736" d="M53.737,339.5l2.133-1.35a14.7,14.7,0,0,1-1.948-7.685,6.143,6.143,0,0,1,.548-3.171l-1.879-1.3a7.921,7.921,0,0,0-1.193,4.43,17.108,17.108,0,0,0,2.338,9.077" transform="translate(99.508 -38.001)" fill="#8ac4a2"/>
            <path id="Trazado_728737" data-name="Trazado 728737" d="M83.331,364.589a10.691,10.691,0,0,0-2.205-9.086c-2.237-2.663-5.616-4.043-8.355-6.186-4.868-3.808-7.446-9.765-9.832-15.464-1.557,3.7-4.389,7.011-4.672,11.019a10.666,10.666,0,0,0,2.8,7.683,15.547,15.547,0,0,0,7.067,4.342c2.906.9,5.995,1.136,8.859,2.163s5.634,3.133,6.206,6.12" transform="translate(65.748 -38.917)" fill="#8ac4a2"/>
            <path id="Trazado_728738" data-name="Trazado 728738" d="M83.731,365.035a6.733,6.733,0,0,0-1.548-3.194,10.263,10.263,0,0,0-2.793-2.262,24.191,24.191,0,0,0-6.824-2.221,23.834,23.834,0,0,1-6.641-2.228,12.857,12.857,0,0,1-4.96-4.607,10.065,10.065,0,0,1-1.539-4.05,9.389,9.389,0,0,1,.447-4.311c.93-2.835,2.79-5.37,3.986-8.29h-.781a71.033,71.033,0,0,0,4.267,8.714,23.577,23.577,0,0,0,6.462,7.23c2.642,1.865,5.668,3.179,7.778,5.624a10.634,10.634,0,0,1,2.276,9,10.739,10.739,0,0,0-2.113-9.141c-2.1-2.541-5.142-3.94-7.693-5.832a23.05,23.05,0,0,1-6.163-7.21,70.26,70.26,0,0,1-4.033-8.718l-.378-.933-.4.932c-1.2,2.771-3.118,5.254-4.2,8.281a10.5,10.5,0,0,0-.595,4.8,11.28,11.28,0,0,0,1.619,4.568,13.953,13.953,0,0,0,5.589,4.776,24.585,24.585,0,0,0,6.949,2.007,23.773,23.773,0,0,1,6.8,1.883,8.065,8.065,0,0,1,4.49,5.18" transform="translate(65.217 -38.772)" fill="#8ac4a2"/>
            <g id="Grupo_984538" data-name="Grupo 984538" transform="translate(154.708 270.679)" opacity="0.33" style="mix-blend-mode: multiply;isolation: isolate">
              <g id="Grupo_984537" data-name="Grupo 984537" transform="translate(0)">
                <g id="Grupo_984536" data-name="Grupo 984536" transform="translate(0)" clip-path="url(#clip-path-21)">
                  <path id="Trazado_728739" data-name="Trazado 728739" d="M39.791,319.867a3.953,3.953,0,0,1,1.232-2.587,7.778,7.778,0,0,1,2.388-1.573c.8-.548,1.694-1.048,2.543-1.654a11.71,11.71,0,0,0,4.756-7.658,11.379,11.379,0,0,1-2.947,5.106,11,11,0,0,1-2.315,1.762c-.846.481-1.763.879-2.682,1.371a8.684,8.684,0,0,0-2.232,2.258,4.262,4.262,0,0,0-.74,2.974" transform="translate(-39.745 -306.395)" fill="#8ac4a2"/>
                </g>
              </g>
            </g>
            <g id="Grupo_984541" data-name="Grupo 984541" transform="translate(132.215 264.949)" opacity="0.33" style="mix-blend-mode: multiply;isolation: isolate">
              <g id="Grupo_984540" data-name="Grupo 984540" transform="translate(0)">
                <g id="Grupo_984539" data-name="Grupo 984539" clip-path="url(#clip-path-22)">
                  <path id="Trazado_728740" data-name="Trazado 728740" d="M76.943,314.295c-.094-1.724-.186-3.452-.384-5.189a23.523,23.523,0,0,0-4.714-9.2,22.9,22.9,0,0,1,3.495,9.484c.595,1.6,1.1,3.25,1.6,4.9" transform="translate(-71.845 -299.909)" fill="#8ac4a2"/>
                </g>
              </g>
            </g>
            <g id="Grupo_984544" data-name="Grupo 984544" transform="translate(128.109 303.668)" opacity="0.33" style="mix-blend-mode: multiply;isolation: isolate">
              <g id="Grupo_984543" data-name="Grupo 984543" transform="translate(0)">
                <g id="Grupo_984542" data-name="Grupo 984542" clip-path="url(#clip-path-23)">
                  <path id="Trazado_728741" data-name="Trazado 728741" d="M80.51,356.388a13.713,13.713,0,0,0-2.754-1.9,19.1,19.1,0,0,0-3.139-1.24,5.284,5.284,0,0,1-2.745-1.176,18.4,18.4,0,0,1-2.113-2.425,10.093,10.093,0,0,1-2.515-5.906c-.2,2.237.83,4.4,2,6.261a18.836,18.836,0,0,0,1.98,2.749,5.277,5.277,0,0,0,1.448,1.09,9.237,9.237,0,0,0,1.649.624,18.223,18.223,0,0,1,3.2.6,13.4,13.4,0,0,1,2.992,1.325" transform="translate(-67.219 -343.737)" fill="#8ac4a2"/>
                </g>
              </g>
            </g>
            <path id="Trazado_728742" data-name="Trazado 728742" d="M62.534,376.529s-3.277-4.387-6.933-3.034-2.628,9.664-.754,10.133,7.687-7.1,7.687-7.1" transform="translate(91.296 -43.508)" fill="#38474f"/>
          </g>
        </g>
      </g>
    </g>
  </g>
</svg>
