<svg xmlns="http://www.w3.org/2000/svg" width="62" height="62" viewBox="0 0 62 62">
  <g id="Grupo_984129" data-name="Grupo 984129" transform="translate(-528 -2912)">
    <g id="Grupo_984089" data-name="Grupo 984089" transform="translate(284 -7511)">
      <g id="Rectángulo_340676" data-name="Rectángulo 340676" transform="translate(244 10423)" fill="none" stroke="#39a900" stroke-width="3">
        <rect width="62" height="62" rx="7" stroke="none"/>
        <rect x="1.5" y="1.5" width="59" height="59" rx="5.5" fill="none"/>
      </g>
    </g>
    <g id="ph-meter" transform="translate(534 2918)">
      <g id="Grupo_984127" data-name="Grupo 984127" transform="translate(0.8 0.8)">
        <g id="Grupo_984106" data-name="Grupo 984106" transform="translate(27.867 6.85)">
          <path id="Trazado_728303" data-name="Trazado 728303" d="M296.619,79.689l-8.846,6.88h0a6.388,6.388,0,0,0-1.262-1.262h0l6.88-8.846A17.679,17.679,0,0,1,296.619,79.689Z" transform="translate(-286.51 -76.46)" fill="#e6e9ed"/>
        </g>
        <g id="Grupo_984107" data-name="Grupo 984107" transform="translate(21.73 3.202)">
          <path id="Trazado_728304" data-name="Trazado 728304" d="M229.748,40.147l-1.39,11.12h0a6.391,6.391,0,0,0-1.784,0h0l-1.39-11.12A17.677,17.677,0,0,1,229.748,40.147Z" transform="translate(-225.182 -39.999)" fill="#e6e9ed"/>
        </g>
        <g id="Grupo_984108" data-name="Grupo 984108" transform="translate(30.355 18.528)">
          <path id="Trazado_728305" data-name="Trazado 728305" d="M322.5,193.18a17.795,17.795,0,0,1,0,4.567l-11.121-1.391a6.451,6.451,0,0,0,0-1.785Z" transform="translate(-311.38 -193.18)" fill="#e6e9ed"/>
        </g>
        <g id="Grupo_984109" data-name="Grupo 984109" transform="translate(27.867 24.665)">
          <path id="Trazado_728306" data-name="Trazado 728306" d="M287.773,254.51l8.845,6.88a17.672,17.672,0,0,1-3.228,3.229l-6.88-8.846h0a6.388,6.388,0,0,0,1.262-1.262Z" transform="translate(-286.51 -254.51)" fill="#e6e9ed"/>
        </g>
        <g id="Grupo_984110" data-name="Grupo 984110" transform="translate(21.912 27.153)">
          <path id="Trazado_728307" data-name="Trazado 728307" d="M229.994,279.38l1.209,9.667H227l1.209-9.667a6.451,6.451,0,0,0,1.785,0Z" transform="translate(-227 -279.38)" fill="#e6e9ed"/>
        </g>
        <g id="Grupo_984111" data-name="Grupo 984111" transform="translate(10.053 24.665)">
          <path id="Trazado_728308" data-name="Trazado 728308" d="M118.578,255.772h0l-6.88,8.846a17.674,17.674,0,0,1-3.228-3.229l8.845-6.88h0A6.387,6.387,0,0,0,118.578,255.772Z" transform="translate(-108.47 -254.51)" fill="#e6e9ed"/>
        </g>
        <g id="Grupo_984112" data-name="Grupo 984112" transform="translate(6.404 18.528)">
          <path id="Trazado_728309" data-name="Trazado 728309" d="M72.147,193.18l11.121,1.391a6.451,6.451,0,0,0,0,1.785l-11.121,1.391a17.8,17.8,0,0,1,0-4.567Z" transform="translate(-72 -193.18)" fill="#e6e9ed"/>
        </g>
        <g id="Grupo_984113" data-name="Grupo 984113" transform="translate(10.052 6.85)">
          <path id="Trazado_728310" data-name="Trazado 728310" d="M118.569,85.306h0a6.387,6.387,0,0,0-1.262,1.262h0l-8.846-6.88a17.679,17.679,0,0,1,3.229-3.229Z" transform="translate(-108.46 -76.46)" fill="#e6e9ed"/>
        </g>
        <g id="Grupo_984114" data-name="Grupo 984114" transform="translate(3.202)">
          <path id="Trazado_728311" data-name="Trazado 728311" d="M60.812,11.2a17.729,17.729,0,0,0-2.283.147,17.615,17.615,0,0,0-15.18,15.18,17.8,17.8,0,0,0,0,4.567A17.639,17.639,0,0,0,53.467,44.821H47.513a20.812,20.812,0,1,1,26.6,0H68.159A17.636,17.636,0,0,0,78.275,31.095a17.795,17.795,0,0,0,0-4.567,17.615,17.615,0,0,0-15.18-15.18,17.729,17.729,0,0,0-2.283-.147Z" transform="translate(-40 -8)" fill="#ccd1d9"/>
        </g>
        <g id="Grupo_984115" data-name="Grupo 984115" transform="translate(24.906 3.349)">
          <path id="Trazado_728312" data-name="Trazado 728312" d="M266.76,44.971l-6.88,8.846a6.364,6.364,0,0,0-2.961-1.226l1.391-11.121A17.514,17.514,0,0,1,266.76,44.971Z" transform="translate(-256.92 -41.47)" fill="#fc6e51"/>
        </g>
        <g id="Grupo_984116" data-name="Grupo 984116" transform="translate(29.129 10.079)">
          <path id="Trazado_728313" data-name="Trazado 728313" d="M311.477,117.18l-11.121,1.391a6.364,6.364,0,0,0-1.226-2.961l8.846-6.88A17.514,17.514,0,0,1,311.477,117.18Z" transform="translate(-299.13 -108.73)" fill="#dfb28b"/>
        </g>
        <g id="Grupo_984117" data-name="Grupo 984117" transform="translate(29.129 21.704)">
          <path id="Trazado_728314" data-name="Trazado 728314" d="M300.356,224.92l11.121,1.391a17.516,17.516,0,0,1-3.5,8.45l-8.845-6.88A6.364,6.364,0,0,0,300.356,224.92Z" transform="translate(-299.13 -224.92)" fill="#cf9e76"/>
        </g>
        <g id="Grupo_984118" data-name="Grupo 984118" transform="translate(24.906 25.928)">
          <path id="Trazado_728315" data-name="Trazado 728315" d="M259.881,267.13l6.88,8.846a17.551,17.551,0,0,1-3.386,2.047h-5.246l-1.209-9.667A6.365,6.365,0,0,0,259.881,267.13Z" transform="translate(-256.92 -267.13)" fill="#838f9b"/>
        </g>
        <g id="Grupo_984119" data-name="Grupo 984119" transform="translate(13.28 25.928)">
          <path id="Trazado_728316" data-name="Trazado 728316" d="M150.571,268.356l-1.209,9.667h-5.244a17.585,17.585,0,0,1-3.388-2.047l6.88-8.846A6.365,6.365,0,0,0,150.571,268.356Z" transform="translate(-140.73 -267.13)" fill="#69d6f4"/>
        </g>
        <g id="Grupo_984120" data-name="Grupo 984120" transform="translate(0 36.821)">
          <path id="Trazado_728317" data-name="Trazado 728317" d="M24.668,376H55.227a.8.8,0,0,1,.8.8v4h-5.6a.8.8,0,0,0-.8.8v5.6H8.8a.8.8,0,0,1-.8-.8V376.8a.8.8,0,0,1,.8-.8H24.668Z" transform="translate(-8 -376)" fill="#ff826e"/>
        </g>
        <g id="Grupo_984121" data-name="Grupo 984121" transform="translate(41.623 41.623)">
          <path id="Trazado_728318" data-name="Trazado 728318" d="M430.4,424v.469a.8.8,0,0,1-.234.565l-5.135,5.135a.8.8,0,0,1-.565.234H424v-5.6a.8.8,0,0,1,.8-.8Z" transform="translate(-424 -424)" fill="#fc6e51"/>
        </g>
        <g id="Grupo_984122" data-name="Grupo 984122" transform="translate(6.551 21.704)">
          <path id="Trazado_728319" data-name="Trazado 728319" d="M85.817,227.881l-8.845,6.88a17.506,17.506,0,0,1-3.5-8.45l11.121-1.391A6.364,6.364,0,0,0,85.817,227.881Z" transform="translate(-73.47 -224.92)" fill="#b4dd7f"/>
        </g>
        <g id="Grupo_984123" data-name="Grupo 984123" transform="translate(6.551 10.079)">
          <path id="Trazado_728320" data-name="Trazado 728320" d="M76.971,108.73l8.846,6.88a6.364,6.364,0,0,0-1.226,2.961L73.47,117.18A17.514,17.514,0,0,1,76.971,108.73Z" transform="translate(-73.47 -108.73)" fill="#fcd770"/>
        </g>
        <g id="Grupo_984124" data-name="Grupo 984124" transform="translate(13.28 3.349)">
          <path id="Trazado_728321" data-name="Trazado 728321" d="M149.18,41.47l1.391,11.121a6.364,6.364,0,0,0-2.961,1.226l-6.88-8.846a17.514,17.514,0,0,1,8.45-3.5Z" transform="translate(-140.73 -41.47)" fill="#ff826e"/>
        </g>
        <g id="Grupo_984125" data-name="Grupo 984125" transform="translate(17.61 14.408)">
          <path id="Trazado_728322" data-name="Trazado 728322" d="M196.745,157.511a6.407,6.407,0,0,1-1.226,4.746h0a6.387,6.387,0,0,1-1.262,1.262h0a6.407,6.407,0,0,1-7.706,0h0a6.386,6.386,0,0,1-1.262-1.262h0a6.407,6.407,0,0,1,0-7.706h0a6.387,6.387,0,0,1,1.262-1.262h0a6.407,6.407,0,0,1,7.706,0h0a6.388,6.388,0,0,1,1.262,1.262h0A6.364,6.364,0,0,1,196.745,157.511Z" transform="translate(-184 -152)" fill="#ccd1d9"/>
        </g>
        <g id="Grupo_984126" data-name="Grupo 984126" transform="translate(20.663 17.491)">
          <circle id="Elipse_5884" data-name="Elipse 5884" cx="3.22" cy="3.22" r="3.22" transform="translate(0 0)" fill="#e6e9ed"/>
        </g>
      </g>
      <g id="Grupo_984128" data-name="Grupo 984128" transform="translate(0)">
        <path id="Trazado_728323" data-name="Trazado 728323" d="M48.027,36.821h-7.86a21.612,21.612,0,1,0-30.707,0H1.6a1.6,1.6,0,0,0-1.6,1.6v9.605a1.6,1.6,0,0,0,1.6,1.6H42.893a1.59,1.59,0,0,0,1.132-.469l5.134-5.134a1.59,1.59,0,0,0,.469-1.132V38.422A1.6,1.6,0,0,0,48.027,36.821ZM4.8,21.612A20.011,20.011,0,1,1,37.817,36.821H35.191a18.411,18.411,0,1,0-20.753,0H11.811A19.964,19.964,0,0,1,4.8,21.612ZM35.676,34.435l-5.91-7.6q.14-.133.273-.273l7.6,5.907A16.857,16.857,0,0,1,35.676,34.435Zm-10.862-7.22a5.6,5.6,0,1,1,5.6-5.6A5.61,5.61,0,0,1,24.814,27.215Zm13.8,3.987-7.6-5.914a7.159,7.159,0,0,0,.789-1.9l9.56,1.2A16.874,16.874,0,0,1,38.609,31.2Zm3.014-9.59c0,.466-.022.928-.06,1.387l-9.55-1.194c0-.064,0-.128,0-.193s0-.129,0-.193l9.553-1.194C41.6,20.682,41.623,21.145,41.623,21.612ZM31.8,19.833a7.163,7.163,0,0,0-.789-1.9l7.6-5.915a16.72,16.72,0,0,1,2.749,6.616ZM30.039,16.66q-.133-.14-.273-.273l5.907-7.6a16.96,16.96,0,0,1,1.961,1.961ZM28.49,15.42a7.159,7.159,0,0,0-1.9-.789l1.2-9.565A16.721,16.721,0,0,1,34.4,7.816Zm-3.483-1.007c-.064,0-.128,0-.193,0s-.129,0-.193,0L23.427,4.86c.458-.038.92-.058,1.387-.058s.93.02,1.387.058ZM21.839,5.066l1.2,9.565a7.163,7.163,0,0,0-1.9.789l-5.915-7.6A16.72,16.72,0,0,1,21.839,5.066ZM13.955,8.792l5.907,7.595q-.14.133-.273.273l-7.6-5.907a16.977,16.977,0,0,1,1.961-1.961Zm-2.937,3.229,7.6,5.915a7.16,7.16,0,0,0-.789,1.9l-9.565-1.2a16.721,16.721,0,0,1,2.749-6.616ZM8,21.612c0-.467.02-.93.058-1.387l9.553,1.194c0,.064,0,.128,0,.193s0,.129,0,.193L8.064,23C8.026,22.54,8,22.078,8,21.612Zm9.828,1.779a7.163,7.163,0,0,0,.789,1.9l-7.6,5.915a16.864,16.864,0,0,1-2.745-6.617Zm1.756,3.173q.133.14.273.273l-5.91,7.6a16.853,16.853,0,0,1-1.959-1.964ZM17.651,36.821a16.745,16.745,0,0,1-2.433-1.406L21.138,27.8a7.163,7.163,0,0,0,1.9.789l-1.028,8.227Zm6.97-8.009c.064,0,.128,0,.193,0s.129,0,.193,0l1,8.009H23.619Zm3,8.009-1.028-8.227a7.157,7.157,0,0,0,1.9-.789l5.919,7.61a16.714,16.714,0,0,1-2.431,1.407H27.622ZM1.6,38.422H48.027v3.2h-4.8a1.6,1.6,0,0,0-1.6,1.6v4.8H1.6ZM43.224,47.7V43.224H47.7Z" transform="translate(0)"/>
        <path id="Trazado_728324" data-name="Trazado 728324" d="M212,176a4,4,0,1,0,4,4A4.007,4.007,0,0,0,212,176Zm0,6.4a2.4,2.4,0,1,1,2.4-2.4A2.4,2.4,0,0,1,212,182.4Z" transform="translate(-187.188 -158.39)"/>
      </g>
    </g>
  </g>
</svg>
