<svg xmlns="http://www.w3.org/2000/svg" xmlns:xlink="http://www.w3.org/1999/xlink" width="62" height="62" viewBox="0 0 62 62">
  <defs>
    <clipPath id="clip-path">
      <path id="path1341" d="M0-682.665H57.665V-625H0Z" transform="translate(0 682.665)"/>
    </clipPath>
  </defs>
  <g id="Grupo_984242" data-name="Grupo 984242" transform="translate(-232 -5690)">
    <g id="Grupo_984027" data-name="Grupo 984027" transform="translate(-12 -4733)">
      <g id="Rectángulo_340676" data-name="Rectángulo 340676" transform="translate(244 10423)" fill="none" stroke="#39a900" stroke-width="3">
        <rect width="62" height="62" rx="7" stroke="none"/>
        <rect x="1.5" y="1.5" width="59" height="59" rx="5.5" fill="none"/>
      </g>
    </g>
    <g id="g1335" transform="translate(234 6374.665)">
      <g id="g1337" transform="translate(0 -682.665)">
        <g id="g1339" clip-path="url(#clip-path)">
          <g id="g1345" transform="translate(3.256 9.248)">
            <path id="path1347" d="M-552.333-338a3.68,3.68,0,0,0-1.776-4.431,3.662,3.662,0,0,0-1.41-.41,2.689,2.689,0,0,1-1.636-.747,6.13,6.13,0,0,0-1.264-.928,1.393,1.393,0,0,1-.719-1.105c-.294-3.681-2.657-5.218-4.184-6.767a3.4,3.4,0,0,1-.969-2.389v-.014a6.1,6.1,0,0,0-3.811-5.658,2.467,2.467,0,0,1-1.518-1.933,3.66,3.66,0,0,0-.682-1.662,3.661,3.661,0,0,0-1.685-1.266,2.509,2.509,0,0,1-1.5-1.49,3.666,3.666,0,0,0-1.838-2.044,3.829,3.829,0,0,0-4.708,1.306,3.745,3.745,0,0,0-.3.56,9.91,9.91,0,0,1-3.759,4.381,8.355,8.355,0,0,0-3.166,3.794l-.048.116a6.066,6.066,0,0,1-2.458,2.879,8.393,8.393,0,0,0-3.98,7.144v.014a1.4,1.4,0,0,1-.843,1.278,8.418,8.418,0,0,0-3.13,2.379,8.679,8.679,0,0,1-3.346,2.436,3.662,3.662,0,0,0-1.81,1.671A3.668,3.668,0,0,0-603.1-338Z" transform="translate(603.294 369.188)" fill="#c4583a"/>
          </g>
          <g id="g1349" transform="translate(26.078 9.249)">
            <path id="path1351" d="M-304.98-338h-7.036a3.679,3.679,0,0,0-1.776-4.431,3.644,3.644,0,0,0-1.409-.41,2.69,2.69,0,0,1-1.636-.747,6.118,6.118,0,0,0-1.265-.928,1.394,1.394,0,0,1-.719-1.1c-.294-3.681-2.657-5.218-4.184-6.767a3.4,3.4,0,0,1-.97-2.39v-.013a6.106,6.106,0,0,0-3.81-5.658,2.467,2.467,0,0,1-1.519-1.933,3.65,3.65,0,0,0-.681-1.661,3.664,3.664,0,0,0-1.686-1.267,2.516,2.516,0,0,1-1.447-1.358c.048-.1.1-.206.14-.31a3.667,3.667,0,0,1,.3-.56,3.83,3.83,0,0,1,4.709-1.305,3.665,3.665,0,0,1,1.838,2.043,2.508,2.508,0,0,0,1.5,1.49,3.663,3.663,0,0,1,1.686,1.267,3.647,3.647,0,0,1,.681,1.661,2.468,2.468,0,0,0,1.519,1.933,6.106,6.106,0,0,1,3.81,5.658v.013a3.4,3.4,0,0,0,.97,2.39c1.527,1.549,3.89,3.086,4.184,6.767a1.394,1.394,0,0,0,.719,1.1,6.116,6.116,0,0,1,1.265.928,2.69,2.69,0,0,0,1.636.747,3.644,3.644,0,0,1,1.409.41A3.679,3.679,0,0,1-304.98-338" transform="translate(333.119 369.182)" fill="#a84b31"/>
          </g>
          <g id="g1353" transform="translate(2.409 8.409)">
            <path id="path1355" d="M-388.777-88.044h-50.767a.845.845,0,0,1-.8-.576,4.485,4.485,0,0,1,.282-3.546,4.533,4.533,0,0,1,2.226-2.055,7.784,7.784,0,0,0,3.024-2.194,9.3,9.3,0,0,1,3.444-2.618.554.554,0,0,0,.338-.5,9.2,9.2,0,0,1,4.38-7.877,5.2,5.2,0,0,0,2.119-2.476l.053-.129a9.189,9.189,0,0,1,3.485-4.174,9.028,9.028,0,0,0,3.442-4,4.6,4.6,0,0,1,.365-.686,4.694,4.694,0,0,1,5.791-1.606,4.51,4.51,0,0,1,2.259,2.512,1.665,1.665,0,0,0,1,.987,4.505,4.505,0,0,1,2.072,1.557,4.531,4.531,0,0,1,.839,2.044,1.626,1.626,0,0,0,1,1.269,6.946,6.946,0,0,1,1.342.726.845.845,0,0,1,.213,1.175.845.845,0,0,1-1.175.213,5.253,5.253,0,0,0-1.015-.549,3.32,3.32,0,0,1-2.037-2.6,2.8,2.8,0,0,0-.526-1.279,2.821,2.821,0,0,0-1.3-.975,3.351,3.351,0,0,1-2-1.994,2.828,2.828,0,0,0-1.418-1.575,2.979,2.979,0,0,0-3.625,1.006,2.9,2.9,0,0,0-.231.434,10.709,10.709,0,0,1-4.076,4.758,7.508,7.508,0,0,0-2.847,3.412l-.043.105a6.874,6.874,0,0,1-2.8,3.282,7.515,7.515,0,0,0-3.581,6.426,2.248,2.248,0,0,1-1.348,2.066,7.6,7.6,0,0,0-2.815,2.14,9.452,9.452,0,0,1-3.669,2.678,2.8,2.8,0,0,0-1.394,1.287,2.805,2.805,0,0,0-.306,1.647h49.427a2.82,2.82,0,0,0-1.5-2.838,2.81,2.81,0,0,0-1.085-.316,3.552,3.552,0,0,1-2.151-.977,5.282,5.282,0,0,0-1.09-.8,2.232,2.232,0,0,1-1.153-1.777c-.22-2.755-1.694-4.126-3.119-5.452-.289-.269-.568-.529-.825-.789a4.213,4.213,0,0,1-1.212-2.984,5.259,5.259,0,0,0-.324-1.832.845.845,0,0,1,.5-1.085.845.845,0,0,1,1.085.5,6.925,6.925,0,0,1,.428,2.4,2.543,2.543,0,0,0,.726,1.81c.24.243.5.486.772.738,1.506,1.4,3.38,3.144,3.652,6.554a.547.547,0,0,0,.286.433,6.971,6.971,0,0,1,1.438,1.056,1.857,1.857,0,0,0,1.122.516,4.49,4.49,0,0,1,1.734.5,4.5,4.5,0,0,1,2.183,5.449A.845.845,0,0,1-388.777-88.044Z" transform="translate(440.584 120.914)"/>
          </g>
          <g id="g1357" transform="translate(0.845 38.981)">
            <path id="path1359" d="M-594.209-102.262h-53.673a1.151,1.151,0,0,1-1.151-1.151v-7.132a1.151,1.151,0,0,1,1.151-1.151h53.673a1.151,1.151,0,0,1,1.151,1.151v7.132a1.151,1.151,0,0,1-1.151,1.151" transform="translate(649.033 111.697)" fill="#fdc266"/>
          </g>
          <g id="g1361" transform="translate(51.178 38.981)">
            <path id="path1363" d="M-61.151-12.479v7.133A1.152,1.152,0,0,1-62.3-4.195h-4.491a1.152,1.152,0,0,0,1.151-1.151v-7.133a1.152,1.152,0,0,0-1.151-1.151H-62.3a1.152,1.152,0,0,1,1.151,1.151" transform="translate(66.793 13.631)" fill="#feb541"/>
          </g>
          <g id="g1365" transform="translate(0 38.136)">
            <path id="path1367" d="M-70.338,1.124H-124.01a2,2,0,0,1-2-2V-8a2,2,0,0,1,2-2h8.648a.845.845,0,0,1,.845.845.845.845,0,0,1-.845.845h-8.648a.307.307,0,0,0-.307.307V-.872a.307.307,0,0,0,.307.307h53.673a.307.307,0,0,0,.307-.307V-8a.307.307,0,0,0-.307-.307H-80.675a.845.845,0,0,1-.845-.845A.845.845,0,0,1-80.675-10h10.337a2,2,0,0,1,2,2V-.872A2,2,0,0,1-70.338,1.124Z" transform="translate(126.006 10)"/>
          </g>
          <g id="g1369" transform="translate(13.515 38.136)">
            <path id="path1371" d="M-304.578-8.311h-27.257a.845.845,0,0,1-.845-.845.845.845,0,0,1,.845-.845h27.257a.845.845,0,0,1,.845.845A.845.845,0,0,1-304.578-8.311Z" transform="translate(332.679 10)"/>
          </g>
          <g id="g1373" transform="translate(38.424 41.026)">
            <path id="path1375" d="M-208.691-5.083a11.974,11.974,0,0,1-6.22-1.737.845.845,0,0,1-.283-1.161.845.845,0,0,1,1.16-.283,10.285,10.285,0,0,0,5.342,1.491,10.285,10.285,0,0,0,5.342-1.491A11.975,11.975,0,0,1-197.129-10a.845.845,0,0,1,.845.845.845.845,0,0,1-.845.845,10.286,10.286,0,0,0-5.342,1.491A11.974,11.974,0,0,1-208.691-5.083Z" transform="translate(215.317 10)"/>
          </g>
          <g id="g1377" transform="translate(3.6 38.136)">
            <path id="path1379" d="M-1.183-4.074c-4.237,0-7.846-1.982-8.777-4.82A.845.845,0,0,1-9.421-9.96a.845.845,0,0,1,1.066.539c.7,2.119,3.712,3.657,7.172,3.657S5.294-7.3,5.989-9.421A.845.845,0,0,1,7.055-9.96a.845.845,0,0,1,.539,1.066C6.663-6.057,3.054-4.074-1.183-4.074Z" transform="translate(10.003 10.003)"/>
          </g>
          <g id="g1381" transform="translate(18.854 43.501)">
            <path id="path1383" d="M-9.157-52.425a.847.847,0,0,1-.194-.023.845.845,0,0,1-.628-1.016,6.083,6.083,0,0,1,2.739-3.8,6.083,6.083,0,0,1,4.626-.753A.845.845,0,0,1-1.987-57,.845.845,0,0,1-3-56.375a4.4,4.4,0,0,0-3.35.545,4.4,4.4,0,0,0-1.983,2.754A.845.845,0,0,1-9.157-52.425Z" transform="translate(10.002 58.185)"/>
          </g>
          <g id="g1385" transform="translate(31.605 42.375)">
            <path id="path1387" d="M-9.079-8.311a.85.85,0,0,1-.851-.845A.84.84,0,0,1-9.091-10h.012a.845.845,0,0,1,.845.845A.845.845,0,0,1-9.079-8.311Z" transform="translate(9.93 10)"/>
          </g>
          <g id="g1389" transform="translate(17.782 24.96)">
            <path id="path1391" d="M-9.079-8.311a.85.85,0,0,1-.851-.845A.84.84,0,0,1-9.091-10h.012a.845.845,0,0,1,.845.845A.845.845,0,0,1-9.079-8.311Z" transform="translate(9.929 10)"/>
          </g>
          <g id="g1393" transform="translate(16.318 31.004)">
            <path id="path1395" d="M-9.079-8.311a.85.85,0,0,1-.851-.845A.84.84,0,0,1-9.091-10h.012a.845.845,0,0,1,.845.845A.845.845,0,0,1-9.079-8.311Z" transform="translate(9.929 10)"/>
          </g>
          <g id="g1397" transform="translate(19.549 26.9)">
            <path id="path1399" d="M-9.079-8.311a.85.85,0,0,1-.851-.845A.84.84,0,0,1-9.091-10h.012a.845.845,0,0,1,.845.845A.845.845,0,0,1-9.079-8.311Z" transform="translate(9.93 10)"/>
          </g>
          <g id="g1401" transform="translate(33.813 31.851)">
            <path id="path1403" d="M-9.079-8.311a.85.85,0,0,1-.851-.845A.84.84,0,0,1-9.091-10h.012a.845.845,0,0,1,.845.845A.845.845,0,0,1-9.079-8.311Z" transform="translate(9.93 10)"/>
          </g>
          <g id="g1405" transform="translate(37.567 22.257)">
            <path id="path1407" d="M-9.079-8.311a.85.85,0,0,1-.851-.845A.84.84,0,0,1-9.091-10h.012a.845.845,0,0,1,.845.845A.845.845,0,0,1-9.079-8.311Z" transform="translate(9.93 10)"/>
          </g>
          <g id="g1409" transform="translate(31.306 15.292)">
            <path id="path1411" d="M-9.079-8.311a.85.85,0,0,1-.851-.845A.84.84,0,0,1-9.091-10h.012a.845.845,0,0,1,.845.845A.845.845,0,0,1-9.079-8.311Z" transform="translate(9.93 10)"/>
          </g>
          <g id="g1413" transform="translate(23.892 19.192)">
            <path id="path1415" d="M-61.923-18.076a.842.842,0,0,1-.608-.258.845.845,0,0,1,.021-1.194,4.034,4.034,0,0,1,2.815-1.138,4.034,4.034,0,0,1,2.815,1.138.845.845,0,0,1,.021,1.194.845.845,0,0,1-1.194.021,2.352,2.352,0,0,0-1.642-.664,2.353,2.353,0,0,0-1.642.664A.842.842,0,0,1-61.923-18.076Z" transform="translate(62.768 20.667)"/>
          </g>
          <g id="g1417" transform="translate(18.577 32.315)">
            <path id="path1419" d="M-77.384-22.1a.842.842,0,0,1-.587-.237,3.669,3.669,0,0,0-2.561-1.035,3.67,3.67,0,0,0-2.561,1.035.845.845,0,0,1-1.194-.021.845.845,0,0,1,.021-1.194,5.351,5.351,0,0,1,3.734-1.509A5.351,5.351,0,0,1-76.8-23.554a.845.845,0,0,1,.021,1.194A.842.842,0,0,1-77.384-22.1Z" transform="translate(84.524 25.064)"/>
          </g>
          <g id="g1421" transform="translate(27.416 26.899)">
            <path id="path1423" d="M-53.839-29.155a.845.845,0,0,1-.774-.506A2.353,2.353,0,0,0-55.879-30.9a2.352,2.352,0,0,0-1.771-.01.845.845,0,0,1-1.1-.474.845.845,0,0,1,.474-1.1,4.034,4.034,0,0,1,3.037.018,4.034,4.034,0,0,1,2.171,2.123.845.845,0,0,1-.435,1.113A.842.842,0,0,1-53.839-29.155Z" transform="translate(58.807 32.768)"/>
          </g>
          <g id="g1425" transform="translate(30.078 25.361)">
            <path id="path1427" d="M-102.817-27.244a.842.842,0,0,1-.587-.237,5.35,5.35,0,0,0-3.734-1.51,5.351,5.351,0,0,0-3.734,1.51.845.845,0,0,1-1.194-.021.845.845,0,0,1,.021-1.194,7.032,7.032,0,0,1,4.908-1.984,7.032,7.032,0,0,1,4.907,1.984.845.845,0,0,1,.021,1.194A.842.842,0,0,1-102.817-27.244Z" transform="translate(112.304 30.68)"/>
          </g>
        </g>
      </g>
    </g>
  </g>
</svg>
