<svg xmlns="http://www.w3.org/2000/svg" width="62" height="62" viewBox="0 0 62 62">
  <g id="Grupo_984153" data-name="Grupo 984153" transform="translate(-232 -4817)">
    <g id="Grupo_984027" data-name="Grupo 984027" transform="translate(-12 -5606)">
      <g id="Rectángulo_340676" data-name="Rectángulo 340676" transform="translate(244 10423)" fill="none" stroke="#39a900" stroke-width="3">
        <rect width="62" height="62" rx="7" stroke="none"/>
        <rect x="1.5" y="1.5" width="59" height="59" rx="5.5" fill="none"/>
      </g>
    </g>
    <g id="ph-meter-" transform="translate(224.797 4798.77)">
      <g id="Grupo_984151" data-name="Grupo 984151" transform="translate(15.203 27.23)">
        <g id="Grupo_984149" data-name="Grupo 984149" transform="translate(0 0)">
          <path id="Trazado_728412" data-name="Trazado 728412" d="M313.707,166.32H299.523a.493.493,0,0,0-.493.493v6.364a.493.493,0,0,0,.493.493h14.184a.492.492,0,0,0,.493-.493v-6.364A.492.492,0,0,0,313.707,166.32Zm-.492,6.363h-13.2V167.3h13.2v5.38Z" transform="translate(-271.813 -152.982)" fill="#231f20"/>
          <path id="Trazado_728413" data-name="Trazado 728413" d="M72.11,422.04a1.45,1.45,0,1,0,1.45,1.45A1.451,1.451,0,0,0,72.11,422.04Zm0,1.916a.466.466,0,1,1,.466-.465A.465.465,0,0,1,72.11,423.956Z" transform="translate(-65.342 -384.181)" fill="#231f20"/>
          <path id="Trazado_728414" data-name="Trazado 728414" d="M118.15,425.428A1.847,1.847,0,1,0,120,423.58,1.849,1.849,0,0,0,118.15,425.428Zm1.847-.863a.863.863,0,1,1-.862.863A.864.864,0,0,1,120,424.565Z" transform="translate(-108.278 -385.573)" fill="#231f20"/>
          <path id="Trazado_728415" data-name="Trazado 728415" d="M57.785,374.557a1.847,1.847,0,1,0-1.848,1.848A1.849,1.849,0,0,0,57.785,374.557Zm-2.71,0a.863.863,0,1,1,.862.863A.863.863,0,0,1,55.075,374.557Z" transform="translate(-50.361 -339.581)" fill="#231f20"/>
          <path id="Trazado_728416" data-name="Trazado 728416" d="M58.671,36.44H48.8V32.5a.493.493,0,0,0-.493-.492H46.635a5.276,5.276,0,0,0-5.245-4.776H27.849A5.274,5.274,0,0,0,22.58,32.5v2.6h-.44a3.082,3.082,0,0,0-3.079,3.079V43.25a.493.493,0,0,0,.493.493h.966v6.979H15.7a.493.493,0,0,0-.34.849l1.509,1.436V70.613a.493.493,0,0,0,.493.492H31.294a.493.493,0,0,0,.493-.492V52.724l.351-.58a.9.9,0,0,0,.015-.919,1.018,1.018,0,0,0-.891-.5H25.628V43.742h.966a.493.493,0,0,0,.492-.493V38.178A3.082,3.082,0,0,0,24.008,35.1h-.441V32.5a4.29,4.29,0,0,1,4.284-4.284h13.54a4.292,4.292,0,0,1,4.256,3.793H44.023a.493.493,0,0,0-.493.492v3.942H41.34a2.716,2.716,0,0,0-2.713,2.713V69.1a2,2,0,0,0,2,2H59.383a2,2,0,0,0,2-2V39.154a2.716,2.716,0,0,0-2.713-2.714ZM16.928,51.707H20.52v5.242a5.21,5.21,0,0,0-2.67.489V52.8a.493.493,0,0,0-.152-.357ZM30.8,70.12H17.85V58.565a4.119,4.119,0,0,1,2.67-.63v1.321a.493.493,0,0,0,.493.493h3.35c.256.215.515.447.769.7A9.042,9.042,0,0,0,30.8,62.9V70.12Zm-9.3-19.4V43.743h3.138v6.979Zm3.138.985v7.059H23.566V51.707Zm-2.062,0v7.059H21.5V51.707Zm8.671,0-.379.625a.487.487,0,0,0-.071.255v9.326a8.054,8.054,0,0,1-4.98-2.168c-.085-.084-.173-.167-.259-.248a.489.489,0,0,0,.065-.239V51.707Zm-5.15-8.95H20.046V40.885H26.1Zm-2.094-6.674a2.1,2.1,0,0,1,2.094,2.1V39.9H20.046V38.178a2.1,2.1,0,0,1,2.094-2.1Zm20.508-3.092H47.82v3.45H44.514ZM60.4,69.1a1.017,1.017,0,0,1-1.016,1.016H40.628A1.018,1.018,0,0,1,39.611,69.1V39.154a1.729,1.729,0,0,1,1.728-1.728H58.671A1.729,1.729,0,0,1,60.4,39.154V69.1Z" transform="translate(-15.203 -27.23)" fill="#231f20"/>
          <path id="Trazado_728417" data-name="Trazado 728417" d="M322.273,294.01h4.056a.493.493,0,0,0,.493-.493v-4.324a.493.493,0,0,0-.493-.493h-4.056a.493.493,0,0,0-.493.493v4.324A.493.493,0,0,0,322.273,294.01Zm.493-4.325h3.071v3.34h-3.071Z" transform="translate(-292.382 -263.627)" fill="#231f20"/>
          <path id="Trazado_728418" data-name="Trazado 728418" d="M385.893,294.01h4.056a.493.493,0,0,0,.493-.493v-4.324a.493.493,0,0,0-.493-.493h-4.056a.493.493,0,0,0-.493.493v4.324A.493.493,0,0,0,385.893,294.01Zm.493-4.325h3.071v3.34h-3.071Z" transform="translate(-349.901 -263.627)" fill="#231f20"/>
          <path id="Trazado_728419" data-name="Trazado 728419" d="M384.493,368.82h4.325a.493.493,0,0,0,.493-.493V364a.493.493,0,0,0-.493-.493h-4.325A.493.493,0,0,0,384,364v4.324A.494.494,0,0,0,384.493,368.82Zm.492-4.325h3.34v3.34h-3.34Z" transform="translate(-348.635 -331.263)" fill="#231f20"/>
          <path id="Trazado_728420" data-name="Trazado 728420" d="M322.273,368.82H326.6a.493.493,0,0,0,.493-.493V364a.493.493,0,0,0-.493-.493h-4.324a.492.492,0,0,0-.493.493v4.324A.493.493,0,0,0,322.273,368.82Zm.493-4.325H326.1v3.34h-3.339Z" transform="translate(-292.382 -331.263)" fill="#231f20"/>
          <path id="Trazado_728421" data-name="Trazado 728421" d="M103.66,390.67a1.45,1.45,0,1,0,1.45-1.45A1.452,1.452,0,0,0,103.66,390.67Zm1.45-.466a.466.466,0,1,1-.466.465A.466.466,0,0,1,105.11,390.2Z" transform="translate(-95.178 -354.508)" fill="#231f20"/>
          <path id="Trazado_728422" data-name="Trazado 728422" d="M323.843,200.476h3.068a.493.493,0,1,0,0-.986h-3.068a.493.493,0,1,0,0,.986Z" transform="translate(-293.801 -182.972)" fill="#231f20"/>
          <path id="Trazado_728423" data-name="Trazado 728423" d="M313.707,268.91H299.523a.493.493,0,0,0-.493.493v15.641a.493.493,0,0,0,.493.493h14.184a.493.493,0,0,0,.493-.493V269.4A.493.493,0,0,0,313.707,268.91Zm-.492,15.642h-13.2V269.895h13.2v14.657Z" transform="translate(-271.813 -245.735)" fill="#231f20"/>
          <path id="Trazado_728424" data-name="Trazado 728424" d="M373.483,200.476H378.4a.493.493,0,1,0,0-.986h-4.914a.493.493,0,1,0,0,.986Z" transform="translate(-338.681 -182.972)" fill="#231f20"/>
        </g>
        <path id="Trazado_728425" data-name="Trazado 728425" d="M52.575,351.425a8.209,8.209,0,0,1-2.482-1.666c-.254-.25-.513-.483-.769-.7H45.973a.493.493,0,0,1-.493-.493v-1.321a4.113,4.113,0,0,0-2.67.63v11.555H55.761v-7.218A10.247,10.247,0,0,1,52.575,351.425Zm-6.836-1.754a1.847,1.847,0,1,1-1.847,1.847A1.849,1.849,0,0,1,45.739,349.671Zm1.192,7.631a1.453,1.453,0,0,1-1.45-1.406c0-.014,0-.03,0-.044a1.45,1.45,0,1,1,1.451,1.45Zm1.715-4.6a1.45,1.45,0,0,1,2.869-.3,1.41,1.41,0,0,1,.032.3,1.45,1.45,0,1,1-2.9,0Zm3.236,5.541a1.847,1.847,0,1,1,1.848-1.847A1.849,1.849,0,0,1,51.881,358.245Z" transform="translate(-40.163 -316.542)" fill="#fe9901"/>
        <path id="Trazado_728426" data-name="Trazado 728426" d="M128.928,282.48l-.379.625a.487.487,0,0,0-.071.255v9.326a8.06,8.06,0,0,1-4.98-2.168c-.085-.084-.173-.167-.259-.248a.489.489,0,0,0,.065-.239V282.48Z" transform="translate(-112.88 -258.003)" fill="#c8effe"/>
        <path id="Trazado_728427" data-name="Trazado 728427" d="M36.782,282.48v5.241a5.21,5.21,0,0,0-2.67.489v-4.64a.493.493,0,0,0-.152-.357l-.77-.734Z" transform="translate(-31.465 -258.003)" fill="#c8effe"/>
        <path id="Trazado_728428" data-name="Trazado 728428" d="M65.71,169.64h6.055v1.872H65.71Z" transform="translate(-60.867 -155.984)" fill="#808285"/>
        <path id="Trazado_728429" data-name="Trazado 728429" d="M71.765,121.645v1.723H65.71v-1.723a2.1,2.1,0,0,1,2.094-2.1H69.67c.039,0,.08,0,.118,0A2.1,2.1,0,0,1,71.765,121.645Z" transform="translate(-60.867 -110.697)" fill="#d1d3d4"/>
        <path id="Trazado_728430" data-name="Trazado 728430" d="M320.87,87.31h3.305v3.45H320.87Z" transform="translate(-291.559 -81.549)" fill="#d1d3d4"/>
        <path id="Trazado_728431" data-name="Trazado 728431" d="M288.8,133.56H271.468a1.729,1.729,0,0,0-1.728,1.728v29.949a1.018,1.018,0,0,0,1.016,1.016h18.755a1.017,1.017,0,0,0,1.016-1.016V135.288A1.728,1.728,0,0,0,288.8,133.56Zm-1.081,29.113a.493.493,0,0,1-.493.493H273.042a.493.493,0,0,1-.493-.493V147.032a.493.493,0,0,1,.493-.493h14.184a.493.493,0,0,1,.493.493Zm0-19.115a.492.492,0,0,1-.493.493H273.042a.493.493,0,0,1-.493-.493v-6.364a.493.493,0,0,1,.493-.493h14.184a.492.492,0,0,1,.493.493Z" transform="translate(-245.332 -123.364)" fill="#57a4ff"/>
        <path id="Trazado_728432" data-name="Trazado 728432" d="M309.3,279.19v14.656h13.2V279.19Zm7.3,1.4a.493.493,0,0,1,.493-.493h4.056a.493.493,0,0,1,.493.493v4.324a.493.493,0,0,1-.493.493H317.09a.492.492,0,0,1-.493-.493Zm-6.1,0a.493.493,0,0,1,.493-.493h4.056a.493.493,0,0,1,.493.493v4.324a.493.493,0,0,1-.493.493H310.99a.492.492,0,0,1-.493-.493Zm5.31,11.5a.493.493,0,0,1-.493.493H310.99a.493.493,0,0,1-.493-.493v-4.324a.493.493,0,0,1,.493-.493h4.324a.492.492,0,0,1,.493.493Zm5.966,0a.493.493,0,0,1-.493.493h-4.325a.493.493,0,0,1-.493-.493v-4.324a.493.493,0,0,1,.493-.493h4.325a.493.493,0,0,1,.493.493Z" transform="translate(-281.098 -255.029)" fill="#c8effe"/>
        <g id="Grupo_984150" data-name="Grupo 984150" transform="translate(30.384 26.058)">
          <path id="Trazado_728433" data-name="Trazado 728433" d="M332.06,298.97h3.071v3.34H332.06Z" transform="translate(-332.06 -298.97)" fill="#808285"/>
          <path id="Trazado_728434" data-name="Trazado 728434" d="M395.68,298.97h3.071v3.34H395.68Z" transform="translate(-389.579 -298.97)" fill="#808285"/>
          <path id="Trazado_728435" data-name="Trazado 728435" d="M332.06,373.78H335.4v3.34H332.06Z" transform="translate(-332.06 -366.606)" fill="#808285"/>
          <path id="Trazado_728436" data-name="Trazado 728436" d="M394.27,373.78h3.34v3.34h-3.34Z" transform="translate(-388.304 -366.606)" fill="#808285"/>
        </g>
        <path id="Trazado_728437" data-name="Trazado 728437" d="M309.3,176.59v5.38h13.2v-5.38Zm4.908,3.182H311.14a.493.493,0,1,1,0-.986h3.068a.48.48,0,0,1,.281.089.488.488,0,0,1,.211.4A.493.493,0,0,1,314.208,179.772Zm6.608,0H315.9a.493.493,0,1,1,0-.986h4.914a.493.493,0,1,1,0,.986Z" transform="translate(-281.098 -162.267)" fill="#c8effe"/>
        <path id="Trazado_728438" data-name="Trazado 728438" d="M66.085,383.843a.861.861,0,1,1-.273-.631A.862.862,0,0,1,66.085,383.843Z" transform="translate(-59.646 -348.866)" fill="#fff"/>
        <path id="Trazado_728439" data-name="Trazado 728439" d="M130.145,434.712a.863.863,0,1,1-.863-.862.876.876,0,0,1,.325.063A.862.862,0,0,1,130.145,434.712Z" transform="translate(-117.563 -394.858)" fill="#f1f2f2"/>
        <path id="Trazado_728440" data-name="Trazado 728440" d="M129.687,434.275a.863.863,0,0,1-.862.863.877.877,0,0,1-.325-.063.863.863,0,0,1,.782-1.225.876.876,0,0,1,.325.063A.863.863,0,0,1,129.687,434.275Z" transform="translate(-117.563 -394.858)" fill="#fff"/>
        <path id="Trazado_728441" data-name="Trazado 728441" d="M81.86,432.775a.466.466,0,1,1-.272-.423A.465.465,0,0,1,81.86,432.775Z" transform="translate(-74.627 -393.466)" fill="#f1f2f2"/>
        <path id="Trazado_728442" data-name="Trazado 728442" d="M81.63,432.555a.183.183,0,1,1-.042-.193A.458.458,0,0,1,81.63,432.555Z" transform="translate(-74.627 -393.475)" fill="#fff"/>
        <path id="Trazado_728443" data-name="Trazado 728443" d="M114.851,399.946a.465.465,0,0,1-.892.186.448.448,0,0,1-.039-.187.466.466,0,0,1,.465-.465.454.454,0,0,1,.187.039A.466.466,0,0,1,114.851,399.946Z" transform="translate(-104.454 -363.784)" fill="#f1f2f2"/>
        <path id="Trazado_728444" data-name="Trazado 728444" d="M114.611,399.716a.465.465,0,0,1-.465.465.175.175,0,0,1-.226-.226.466.466,0,0,1,.465-.465.175.175,0,0,1,.226.226Z" transform="translate(-104.454 -363.793)" fill="#fff"/>
        <path id="Trazado_728445" data-name="Trazado 728445" d="M80.92,199.42h3.138V206.4H80.92Z" transform="translate(-74.618 -182.908)" fill="#e6e7e8"/>
        <path id="Trazado_728446" data-name="Trazado 728446" d="M80.92,282.48H82v7.059H80.92Z" transform="translate(-74.618 -258.003)" fill="#d1d3d4"/>
        <path id="Trazado_728447" data-name="Trazado 728447" d="M102.42,282.48H103.5v7.059H102.42Z" transform="translate(-94.057 -258.003)" fill="#d1d3d4"/>
      </g>
      <path id="Trazado_728448" data-name="Trazado 728448" d="M324.175,87.31v3.45H320.87v-.615A7.243,7.243,0,0,0,323,87.311h1.171Z" transform="translate(-276.356 -54.319)" fill="#bcbec0"/>
      <path id="Trazado_728449" data-name="Trazado 728449" d="M105.407,121.681V123.4H102.92a20.357,20.357,0,0,0,.51-3.815A2.1,2.1,0,0,1,105.407,121.681Z" transform="translate(-79.305 -83.503)" fill="#bcbec0"/>
      <path id="Trazado_728450" data-name="Trazado 728450" d="M92.547,169.64h2.761v1.872H91.75A10.182,10.182,0,0,0,92.547,169.64Z" transform="translate(-69.207 -128.754)" fill="#6d6e71"/>
      <path id="Trazado_728451" data-name="Trazado 728451" d="M317.292,176.581a34,34,0,0,1-2.8,2.286.488.488,0,0,1,.211.4.493.493,0,0,1-.493.493h-1.037a16.2,16.2,0,0,1-3.871,1.851v.346h13.2v-5.38h-5.208Zm3.524,3.182H315.9a.493.493,0,1,1,0-.986h4.915a.493.493,0,0,1,0,.986Z" transform="translate(-265.895 -135.028)" fill="#b4e1ef"/>
      <g id="Grupo_984152" data-name="Grupo 984152" transform="translate(45.586 53.288)">
        <path id="Trazado_728452" data-name="Trazado 728452" d="M335.121,298.97v3.34H332.05v-.25a5.326,5.326,0,0,0,2-3.09Z" transform="translate(-332.05 -298.97)" fill="#6d6e71"/>
        <path id="Trazado_728453" data-name="Trazado 728453" d="M398.741,298.97v3.34H395.67v-.25a5.326,5.326,0,0,0,2-3.09Z" transform="translate(-389.569 -298.97)" fill="#6d6e71"/>
        <path id="Trazado_728454" data-name="Trazado 728454" d="M335.4,373.78v3.34H332.06v-.25a5.867,5.867,0,0,0,2.274-3.09Z" transform="translate(-332.059 -366.606)" fill="#6d6e71"/>
        <path id="Trazado_728455" data-name="Trazado 728455" d="M397.606,373.78v3.34H394.27v-.25a5.851,5.851,0,0,0,2.266-3.09Z" transform="translate(-388.304 -366.606)" fill="#6d6e71"/>
      </g>
      <path id="Trazado_728456" data-name="Trazado 728456" d="M290.528,135.27v29.949a1.017,1.017,0,0,1-1.016,1.016H270.756a1.018,1.018,0,0,1-1.016-1.016V163.9a24.259,24.259,0,0,0,2.809-2.68v1.435a.493.493,0,0,0,.493.493h14.184a.493.493,0,0,0,.493-.493V147.014a.493.493,0,0,0-.493-.493h-5.413c.408-.842.8-1.675,1.17-2.489h4.243a.492.492,0,0,0,.493-.493v-6.364a.492.492,0,0,0-.493-.493h-1.149c.5-1.293.9-2.369,1.174-3.141h1.55A1.732,1.732,0,0,1,290.528,135.27Z" transform="translate(-230.129 -96.116)" fill="#4798ea"/>
      <path id="Trazado_728457" data-name="Trazado 728457" d="M84.058,199.42V206.4H80.92v-.99a43.249,43.249,0,0,0,2.518-5.989Z" transform="translate(-59.415 -155.678)" fill="#d1d3d4"/>
      <path id="Trazado_728458" data-name="Trazado 728458" d="M52.584,391q-.5.5-1.061.979a1.411,1.411,0,0,1,.032.3,1.451,1.451,0,0,1-2.14,1.276c-.46.3-.944.581-1.449.846a1.45,1.45,0,1,1-2.475,1.069,18.366,18.366,0,0,1-2.671.709v2.828H55.771v-7.218A10.246,10.246,0,0,1,52.584,391Zm-.693,6.82a1.847,1.847,0,1,1,1.848-1.847A1.849,1.849,0,0,1,51.89,397.82Z" transform="translate(-24.969 -328.887)" fill="#ea8807"/>
      <path id="Trazado_728459" data-name="Trazado 728459" d="M45.48,327.93v.856a5.21,5.21,0,0,0-2.67.489V327.9C43.769,327.95,44.657,327.958,45.48,327.93Z" transform="translate(-24.96 -271.838)" fill="#b4e1ef"/>
      <path id="Trazado_728460" data-name="Trazado 728460" d="M128.928,282.48l-.379.625a.487.487,0,0,0-.071.255v9.326a8.06,8.06,0,0,1-4.98-2.168c-.085-.084-.173-.167-.259-.248a.489.489,0,0,0,.065-.239v-4a7.522,7.522,0,0,0,4.531-3.546h1.092Z" transform="translate(-97.677 -230.773)" fill="#b4e1ef"/>
      <path id="Trazado_728461" data-name="Trazado 728461" d="M67.667,386.022a.862.862,0,0,1-1.557.51,1.8,1.8,0,0,0,1.284-1.142A.866.866,0,0,1,67.667,386.022Z" transform="translate(-46.025 -323.815)" fill="#f1f2f2"/>
    </g>
  </g>
</svg>
