<svg xmlns="http://www.w3.org/2000/svg" width="62" height="62" viewBox="0 0 62 62">
  <g id="Grupo_984558" data-name="Grupo 984558" transform="translate(-843 -9486)">
    <g id="Grupo_984090" data-name="Grupo 984090" transform="translate(599 -937)">
      <g id="Rectángulo_340676" data-name="Rectángulo 340676" transform="translate(244 10423)" fill="none" stroke="#39a900" stroke-width="3">
        <rect width="62" height="62" rx="7" stroke="none"/>
        <rect x="1.5" y="1.5" width="59" height="59" rx="5.5" fill="none"/>
      </g>
    </g>
    <g id="_22_Loss_of_sense_of_smell" data-name="22 Loss of sense of smell" transform="translate(850.005 9493)">
      <circle id="Elipse_5925" data-name="Elipse 5925" cx="21.026" cy="21.026" r="21.026" transform="translate(0.759 0.764)" fill="#f0f0f0"/>
      <path id="Trazado_728766" data-name="Trazado 728766" d="M29.044,239.387A21.022,21.022,0,0,1,8.039,219.22c-.011.286-.019.573-.019.859a21.026,21.026,0,1,0,42.053,0c0-.286-.007-.573-.018-.859A21.03,21.03,0,0,1,29.044,239.387Z" transform="translate(-7.259 -198.289)" fill="#e2e2e2"/>
      <circle id="Elipse_5926" data-name="Elipse 5926" cx="8.781" cy="8.781" r="8.781" transform="translate(30.554 30.559)" fill="#ff636e"/>
      <path id="Trazado_728767" data-name="Trazado 728767" d="M328.8,410.925a8.784,8.784,0,0,1-8.74-7.923c-.028.281-.042.567-.042.858a8.784,8.784,0,1,0,17.568,0q0-.435-.042-.859a8.784,8.784,0,0,1-8.744,7.925Z" transform="translate(-289.47 -364.522)" fill="#ea5c6a"/>
      <path id="Trazado_728768" data-name="Trazado 728768" d="M377.11,375.082l1.451-1.452a1.432,1.432,0,1,0-2.025-2.025l-1.454,1.454-1.452-1.451a1.432,1.432,0,1,0-2.025,2.025l1.454,1.449-1.451,1.451a1.432,1.432,0,1,0,2.025,2.025l1.449-1.449,1.451,1.451a1.432,1.432,0,1,0,2.025-2.025Z" transform="translate(-335.75 -335.745)" fill="#fff"/>
      <path id="Trazado_728769" data-name="Trazado 728769" d="M165.246,112s-5.156,5.524-7.634,8.352a58.142,58.142,0,0,0-6.122,7.719c-1.323,2.438.407,5.3,4.541,5.3a7.474,7.474,0,0,0,4.363-1.126c.729.573,1.135,1.126,1.9,1.126a2.965,2.965,0,0,0,2.953-2.791,23.668,23.668,0,0,0,1.943-9.409C167.189,114.639,165.246,112,165.246,112Z" transform="translate(-136.636 -101.306)" fill="#ffc89f"/>
      <path id="Trazado_728770" data-name="Trazado 728770" d="M41.881,30.191A21.785,21.785,0,1,0,30.187,41.886,9.516,9.516,0,1,0,41.881,30.191Zm-20.1,11.944a20.352,20.352,0,1,1,20.35-20.353,20.166,20.166,0,0,1-1.691,8.131A9.515,9.515,0,0,0,29.909,40.445a20.166,20.166,0,0,1-8.128,1.691Zm17.583,5.317a8.081,8.081,0,1,1,8.084-8.083,8.081,8.081,0,0,1-8.084,8.083Z" transform="translate(0)"/>
      <path id="Trazado_728771" data-name="Trazado 728771" d="M373.16,366.069a2.152,2.152,0,0,0-3.675-1.522l-.947.947-.947-.947a2.152,2.152,0,1,0-3.044,3.044l.947.947-.947.947a2.152,2.152,0,1,0,3.044,3.044l.947-.947.947.947a2.153,2.153,0,1,0,3.045-3.044l-.948-.947.947-.947A2.139,2.139,0,0,0,373.16,366.069Zm-1.645.507-1.455,1.453a.717.717,0,0,0,0,1.014l1.455,1.455a.718.718,0,0,1-1.015,1.015l-1.455-1.455a.717.717,0,0,0-1.014,0l-1.455,1.455a.718.718,0,0,1-1.015-1.015l1.455-1.455a.717.717,0,0,0,0-1.014l-1.455-1.455a.718.718,0,0,1,1.015-1.015l1.453,1.457a.717.717,0,0,0,1.014,0l1.455-1.455a.718.718,0,0,1,1.015,1.015Z" transform="translate(-329.174 -329.169)"/>
      <path id="Trazado_728772" data-name="Trazado 728772" d="M157.423,120.286a.718.718,0,0,0-.963,1.066,3.409,3.409,0,0,1,1.075,2.1,2.251,2.251,0,0,1-2.243,2.079c-.307,0-.518-.173-.968-.563a7,7,0,0,0-5.3-1.835.718.718,0,1,0,0,1.432,7.159,7.159,0,0,1,2.894.494,8.482,8.482,0,0,1-2.894.47c-1.848,0-3.281-.625-3.93-1.719a2.518,2.518,0,0,1,.011-2.539,59.39,59.39,0,0,1,6.042-7.6c2.449-2.792,7.584-8.3,7.638-8.353a.718.718,0,1,0-1.05-.979c-.053.055-5.2,5.576-7.664,8.385-3.169,3.612-5.315,6.187-6.225,7.865a3.923,3.923,0,0,0,.017,3.958c.915,1.536,2.8,2.417,5.163,2.417a9.108,9.108,0,0,0,4.307-.964l.056.049a2.8,2.8,0,0,0,1.91.916,3.692,3.692,0,0,0,3.678-3.514A4.819,4.819,0,0,0,157.423,120.286Z" transform="translate(-129.635 -94.167)"/>
      <path id="Trazado_728773" data-name="Trazado 728773" d="M132.207,185.747a.717.717,0,0,0-.07-1.012.937.937,0,0,1,0-1.411,2.37,2.37,0,0,0,0-3.576.717.717,0,1,0-.942,1.082.936.936,0,0,1,0,1.412,2.372,2.372,0,0,0,0,3.576.718.718,0,0,0,1.012-.071Z" transform="translate(-117.938 -162.426)"/>
      <path id="Trazado_728774" data-name="Trazado 728774" d="M99.238,142.5a2.372,2.372,0,0,0,0-3.576.718.718,0,1,0-.943,1.082.938.938,0,0,1,0,1.412,2.372,2.372,0,0,0,0,3.576.718.718,0,0,0,.942-1.083.935.935,0,0,1,0-1.411Z" transform="translate(-88.179 -125.501)"/>
      <path id="Trazado_728775" data-name="Trazado 728775" d="M160.585,115.3a2.372,2.372,0,0,0,0,3.576.718.718,0,1,0,.943-1.082.936.936,0,0,1,0-1.412,2.372,2.372,0,0,0,0-3.576.718.718,0,0,0-.943,1.083.935.935,0,0,1,0,1.411Z" transform="translate(-144.522 -101.876)"/>
    </g>
  </g>
</svg>
