<svg xmlns="http://www.w3.org/2000/svg" xmlns:xlink="http://www.w3.org/1999/xlink" width="62" height="62" viewBox="0 0 62 62">
  <defs>
    <clipPath id="clip-path">
      <path id="path8736" d="M0-682.665H52.665V-630H0Z" transform="translate(0 682.665)"/>
    </clipPath>
  </defs>
  <g id="Grupo_984130" data-name="Grupo 984130" transform="translate(-843 -2912)">
    <g id="Grupo_984090" data-name="Grupo 984090" transform="translate(599 -7511)">
      <g id="Rectángulo_340676" data-name="Rectángulo 340676" transform="translate(244 10423)" fill="none" stroke="#39a900" stroke-width="3">
        <rect width="62" height="62" rx="7" stroke="none"/>
        <rect x="1.5" y="1.5" width="59" height="59" rx="5.5" fill="none"/>
      </g>
    </g>
    <g id="g8724" transform="translate(848 3599.665)">
      <path id="path8726" d="M141.134-544.479H116.4v-44.68h24.73Z" transform="translate(-107.424 -86.293)" fill="#97e4f9"/>
      <path id="path8728" d="M408.676-544.479h2.182v-44.68h-2.182Z" transform="translate(-377.149 -86.293)" fill="#0acefa"/>
      <path id="path8730" d="M156.81-548.752h18.5v18.7h-18.5Z" transform="translate(-144.713 -123.582)" fill="#b9ea6a"/>
      <g id="g8732" transform="translate(0 -682.665)">
        <g id="g8734" transform="translate(0 0)" clip-path="url(#clip-path)">
          <g id="g8740" transform="translate(12.097 10.331)">
            <path id="path8742" d="M-197.633,0V15.69a1.039,1.039,0,0,1-1.039,1.039h-15.482V18.7h18.5V0Z" transform="translate(214.154)" fill="#95d528"/>
          </g>
          <g id="g8744" transform="translate(12.097 33.71)">
            <path id="path8746" d="M-59.663-29.831a2.494,2.494,0,0,1-2.494,2.494,2.494,2.494,0,0,1-2.494-2.494,2.494,2.494,0,0,1,2.494-2.494,2.494,2.494,0,0,1,2.494,2.494" transform="translate(64.651 32.325)" fill="#fc8086"/>
          </g>
          <g id="g8748" transform="translate(25.605 33.71)">
            <path id="path8750" d="M-59.663-29.831a2.494,2.494,0,0,1-2.494,2.494,2.494,2.494,0,0,1-2.494-2.494,2.494,2.494,0,0,1,2.494-2.494,2.494,2.494,0,0,1,2.494,2.494" transform="translate(64.651 32.325)" fill="#fc8086"/>
          </g>
          <path id="path8752" d="M491.683-489.227h-6.234v-19.119h6.234Z" transform="translate(-447.998 521.794)" fill="#cbcbcb"/>
          <path id="path8754" d="M544.711-489.227h1.663v-19.119h-1.663Z" transform="translate(-502.688 521.794)" fill="#ababab"/>
          <path id="path8756" d="M508.769-245.558h-3.117v-14.963h3.117Z" transform="translate(-466.643 293.087)" fill="#786e79"/>
          <path id="path8758" d="M503.075-560.551h-4.156v-4.364h4.156Z" transform="translate(-460.429 573.999)" fill="#554e57"/>
          <path id="path8760" d="M505.652-258.339h3.117v-2.182h-3.117Z" transform="translate(-466.643 293.087)" fill="#695e66"/>
          <g id="g8762" transform="translate(8.209 6.442)">
            <path id="path8764" d="M15.5-372.627H-9.228A.771.771,0,0,1-10-373.4v-9.441a.771.771,0,0,1,.771-.771.771.771,0,0,1,.771.771v8.67H14.73v-43.137H-8.457v30.77a.771.771,0,0,1-.771.771.771.771,0,0,1-.771-.771v-31.541a.771.771,0,0,1,.771-.771H15.5a.771.771,0,0,1,.771.771v44.68A.771.771,0,0,1,15.5-372.627Z" transform="translate(10 418.85)"/>
          </g>
          <g id="g8766" transform="translate(11.326 9.559)">
            <path id="path8768" d="M9.267-108.28h-18.5a.771.771,0,0,1-.771-.771v-5.912a.771.771,0,0,1,.771-.771.771.771,0,0,1,.771.771v5.141H8.5v-17.16H-8.457v8.372a.771.771,0,0,1-.771.771.771.771,0,0,1-.771-.771v-9.144a.771.771,0,0,1,.771-.771h18.5a.771.771,0,0,1,.771.771v18.7A.771.771,0,0,1,9.267-108.28Z" transform="translate(10 128.526)"/>
          </g>
          <g id="g8770" transform="translate(11.326 32.938)">
            <path id="path8772" d="M-71.385-35.795A3.269,3.269,0,0,1-74.65-39.06a3.269,3.269,0,0,1,3.265-3.265A3.269,3.269,0,0,1-68.12-39.06,3.269,3.269,0,0,1-71.385-35.795Zm0-4.987a1.724,1.724,0,0,0-1.722,1.722,1.724,1.724,0,0,0,1.722,1.722,1.724,1.724,0,0,0,1.722-1.722A1.724,1.724,0,0,0-71.385-40.782Z" transform="translate(74.65 42.325)"/>
          </g>
          <g id="g8774" transform="translate(24.834 32.938)">
            <path id="path8776" d="M-71.385-35.795A3.269,3.269,0,0,1-74.65-39.06a3.269,3.269,0,0,1,3.265-3.265A3.269,3.269,0,0,1-68.12-39.06,3.269,3.269,0,0,1-71.385-35.795Zm0-4.987a1.724,1.724,0,0,0-1.722,1.722,1.724,1.724,0,0,0,1.722,1.722,1.724,1.724,0,0,0,1.722-1.722A1.724,1.724,0,0,0-71.385-40.782Z" transform="translate(74.65 42.325)"/>
          </g>
          <g id="g8778" transform="translate(18.495 32.938)">
            <path id="path8780" d="M-5.072-8.457H-9.229A.771.771,0,0,1-10-9.229.771.771,0,0,1-9.229-10h4.156a.771.771,0,0,1,.771.771A.771.771,0,0,1-5.072-8.457Z" transform="translate(10 10)"/>
          </g>
          <g id="g8782" transform="translate(18.495 37.926)">
            <path id="path8784" d="M-5.072-8.457H-9.229A.771.771,0,0,1-10-9.229.771.771,0,0,1-9.229-10h4.156a.771.771,0,0,1,.771.771A.771.771,0,0,1-5.072-8.457Z" transform="translate(10 10)"/>
          </g>
          <g id="g8786" transform="translate(15.482 16.833)">
            <path id="path8788" d="M-9.229-45.746A.771.771,0,0,1-10-46.518v-3.117a.771.771,0,0,1,.771-.771.771.771,0,0,1,.771.771v3.117A.771.771,0,0,1-9.229-45.746Z" transform="translate(10 50.407)"/>
          </g>
          <path id="path8790" d="M205.613-512.646h-4.156a.771.771,0,0,1-.771-.771v-4.156a.771.771,0,0,1,.771-.771h4.156a.771.771,0,0,1,.771.771v4.156A.771.771,0,0,1,205.613-512.646Zm-3.385-1.543h2.613V-516.8h-2.613Z" transform="translate(-185.203 531.022)"/>
          <g id="g8792" transform="translate(22.548 17.456)">
            <path id="path8794" d="M-46.518-38.289a.771.771,0,0,1-.771-.771v-1.722h-1.574v1.722a.771.771,0,0,1-.771.771.771.771,0,0,1-.771-.771v-2.494a.771.771,0,0,1,.771-.771h3.117a.771.771,0,0,1,.771.771v2.494A.771.771,0,0,1-46.518-38.289Z" transform="translate(50.407 42.325)"/>
          </g>
          <g id="g8796" transform="translate(22.548 14.755)">
            <path id="path8798" d="M-9.229-5.756A.771.771,0,0,1-10-6.527v-2.7A.771.771,0,0,1-9.229-10a.771.771,0,0,1,.771.771v2.7A.771.771,0,0,1-9.229-5.756Z" transform="translate(10 10)"/>
          </g>
          <g id="g8800" transform="translate(15.482 22.548)">
            <path id="path8802" d="M-2.163-8.457H-9.229A.771.771,0,0,1-10-9.229.771.771,0,0,1-9.229-10h7.066a.771.771,0,0,1,.771.771A.771.771,0,0,1-2.163-8.457Z" transform="translate(10 10)"/>
          </g>
          <g id="g8804" transform="translate(15.482 25.145)">
            <path id="path8806" d="M-5.8-8.457H-9.229A.771.771,0,0,1-10-9.229.771.771,0,0,1-9.229-10H-5.8a.771.771,0,0,1,.771.771A.771.771,0,0,1-5.8-8.457Z" transform="translate(10 10)"/>
          </g>
          <path id="path8808" d="M493.846-569.008H489.69a.771.771,0,0,1-.771-.771v-4.364a.771.771,0,0,1,.771-.771h4.156a.771.771,0,0,1,.771.771v4.364A.771.771,0,0,1,493.846-569.008Zm-3.385-1.543h2.613v-2.821h-2.613Z" transform="translate(-451.201 583.227)"/>
          <g id="g8810" transform="translate(36.679 12.677)">
            <path id="path8812" d="M-83.807-89.874h-6.234a.771.771,0,0,1-.771-.771v-19.119a.771.771,0,0,1,.771-.771h6.234a.771.771,0,0,1,.771.771v4.119a.771.771,0,0,1-.771.771.771.771,0,0,1-.771-.771v-3.348H-89.27v17.576h4.692v-10.591a.771.771,0,0,1,.771-.771.771.771,0,0,1,.771.771v11.363A.771.771,0,0,1-83.807-89.874Z" transform="translate(90.813 110.536)"/>
          </g>
          <path id="path8814" d="M499.541-254.015h-3.117a.771.771,0,0,1-.771-.771v-14.963a.771.771,0,0,1,.771-.771h3.117a.771.771,0,0,1,.771.771v14.963A.771.771,0,0,1,499.541-254.015Zm-2.346-1.543h1.574v-13.42H497.2Z" transform="translate(-457.414 302.316)"/>
          <g id="g8816" transform="translate(27.847 0)">
            <path id="path8818" d="M-152.171-107.895a.771.771,0,0,1-.771-.771v-4.156a3.389,3.389,0,0,0-3.385-3.385h-3.637a3.389,3.389,0,0,0-3.385,3.385v2.286a.771.771,0,0,1-.771.771.771.771,0,0,1-.771-.771v-2.286a4.933,4.933,0,0,1,4.928-4.928h3.637a4.933,4.933,0,0,1,4.928,4.928v4.156A.771.771,0,0,1-152.171-107.895Z" transform="translate(164.892 117.75)"/>
          </g>
          <g id="g8820" transform="translate(39.796 46.758)">
            <path id="path8822" d="M-9.229-4.093A.771.771,0,0,1-10-4.864V-9.229A.771.771,0,0,1-9.229-10a.771.771,0,0,1,.771.771v4.364A.771.771,0,0,1-9.229-4.093Z" transform="translate(10 10)"/>
          </g>
        </g>
      </g>
    </g>
  </g>
</svg>
