<svg xmlns="http://www.w3.org/2000/svg" width="62" height="62" viewBox="0 0 62 62">
  <g id="Grupo_984246" data-name="Grupo 984246" transform="translate(-1070 -5690)">
    <g id="Grupo_984029" data-name="Grupo 984029" transform="translate(826 -4733)">
      <g id="Rectángulo_340676" data-name="Rectángulo 340676" transform="translate(244 10423)" fill="none" stroke="#39a900" stroke-width="3">
        <rect width="62" height="62" rx="7" stroke="none"/>
        <rect x="1.5" y="1.5" width="59" height="59" rx="5.5" fill="none"/>
      </g>
    </g>
    <g id="Page-1" transform="translate(1078 5698)">
      <g id="_013---Grass" data-name="013---Grass" transform="translate(0 0)">
        <path id="Shape" d="M52.035,18.891a33.813,33.813,0,0,0-5.761,13.555,32.273,32.273,0,0,0-.49,6.522c-.226.015-.467.053-.723.09,0,0-1.34-3.344-5.912-1.838a24.782,24.782,0,0,1,11.8-19.2c.663-.422,1.514.264,1.084.874Z" transform="translate(-9.667 -4.417)" fill="#60a917"/>
        <path id="Shape-2" data-name="Shape" d="M52.385,18.017c-.355.226-.73.477-1.12.753a.581.581,0,0,1-.055.122,33.813,33.813,0,0,0-5.761,13.555,32.307,32.307,0,0,0-.49,4.942A3.824,3.824,0,0,1,46.5,39.058c.256-.038.5-.075.723-.09a32.273,32.273,0,0,1,.49-6.522A33.813,33.813,0,0,1,53.47,18.891c.429-.61-.422-1.3-1.084-.874Z" transform="translate(-11.102 -4.417)" fill="#549414"/>
        <path id="Shape-3" data-name="Shape" d="M48.181,5.546c-2.312,4.413-8.6,16.688-9.308,20.928a25.585,25.585,0,0,0-1.785,7.471c-.271.09-.565.2-.866.331a5.8,5.8,0,0,0-3.532-1.988v-.008A77.159,77.159,0,0,0,30.8,23.56a42.27,42.27,0,0,1,4.021-7.734v-.008A31.136,31.136,0,0,1,47.127,4.7c.64-.3,1.348.271,1.054.843Z" transform="translate(-7.605 -1.141)" fill="#a4c400"/>
        <path id="Shape-4" data-name="Shape" d="M48.48,4.7c-.344.163-.727.357-1.143.583a.579.579,0,0,1-.062.261c-2.312,4.413-8.6,16.688-9.308,20.928a25.529,25.529,0,0,0-1.686,6.689,4.312,4.312,0,0,1,1.295,1.113c.3-.128.595-.241.866-.331a25.585,25.585,0,0,1,1.785-7.471c.708-4.24,7-16.515,9.308-20.928.294-.572-.414-1.145-1.054-.843Z" transform="translate(-8.959 -1.141)" fill="#90ac00"/>
        <path id="Shape-5" data-name="Shape" d="M28.59,31.474a11.853,11.853,0,0,0-4.631-.068,33.611,33.611,0,0,0-4.443-11.063A127.428,127.428,0,0,0,14.236,2.21c-.271-.723.851-1.19,1.34-.557,2.892,3.713,7.056,9.511,8.788,14.158A67.852,67.852,0,0,1,26.7,22.754,77.158,77.158,0,0,1,28.59,31.474Z" transform="translate(-3.505 -0.335)" fill="#60a917"/>
        <path id="Shape-6" data-name="Shape" d="M14.688,3.45c2.711,3.627,5.945,8.408,7.418,12.36a67.852,67.852,0,0,1,2.335,6.943,77.273,77.273,0,0,1,1.849,8.462,11.237,11.237,0,0,1,2.3.258,77.159,77.159,0,0,0-1.89-8.721,67.852,67.852,0,0,0-2.335-6.943c-1.732-4.646-5.9-10.445-8.788-14.158-.49-.633-1.612-.166-1.34.557C14.381,2.6,14.533,3.017,14.688,3.45Z" transform="translate(-3.505 -0.335)" fill="#549414"/>
        <path id="Shape-7" data-name="Shape" d="M38.424,1.859a124.264,124.264,0,0,0-4.368,13.066v.008a42.27,42.27,0,0,0-4.021,7.734A67.852,67.852,0,0,0,27.7,15.723,26.213,26.213,0,0,1,37.2,1.174c.572-.444,1.461.045,1.22.685Z" transform="translate(-6.84 -0.248)" fill="#008a00"/>
        <path id="Shape-8" data-name="Shape" d="M37.67,1.174c-.348.268-.728.577-1.13.925a121.623,121.623,0,0,0-4.277,12.826v.008a40.976,40.976,0,0,0-2.676,4.724c.336,1.027.643,2.037.914,3.012a42.269,42.269,0,0,1,4.021-7.736v-.008A124.264,124.264,0,0,1,38.89,1.859c.241-.64-.648-1.13-1.22-.685Z" transform="translate(-7.305 -0.248)" fill="#007900"/>
        <path id="Shape-9" data-name="Shape" d="M23.382,35.494A5.979,5.979,0,0,0,19.5,37.557a8.319,8.319,0,0,0-2.764-.715,26.01,26.01,0,0,0-1.318-3.991,33.538,33.538,0,0,0-3.487-14.022c-.324-.633.572-1.212,1.167-.761a24.781,24.781,0,0,1,5.844,6.364A33.611,33.611,0,0,1,23.382,35.494Z" transform="translate(-2.928 -4.422)" fill="#a4c400"/>
        <path id="Shape-10" data-name="Shape" d="M18.939,24.431a24.781,24.781,0,0,0-5.844-6.364c-.595-.452-1.491.128-1.167.761.035.071.075.151.11.226a25.161,25.161,0,0,1,4.642,5.377,33.611,33.611,0,0,1,4.443,11.063A6.953,6.953,0,0,0,17.768,37a9.633,9.633,0,0,1,1.728.557,5.979,5.979,0,0,1,3.886-2.063A33.611,33.611,0,0,0,18.939,24.431Z" transform="translate(-2.928 -4.422)" fill="#90ac00"/>
        <path id="Shape-11" data-name="Shape" d="M14.476,38.045a3.965,3.965,0,0,0-4.014,2.222A8.2,8.2,0,0,0,7.5,40.229c.015-.467.015-.934.008-1.4-.188-6.16-2.967-12.019-4.7-15.107-.346-.61.5-1.22,1.13-.806a24.593,24.593,0,0,1,9.225,11.138A26.01,26.01,0,0,1,14.476,38.045Z" transform="translate(-0.673 -5.625)" fill="#60a917"/>
        <path id="Shape-12" data-name="Shape" d="M13.16,34.054A24.593,24.593,0,0,0,3.934,22.915c-.619-.41-1.456.185-1.136.788a24.626,24.626,0,0,1,8.1,10.35,26.01,26.01,0,0,1,1.318,3.991,3.991,3.991,0,0,0-3.951,2.089,9.389,9.389,0,0,1,2.2.133,3.965,3.965,0,0,1,4.014-2.222A26.01,26.01,0,0,0,13.16,34.054Z" transform="translate(-0.674 -5.625)" fill="#549414"/>
        <path id="Shape-13" data-name="Shape" d="M44.679,45.338a3.748,3.748,0,0,1-6.07,2.96A6.018,6.018,0,0,1,27.2,50.2a4.9,4.9,0,0,1-8.721,0A6.018,6.018,0,0,1,7.07,48.3a3.759,3.759,0,1,1-2.3-6.725,3.667,3.667,0,0,1,2.312.821c.008.467.008.934-.008,1.4a8.2,8.2,0,0,1,2.967.038,3.965,3.965,0,0,1,4.014-2.222,8.319,8.319,0,0,1,2.764.715A5.979,5.979,0,0,1,20.7,40.262a11.853,11.853,0,0,1,4.631.068v.008a5.8,5.8,0,0,1,3.532,1.988c.3-.128.595-.241.866-.331,4.571-1.506,5.912,1.838,5.912,1.838.256-.038.5-.075.723-.09a32.273,32.273,0,0,1,.49-6.522,4.522,4.522,0,0,1,3.306,4.353c0,.03-.008.06-.008.083a4.2,4.2,0,0,1,.761-.083,3.765,3.765,0,0,1,3.765,3.765Z" transform="translate(-0.247 -9.19)" fill="sienna"/>
        <path id="Shape-14" data-name="Shape" d="M46.36,51.93a6.025,6.025,0,0,1-4.82,5.211,5.943,5.943,0,0,0,6.928-4.423A3.751,3.751,0,0,1,46.36,51.93Z" transform="translate(-10.257 -12.823)" fill="#783e22"/>
        <path id="Shape-15" data-name="Shape" d="M52.605,41.573a4.2,4.2,0,0,0-.761.083c0-.023.008-.053.008-.083a4.522,4.522,0,0,0-3.306-4.353c-.075.413-.136.837-.194,1.264a4.489,4.489,0,0,1,1.241,3.089c0,.03-.008.06-.008.083a4.2,4.2,0,0,1,.761-.083,3.755,3.755,0,0,1,1.121,7.342,3.637,3.637,0,0,0,1.138.189,3.765,3.765,0,1,0,0-7.531Z" transform="translate(-11.939 -9.19)" fill="#783e22"/>
        <g id="Grupo_984245" data-name="Grupo 984245">
          <path id="Shape-16" data-name="Shape" d="M40.612,31.629a5.287,5.287,0,0,0-3.132-4.085,33.264,33.264,0,0,1,5.5-12.634,1.324,1.324,0,0,0-.131-1.711,1.569,1.569,0,0,0-1.973-.232A27.522,27.522,0,0,0,34.5,18.546C36.783,13.357,39.958,7.2,41.239,4.755A1.325,1.325,0,0,0,41.013,3.2,1.575,1.575,0,0,0,39.2,2.887a30.585,30.585,0,0,0-10.153,8.089c1-3.1,2.348-6.749,3.243-9.1A1.327,1.327,0,0,0,31.815.311,1.59,1.59,0,0,0,29.9.329a27.283,27.283,0,0,0-9.183,12.9A73.184,73.184,0,0,0,12.668.857a1.556,1.556,0,0,0-2-.385,1.343,1.343,0,0,0-.637,1.665,131.142,131.142,0,0,1,4.49,14.635,24.76,24.76,0,0,0-3.893-3.725,1.57,1.57,0,0,0-1.944.053,1.328,1.328,0,0,0-.351,1.648A32.054,32.054,0,0,1,11.4,24.676a25.1,25.1,0,0,0-7.726-8.014,1.563,1.563,0,0,0-1.937.16,1.322,1.322,0,0,0-.265,1.642,35.693,35.693,0,0,1,4.51,13.415,4.391,4.391,0,0,0-1.466-.25,4.518,4.518,0,1,0,0,9.037,4.407,4.407,0,0,0,1.776-.373,6.769,6.769,0,0,0,11.969,2.115,5.642,5.642,0,0,0,8.66,0,6.769,6.769,0,0,0,11.969-2.115,4.407,4.407,0,0,0,1.773.373,4.519,4.519,0,1,0-.054-9.037Zm.941-17.307a34.156,34.156,0,0,0-6.188,18.924,4.582,4.582,0,0,0-1.686-1.209,5.677,5.677,0,0,0-3.314-.238,24.732,24.732,0,0,1,1.6-6.18,24.678,24.678,0,0,1,9.59-11.3ZM39.793,4.268C37.167,9.292,31.3,20.835,30.54,25.132A26.373,26.373,0,0,0,28.8,32.211a7.18,7.18,0,0,0-3.052-1.668,77.751,77.751,0,0,0-1.758-8.063,41.645,41.645,0,0,1,3.855-7.38c.013-.02.025-.039.036-.059A30.394,30.394,0,0,1,39.793,4.268ZM30.807,1.533a124.056,124.056,0,0,0-4.293,12.856A42.262,42.262,0,0,0,23.329,20.2c-.509-1.642-1.07-3.238-1.675-4.77a25.529,25.529,0,0,1,9.153-13.9ZM20.161,15.755a67.024,67.024,0,0,1,2.308,6.866,77.706,77.706,0,0,1,1.7,7.606,11.851,11.851,0,0,0-3.132,0,34.206,34.206,0,0,0-4.314-10.5,127.714,127.714,0,0,0-5.2-17.9c3.03,3.9,6.975,9.457,8.639,13.921ZM9.79,14.309a24.081,24.081,0,0,1,5.585,6.109,32.6,32.6,0,0,1,4.176,10.1,7.242,7.242,0,0,0-3.2,1.725,9.112,9.112,0,0,0-1.953-.513,26.943,26.943,0,0,0-1.17-3.441A34.3,34.3,0,0,0,9.79,14.309Zm3.042,17.4a4.977,4.977,0,0,0-1.328.334A4.648,4.648,0,0,0,9.38,33.822a9.639,9.639,0,0,0-1.8-.064C7.55,27.4,4.744,21.275,2.922,17.969A24.291,24.291,0,0,1,12.835,31.7ZM40.666,39.16a2.987,2.987,0,0,1-1.843-.648.753.753,0,0,0-1.209.508,5.265,5.265,0,0,1-9.982,1.657.753.753,0,0,0-.669-.428.7.7,0,0,0-.678.409,4.142,4.142,0,0,1-7.38,0,.726.726,0,0,0-.678-.409.753.753,0,0,0-.669.428,5.265,5.265,0,0,1-9.982-1.657.753.753,0,0,0-1.209-.508,3.006,3.006,0,1,1-1.849-5.377,2.894,2.894,0,0,1,1.557.464v.419a3.35,3.35,0,0,0-2.27,1.891.744.744,0,0,0,.46.935.764.764,0,0,0,.962-.439c.028-.068.7-1.644,4.443-1.021a.753.753,0,0,0,.824-.462,3.088,3.088,0,0,1,1.593-1.493,5.426,5.426,0,0,1,4.189.4.762.762,0,0,0,.919-.267c.05-.079,1.4-1.931,5.4-1.931s5.347,1.852,5.4,1.924a.753.753,0,0,0,.923.274,5.446,5.446,0,0,1,4.163-.409A3.06,3.06,0,0,1,34.7,34.925a.753.753,0,0,0,.824.462c3.7-.618,4.4.921,4.439,1.018a.753.753,0,0,0,1.423-.493c-.035-.1-.812-2.253-4.51-2.164a31.047,31.047,0,0,1,.337-4.65,3.742,3.742,0,0,1,1.952,3.234c0,.032-.01.1-.01.133a.753.753,0,0,0,.271.578.761.761,0,0,0,.617.163,3.478,3.478,0,0,1,.628-.071,3.012,3.012,0,1,1,0,6.025Z" transform="translate(0 0)"/>
          <path id="Shape-17" data-name="Shape" d="M35.765,47a.753.753,0,0,0-.753.753.753.753,0,0,1-1.506,0,.753.753,0,0,0-1.506,0,2.259,2.259,0,0,0,4.518,0A.753.753,0,0,0,35.765,47Z" transform="translate(-7.901 -11.605)"/>
          <path id="Shape-18" data-name="Shape" d="M19.765,50a.753.753,0,0,0-.753.753.753.753,0,0,1-1.506,0,.753.753,0,0,0-1.506,0,2.259,2.259,0,1,0,4.518,0A.753.753,0,0,0,19.765,50Z" transform="translate(-3.951 -12.346)"/>
          <circle id="Oval" cx="0.753" cy="0.753" r="0.753" transform="translate(17.321 34.642)"/>
          <circle id="Oval-2" data-name="Oval" cx="0.753" cy="0.753" r="0.753" transform="translate(2.259 28.617)"/>
          <circle id="Oval-3" data-name="Oval" cx="0.753" cy="0.753" r="0.753" transform="translate(21.086 38.407)"/>
          <circle id="Oval-4" data-name="Oval" cx="0.753" cy="0.753" r="0.753" transform="translate(33.889 36.901)"/>
          <circle id="Oval-5" data-name="Oval" cx="0.753" cy="0.753" r="0.753" transform="translate(42.172 28.617)"/>
          <circle id="Oval-6" data-name="Oval" cx="0.753" cy="0.753" r="0.753" transform="translate(39.913 25.605)"/>
          <circle id="Oval-7" data-name="Oval" cx="0.753" cy="0.753" r="0.753" transform="translate(30.876 39.913)"/>
        </g>
      </g>
    </g>
  </g>
</svg>
