<svg xmlns="http://www.w3.org/2000/svg" width="62" height="62" viewBox="0 0 62 62">
  <g id="Grupo_984336" data-name="Grupo 984336" transform="translate(-232 -7522)">
    <g id="Grupo_984027" data-name="Grupo 984027" transform="translate(-12 -2901)">
      <g id="Rectángulo_340676" data-name="Rectángulo 340676" transform="translate(244 10423)" fill="none" stroke="#39a900" stroke-width="3">
        <rect width="62" height="62" rx="7" stroke="none"/>
        <rect x="1.5" y="1.5" width="59" height="59" rx="5.5" fill="none"/>
      </g>
    </g>
    <g id="oxygen" transform="translate(244 7534)">
      <circle id="Elipse_5916" data-name="Elipse 5916" cx="3.692" cy="3.692" r="3.692" transform="translate(31.044 25.162)" fill="#8adaf9"/>
      <path id="Trazado_728548" data-name="Trazado 728548" d="M33.28,112.648a.9.9,0,0,1-.545-.744,7.807,7.807,0,0,0-7.748-7.077h0a7.809,7.809,0,0,0-7.238,4.936.894.894,0,0,1-.951.565,5.17,5.17,0,0,0-.738-.053h0a5.253,5.253,0,0,0-5.213,4.748,1.124,1.124,0,0,1-.61.894A5.027,5.027,0,0,0,7.5,120.379h0a5.028,5.028,0,0,0,5.013,5.013H30.7a6.655,6.655,0,0,0,6.635-6.635h0A6.658,6.658,0,0,0,33.28,112.648Z" transform="translate(-6.929 -96.842)" fill="#8adaf9"/>
      <path id="Trazado_728549" data-name="Trazado 728549" d="M17.752,120.378h0a5.027,5.027,0,0,1,2.737-4.463,1.124,1.124,0,0,0,.61-.894,5.253,5.253,0,0,1,5.213-4.748h0a5.182,5.182,0,0,1,.738.053.894.894,0,0,0,.951-.565,7.845,7.845,0,0,1,2.112-3,7.742,7.742,0,0,0-5.127-1.941h0a7.809,7.809,0,0,0-7.238,4.936.894.894,0,0,1-.951.565,5.17,5.17,0,0,0-.738-.053h0a5.253,5.253,0,0,0-5.213,4.748,1.124,1.124,0,0,1-.61.894A5.027,5.027,0,0,0,7.5,120.378h0a5.028,5.028,0,0,0,5.013,5.013H22.765A5.028,5.028,0,0,1,17.752,120.378Z" transform="translate(-6.929 -96.841)" fill="#5ccbf7"/>
      <path id="Trazado_728550" data-name="Trazado 728550" d="M236.992,16.822a4.751,4.751,0,0,0-4.251-2.742.811.811,0,0,1-.77-.6,8.045,8.045,0,1,0-3.415,8.826.8.8,0,0,1,.962.076,4.754,4.754,0,0,0,7.474-5.556Z" transform="translate(-199.689 -6.929)" fill="#e6f8fc"/>
      <g id="Grupo_984328" data-name="Grupo 984328" transform="translate(16.464 0.571)">
        <path id="Trazado_728551" data-name="Trazado 728551" d="M223.426,15.613a8.072,8.072,0,0,1,4.412-7.242,8.043,8.043,0,1,0-.005,14.348A8.043,8.043,0,0,1,223.426,15.613Z" transform="translate(-216.153 -7.5)" fill="#b8e9fa"/>
      </g>
      <circle id="Elipse_5917" data-name="Elipse 5917" cx="3.977" cy="3.977" r="3.977" transform="translate(4.786 0.571)" fill="#b8e9fa"/>
      <path id="Trazado_728552" data-name="Trazado 728552" d="M178.981,306.005a.68.68,0,0,1-.413-.563,5.911,5.911,0,0,0-5.866-5.358h0a5.912,5.912,0,0,0-5.48,3.737.677.677,0,0,1-.72.428,3.916,3.916,0,0,0-.558-.04h0A3.977,3.977,0,0,0,162,307.8a.851.851,0,0,1-.462.677,3.806,3.806,0,0,0-2.073,3.379h0a3.807,3.807,0,0,0,3.8,3.8h13.769a5.039,5.039,0,0,0,5.024-5.024h0A5.041,5.041,0,0,0,178.981,306.005Z" transform="translate(-147.317 -277.227)" fill="#e6f8fc"/>
      <path id="Trazado_728553" data-name="Trazado 728553" d="M166.428,311.86h0a3.806,3.806,0,0,1,2.073-3.379.851.851,0,0,0,.462-.677,3.977,3.977,0,0,1,3.946-3.595h0a3.918,3.918,0,0,1,.558.04.677.677,0,0,0,.72-.428,5.946,5.946,0,0,1,2-2.587,5.848,5.848,0,0,0-3.483-1.149h0a5.912,5.912,0,0,0-5.48,3.737.677.677,0,0,1-.72.428,3.912,3.912,0,0,0-.558-.04h0A3.977,3.977,0,0,0,162,307.8a.851.851,0,0,1-.462.677,3.806,3.806,0,0,0-2.073,3.379h0a3.807,3.807,0,0,0,3.8,3.8h6.966A3.807,3.807,0,0,1,166.428,311.86Z" transform="translate(-147.316 -277.227)" fill="#b8e9fa"/>
      <circle id="Elipse_5918" data-name="Elipse 5918" cx="3.977" cy="3.977" r="3.977" transform="translate(0.571 27.405)" fill="#e6f8fc"/>
      <g id="Grupo_984333" data-name="Grupo 984333" transform="translate(0 0)">
        <path id="Trazado_728554" data-name="Trazado 728554" d="M406.453,331.36a.571.571,0,1,1,0-1.143,3.12,3.12,0,1,0-2.972-4.074.571.571,0,1,1-1.088-.349,4.263,4.263,0,1,1,4.06,5.565Z" transform="translate(-371.717 -298.244)"/>
        <path id="Trazado_728555" data-name="Trazado 728555" d="M353.025,215.536a.572.572,0,0,1-.516-.816,5.974,5.974,0,0,0,.576-2.572,6.035,6.035,0,0,0-2.911-5.172.571.571,0,0,1,.6-.974,7.186,7.186,0,0,1,2.77,9.206A.571.571,0,0,1,353.025,215.536Z" transform="translate(-323.25 -190.233)"/>
        <path id="Línea_1625" data-name="Línea 1625" d="M.954-6.357H-6.929A.571.571,0,0,1-7.5-6.929.571.571,0,0,1-6.929-7.5H.954a.571.571,0,0,1,.571.571A.571.571,0,0,1,.954-6.357Z" transform="translate(14.369 35.479)"/>
        <path id="Trazado_728556" data-name="Trazado 728556" d="M2.838,120.43a.569.569,0,0,1-.314-.094,5.576,5.576,0,0,1,.523-9.637.552.552,0,0,0,.3-.439,5.852,5.852,0,0,1,5.781-5.266,5.764,5.764,0,0,1,.819.059.325.325,0,0,0,.338-.21,8.37,8.37,0,0,1,5.969-5.1.571.571,0,0,1,.247,1.115,7.228,7.228,0,0,0-5.154,4.406,1.459,1.459,0,0,1-1.563.92,4.616,4.616,0,0,0-.656-.047,4.7,4.7,0,0,0-4.644,4.23,1.689,1.689,0,0,1-.918,1.349,4.433,4.433,0,0,0-.417,7.666.571.571,0,0,1-.315,1.048Z" transform="translate(0 -92.133)"/>
        <path id="Trazado_728557" data-name="Trazado 728557" d="M217.268,17.229a8.562,8.562,0,0,1-3.337-.67.571.571,0,1,1,.443-1.053,7.484,7.484,0,0,0,6.944-.611,1.37,1.37,0,0,1,1.653.129,4.182,4.182,0,1,0,2.835-7.3,1.384,1.384,0,0,1-1.315-1.029,7.473,7.473,0,1,0-11.955,7.7.571.571,0,1,1-.724.884A8.615,8.615,0,1,1,225.6,6.4a.241.241,0,0,0,.225.179,5.325,5.325,0,0,1,2.767,9.835,5.359,5.359,0,0,1-6.377-.54.228.228,0,0,0-.271-.022A8.582,8.582,0,0,1,217.268,17.229Z" transform="translate(-192.76 0)"/>
        <path id="Elipse_5919" data-name="Elipse 5919" d="M-2.951-7.5A4.554,4.554,0,0,1,1.6-2.951,4.554,4.554,0,0,1-2.951,1.6,4.554,4.554,0,0,1-7.5-2.951,4.554,4.554,0,0,1-2.951-7.5Zm0,7.955A3.41,3.41,0,0,0,.455-2.951,3.41,3.41,0,0,0-2.951-6.357,3.41,3.41,0,0,0-6.357-2.951,3.41,3.41,0,0,0-2.951.455Z" transform="translate(11.715 7.5)"/>
        <path id="Trazado_728558" data-name="Trazado 728558" d="M165.773,292.584a6.51,6.51,0,0,1,6.435,5.878.109.109,0,0,0,.068.09A5.593,5.593,0,0,1,170.1,309.3H156.33a4.365,4.365,0,0,1-1.984-8.254.28.28,0,0,0,.154-.222,4.571,4.571,0,0,1,4.515-4.113,4.49,4.49,0,0,1,.64.046.111.111,0,0,0,.107-.073A6.522,6.522,0,0,1,165.773,292.584Zm4.326,15.57a4.45,4.45,0,0,0,1.729-8.552,1.25,1.25,0,0,1-.758-1.037,5.317,5.317,0,0,0-10.246-1.462,1.254,1.254,0,0,1-1.332.783,3.347,3.347,0,0,0-.477-.034,3.419,3.419,0,0,0-3.378,3.076,1.417,1.417,0,0,1-.77,1.132,3.222,3.222,0,0,0,1.462,6.095Z" transform="translate(-140.388 -270.298)"/>
        <path id="Trazado_728559" data-name="Trazado 728559" d="M4.549,361.383a4.547,4.547,0,1,1,4.005-2.391.571.571,0,0,1-1.005-.543,3.4,3.4,0,1,0-1.385,1.385.571.571,0,1,1,.543,1.005A4.557,4.557,0,0,1,4.549,361.383Z" transform="translate(0 -325.452)"/>
        <g id="Grupo_984330" data-name="Grupo 984330" transform="translate(18.774 28.225)">
          <path id="Elipse_5920" data-name="Elipse 5920" d="M-4.073-7.5A3.43,3.43,0,0,1-.647-4.073,3.43,3.43,0,0,1-4.073-.647,3.43,3.43,0,0,1-7.5-4.073,3.43,3.43,0,0,1-4.073-7.5Zm0,5.71A2.287,2.287,0,0,0-1.79-4.073,2.287,2.287,0,0,0-4.073-6.357,2.287,2.287,0,0,0-6.357-4.073,2.287,2.287,0,0,0-4.073-1.79Z" transform="translate(7.5 7.5)"/>
          <g id="Grupo_984329" data-name="Grupo 984329" transform="translate(7.487 3.297)">
            <path id="Trazado_728560" data-name="Trazado 728560" d="M346.109,418.483a2.651,2.651,0,0,1-.812-.044.61.61,0,0,1-.38-.386c-.094-.305.053-.5.276-.79.176-.23.5-.651,1.038-1.424a1.652,1.652,0,0,0,.276-.547l.007-.076a.316.316,0,0,0-.311-.234.307.307,0,0,0-.3.247.571.571,0,1,1-1.121-.22,1.449,1.449,0,0,1,2.872.28l-.022.205a2.735,2.735,0,0,1-.463,1c-.241.344-.44.621-.6.842l.654-.006a.571.571,0,0,1,.014,1.142C346.737,418.481,346.375,418.483,346.109,418.483Z" transform="translate(-344.77 -413.841)"/>
          </g>
        </g>
        <g id="Grupo_984332" data-name="Grupo 984332" transform="translate(20.31 5.001)">
          <path id="Elipse_5921" data-name="Elipse 5921" d="M-4.073-7.5A3.43,3.43,0,0,1-.647-4.073,3.43,3.43,0,0,1-4.073-.647,3.43,3.43,0,0,1-7.5-4.073,3.43,3.43,0,0,1-4.073-7.5Zm0,5.71A2.287,2.287,0,0,0-1.79-4.073,2.287,2.287,0,0,0-4.073-6.357,2.287,2.287,0,0,0-6.357-4.073,2.287,2.287,0,0,0-4.073-1.79Z" transform="translate(7.5 7.5)"/>
          <g id="Grupo_984331" data-name="Grupo 984331" transform="translate(7.487 3.297)">
            <path id="Trazado_728561" data-name="Trazado 728561" d="M366.278,113.588a2.65,2.65,0,0,1-.812-.044.61.61,0,0,1-.38-.386c-.094-.305.053-.5.276-.79.176-.23.5-.651,1.038-1.424a1.652,1.652,0,0,0,.276-.547l.007-.076a.316.316,0,0,0-.311-.234.307.307,0,0,0-.3.247.571.571,0,1,1-1.121-.22,1.449,1.449,0,0,1,2.872.28l-.022.205a2.735,2.735,0,0,1-.463,1c-.241.345-.44.621-.6.842l.654-.006a.571.571,0,0,1,.014,1.142C366.907,113.586,366.545,113.588,366.278,113.588Z" transform="translate(-364.94 -108.946)"/>
          </g>
        </g>
      </g>
      <g id="Grupo_984335" data-name="Grupo 984335" transform="translate(6.159 17.309)">
        <g id="Grupo_984334" data-name="Grupo 984334" transform="translate(0 1.024)">
          <ellipse id="Elipse_5922" data-name="Elipse 5922" cx="2.238" cy="1.783" rx="2.238" ry="1.783" transform="translate(0 0.807)" fill="#fff"/>
          <ellipse id="Elipse_5923" data-name="Elipse 5923" cx="2.238" cy="1.783" rx="2.238" ry="1.783" transform="translate(12.133 0.807)" fill="#fff"/>
          <path id="Trazado_728562" data-name="Trazado 728562" d="M169.813,241.9c0-1.115-.808-1.22-1.8-1.22s-1.8.1-1.8,1.22a1.816,1.816,0,1,0,3.609,0Z" transform="translate(-159.704 -240.681)" fill="#495560"/>
        </g>
        <path id="Línea_1626" data-name="Línea 1626" d="M-6.929-5.443A.571.571,0,0,1-7.5-6.015v-.914A.571.571,0,0,1-6.929-7.5a.571.571,0,0,1,.571.571v.914A.571.571,0,0,1-6.929-5.443Z" transform="translate(9.541 7.5)"/>
        <path id="Trazado_728563" data-name="Trazado 728563" d="M161.08,233.181c.711,0,2.376,0,2.376,1.791a2.385,2.385,0,1,1-4.752,0C158.7,233.181,160.369,233.181,161.08,233.181Zm0,3.24a1.355,1.355,0,0,0,1.233-1.448c0-.45-.05-.649-1.233-.649s-1.233.2-1.233.649A1.355,1.355,0,0,0,161.08,236.421Z" transform="translate(-152.775 -232.729)"/>
        <path id="Línea_1627" data-name="Línea 1627" d="M-6.929-5.443A.571.571,0,0,1-7.5-6.015v-.914A.571.571,0,0,1-6.929-7.5a.571.571,0,0,1,.571.571v.914A.571.571,0,0,1-6.929-5.443Z" transform="translate(20.926 7.5)"/>
      </g>
    </g>
  </g>
</svg>
