<svg xmlns="http://www.w3.org/2000/svg" width="62" height="62" viewBox="0 0 62 62">
  <g id="Grupo_984261" data-name="Grupo 984261" transform="translate(-650 -7522)">
    <g id="Grupo_984091" data-name="Grupo 984091" transform="translate(406 -2901)">
      <g id="Rectángulo_340676" data-name="Rectángulo 340676" transform="translate(244 10423)" fill="none" stroke="#39a900" stroke-width="3">
        <rect width="62" height="62" rx="7" stroke="none"/>
        <rect x="1.5" y="1.5" width="59" height="59" rx="5.5" fill="none"/>
      </g>
    </g>
    <g id="air-pollution" transform="translate(658 7530)">
      <g id="Grupo_984247" data-name="Grupo 984247" transform="translate(23.542 12.933)">
        <path id="Trazado_728499" data-name="Trazado 728499" d="M270.195,155.482a2.927,2.927,0,0,0,2.826-2.165,4.571,4.571,0,0,0,7.194-1.84,2.926,2.926,0,0,0,.368-5.367,1.919,1.919,0,0,0-3.418-1.7,2.926,2.926,0,0,0-5.5,1.213c-.092-.009-.185-.014-.28-.014a2.927,2.927,0,0,0-2.714,1.831,1.917,1.917,0,0,0-2.929,2.213,2.926,2.926,0,0,0-2.588,2.906s0,0,0,.006c-.061,0-.121-.006-.183-.006a2.926,2.926,0,0,0-2.926,2.926Z" transform="translate(-260.044 -142.862)" fill="#cbcbcb"/>
      </g>
      <g id="Grupo_984248" data-name="Grupo 984248" transform="translate(37.963 13.576)">
        <path id="Trazado_728500" data-name="Trazado 728500" d="M425.456,152.569a1.915,1.915,0,0,0-1.739-2.606,7.486,7.486,0,0,1,.679,3.107,8.654,8.654,0,0,1-5.058,7.523,4.572,4.572,0,0,0,5.75-2.658,2.926,2.926,0,0,0,.368-5.367Z" transform="translate(-419.338 -149.963)" fill="#aaa"/>
      </g>
      <g id="Grupo_984251" data-name="Grupo 984251" transform="translate(2.782 0.679)">
        <g id="Grupo_984249" data-name="Grupo 984249">
          <path id="Trazado_728501" data-name="Trazado 728501" d="M42.164,23.23a3.11,3.11,0,0,0,2.956-2.145,3.114,3.114,0,0,0,2.223.037,1.458,1.458,0,0,0,1.906-.167,4.571,4.571,0,0,0,7.5-1.234,3.109,3.109,0,0,0,4.02-4.063,3.11,3.11,0,0,0-1.864-5.9A4.572,4.572,0,0,0,51.185,9.5a4.554,4.554,0,0,0-2.06-.1,1.462,1.462,0,0,0-2.784.055,3.11,3.11,0,0,0-3.994,2.981c0,.008,0,.015,0,.023-.151-.015-.3-.023-.458-.023a4.573,4.573,0,0,0-4.573,4.573,3.108,3.108,0,0,0-2.729,1.619A1.461,1.461,0,0,0,32.547,20.4a3.109,3.109,0,0,0-1.814,2.827Z" transform="translate(-30.733 -7.5)" fill="#dfdfdf"/>
        </g>
        <g id="Grupo_984250" data-name="Grupo 984250" transform="translate(20.055 0.625)">
          <path id="Trazado_728502" data-name="Trazado 728502" d="M264.118,19.08a3.112,3.112,0,0,0-3.739-3.046,4.6,4.6,0,0,0-1.636-1.634,8.3,8.3,0,0,1,1.233,4.294c0,4.022-3.07,7.561-7.72,9.617A4.571,4.571,0,0,0,258.223,26a3.109,3.109,0,0,0,4.02-4.063A3.109,3.109,0,0,0,264.118,19.08Z" transform="translate(-252.256 -14.401)" fill="#cbcbcb"/>
        </g>
      </g>
      <g id="Grupo_984252" data-name="Grupo 984252" transform="translate(0.679 20.067)">
        <path id="Trazado_728503" data-name="Trazado 728503" d="M23.961,247.261H7.5l1.829-25.606h12.8Z" transform="translate(-7.5 -221.655)" fill="#407093"/>
      </g>
      <g id="Grupo_984253" data-name="Grupo 984253" transform="translate(13.207 20.067)">
        <path id="Trazado_728504" data-name="Trazado 728504" d="M148,221.655h-2.1l1.829,25.606h2.1Z" transform="translate(-145.892 -221.655)" fill="#365e7d"/>
      </g>
      <g id="Grupo_984254" data-name="Grupo 984254" transform="translate(1.044 16.409)">
        <path id="Trazado_728505" data-name="Trazado 728505" d="M26.356,181.248h-13.9a.915.915,0,0,0-.915.915v1.829a.915.915,0,0,0,.915.915h13.9a.915.915,0,0,0,.915-.915v-1.829A.915.915,0,0,0,26.356,181.248Z" transform="translate(-11.541 -181.248)" fill="#e4f6ff"/>
      </g>
      <g id="Grupo_984255" data-name="Grupo 984255" transform="translate(12.384 16.409)">
        <path id="Trazado_728506" data-name="Trazado 728506" d="M140.276,181.248H136.8a.915.915,0,0,1,.915.915v1.829a.915.915,0,0,1-.915.915h3.475a.915.915,0,0,0,.915-.915v-1.829A.915.915,0,0,0,140.276,181.248Z" transform="translate(-136.801 -181.248)" fill="#d3effb"/>
      </g>
      <g id="Grupo_984256" data-name="Grupo 984256" transform="translate(21.804 29.212)">
        <path id="Trazado_728507" data-name="Trazado 728507" d="M255.48,339.132H240.848l1.372-16.461h11.889Z" transform="translate(-240.848 -322.671)" fill="#407093"/>
      </g>
      <g id="Grupo_984257" data-name="Grupo 984257" transform="translate(32.412 29.212)">
        <path id="Trazado_728508" data-name="Trazado 728508" d="M360.679,322.671h-2.652l1.372,16.461h2.652Z" transform="translate(-358.027 -322.671)" fill="#365e7d"/>
      </g>
      <g id="Grupo_984258" data-name="Grupo 984258" transform="translate(21.712 25.554)">
        <path id="Trazado_728509" data-name="Trazado 728509" d="M253.738,282.264H240.752a.915.915,0,0,0-.915.915v1.829a.915.915,0,0,0,.915.915h12.986a.915.915,0,0,0,.915-.915v-1.829A.915.915,0,0,0,253.738,282.264Z" transform="translate(-239.837 -282.264)" fill="#e4f6ff"/>
      </g>
      <g id="Grupo_984259" data-name="Grupo 984259" transform="translate(32.138 25.554)">
        <path id="Trazado_728510" data-name="Trazado 728510" d="M358.471,282.264H355a.915.915,0,0,1,.915.915v1.829a.915.915,0,0,1-.915.915h3.475a.915.915,0,0,0,.915-.915v-1.829A.915.915,0,0,0,358.471,282.264Z" transform="translate(-354.996 -282.264)" fill="#d3effb"/>
      </g>
      <g id="Grupo_984260" data-name="Grupo 984260" transform="translate(0 0)">
        <path id="Trazado_728511" data-name="Trazado 728511" d="M256.167,138.974a2.569,2.569,0,0,0,.027-.372,2.6,2.6,0,0,0-4.158-2.081,3.606,3.606,0,0,0-6.153,1.6,3.585,3.585,0,0,0-2.7,1.591,2.6,2.6,0,0,0-3.441,2.459c0,.048,0,.1,0,.143a3.605,3.605,0,0,0-2.414,2.771,3.614,3.614,0,0,0-3.1,2.9h-.3a1.6,1.6,0,0,0-1.594,1.594V151.4a1.6,1.6,0,0,0,1.405,1.581l-1.312,15.738a.679.679,0,0,0,.62.733l.057,0a.679.679,0,0,0,.676-.623L235.106,153h10.639l.264,3.162a.679.679,0,0,0,.676.623l.057,0a.679.679,0,0,0,.62-.733l-.255-3.061a1.6,1.6,0,0,0,1.405-1.581v-1.829a1.594,1.594,0,0,0-.854-1.41,3.6,3.6,0,0,0,.466-.633,5.25,5.25,0,0,0,7.409-2.351,3.606,3.606,0,0,0,.634-6.207ZM247.154,151.4a.236.236,0,0,1-.236.236H233.932a.236.236,0,0,1-.236-.236v-1.829a.236.236,0,0,1,.236-.236h12.986a.236.236,0,0,1,.236.236Zm7.64-7.389-.007,0a2.251,2.251,0,0,1-2.21-.429.679.679,0,1,0-.892,1.024,3.6,3.6,0,0,0,2.066.872,3.9,3.9,0,0,1-5.491.49.679.679,0,0,0-1.092.344,2.25,2.25,0,0,1-2.17,1.662h-.369a2.6,2.6,0,0,0-.292-2.912.679.679,0,0,0-1.04.873,1.225,1.225,0,0,1,.29.8,1.243,1.243,0,0,1-1.241,1.242h-6.715a2.251,2.251,0,0,1,2.143-1.568c.047,0,.094,0,.141,0a.679.679,0,0,0,.722-.678s0-.008,0-.013a2.245,2.245,0,0,1,1.987-2.225.679.679,0,0,0,.56-.908,1.239,1.239,0,0,1,1.892-1.43l.01.007a1.24,1.24,0,0,1,.5,1,.679.679,0,0,0,1.358,0,2.587,2.587,0,0,0-.633-1.7,2.236,2.236,0,0,1,1.874-1.009c.069,0,.142,0,.215.011a.679.679,0,0,0,.742-.637,2.247,2.247,0,0,1,4.225-.931l0,0a2.219,2.219,0,0,1,.264,1.058,2.249,2.249,0,0,1-.112.7.679.679,0,1,0,1.29.424,3.611,3.611,0,0,0-.056-2.407,1.23,1.23,0,0,1,.837-.327,1.238,1.238,0,0,1,1.158,1.686.679.679,0,0,0,.324.848,2.247,2.247,0,0,1-.282,4.122Z" transform="translate(-211.305 -123.108)"/>
        <path id="Trazado_728512" data-name="Trazado 728512" d="M24.639,16.264a5.265,5.265,0,0,0,4.505-2.554A3.79,3.79,0,0,0,33.638,9.17a3.789,3.789,0,0,0-2.049-6.975c-.1,0-.2,0-.3.011a5.25,5.25,0,0,0-8.337-.286,5.2,5.2,0,0,0-1.4-.073,2.139,2.139,0,0,0-3.544.016,3.789,3.789,0,0,0-4.237,3.077A5.26,5.26,0,0,0,8.724,9.566a3.79,3.79,0,0,0-2.373,1.44,2.143,2.143,0,0,0-2.51,2.11q0,.053,0,.106a3.807,3.807,0,0,0-1.677,2.507H1.959A1.6,1.6,0,0,0,.365,17.323v1.829a1.6,1.6,0,0,0,1.414,1.583L0,45.625a.679.679,0,0,0,.629.726l.049,0a.679.679,0,0,0,.677-.631L3.14,20.746H14.679l.313,4.382a.679.679,0,0,0,.677.631l.049,0a.679.679,0,0,0,.629-.726l-.307-4.3a1.6,1.6,0,0,0,1.414-1.583V17.323a1.59,1.59,0,0,0-.636-1.271,3.774,3.774,0,0,0,.737-.965,3.821,3.821,0,0,0,1.753-.048,2.142,2.142,0,0,0,1.935-.024,5.272,5.272,0,0,0,3.4,1.249ZM20.249,13.9a.777.777,0,0,1-.458-.149.679.679,0,0,0-.631-.088,2.443,2.443,0,0,1-1.189.116,3.79,3.79,0,0,0-.4-2.232.679.679,0,1,0-1.2.629,2.485,2.485,0,0,1,.154,1.877,2.424,2.424,0,0,1-2.31,1.676H8.295a.679.679,0,0,0,0,1.358H15.86a.236.236,0,0,1,.236.236v1.829a.236.236,0,0,1-.236.236H1.959a.236.236,0,0,1-.236-.236V17.323a.236.236,0,0,1,.236-.236H5.118a.679.679,0,1,0,0-1.358H3.559A2.44,2.44,0,0,1,4.88,14.2a.679.679,0,0,0,.36-.833.782.782,0,0,1,1.093-.95.679.679,0,0,0,.9-.281,2.431,2.431,0,0,1,3.817-.589.679.679,0,1,0,.94-.98,3.77,3.77,0,0,0-1.9-.986A3.9,3.9,0,0,1,13.939,6.3a4.063,4.063,0,0,1,2.258.721.679.679,0,1,0,.789-1.106,5.211,5.211,0,0,0-1.849-.835A2.43,2.43,0,0,1,18.2,3.288a.679.679,0,0,0,.843-.456A.783.783,0,0,1,20.533,2.8a.679.679,0,0,0,.762.447,3.878,3.878,0,0,1,1.755.085.679.679,0,0,0,.746-.271,3.893,3.893,0,0,1,6.579.218A.679.679,0,0,0,31.1,3.6,2.433,2.433,0,0,1,34.02,5.983a2.43,2.43,0,0,1-1.466,2.231.679.679,0,0,0-.359.879,2.431,2.431,0,0,1-2.252,3.345,2.451,2.451,0,0,1-.245-.013,5.264,5.264,0,0,0-.511-4.038.679.679,0,0,0-1.176.68,3.9,3.9,0,0,1,.182,3.536l-.008.016a3.9,3.9,0,0,1-3.546,2.287,3.856,3.856,0,0,1-2.844-1.236.679.679,0,0,0-.49-.215H21.3a.679.679,0,0,0-.487.206.778.778,0,0,1-.562.239Z" transform="translate(0 0)"/>
        <path id="Trazado_728513" data-name="Trazado 728513" d="M276.39,43.257a.679.679,0,0,0,.679-.679.58.58,0,0,1,1.16,0,.679.679,0,1,0,1.358,0,1.938,1.938,0,0,0-3.876,0A.679.679,0,0,0,276.39,43.257Z" transform="translate(-250.751 -36.961)"/>
        <path id="Trazado_728514" data-name="Trazado 728514" d="M232.938,91.075a1.94,1.94,0,0,0,0-2.741.679.679,0,1,0-.96.96.58.58,0,0,1-.82.82.679.679,0,0,0-.96.96,1.94,1.94,0,0,0,2.741,0Z" transform="translate(-209.176 -80.156)"/>
        <path id="Trazado_728515" data-name="Trazado 728515" d="M169.434,305.109a.679.679,0,0,0-1.355.1l1.245,17.429a.679.679,0,0,0,.677.631l.049,0a.679.679,0,0,0,.629-.726Z" transform="translate(-152.861 -276.914)"/>
        <path id="Trazado_728516" data-name="Trazado 728516" d="M387.573,392.549a.679.679,0,0,0-1.353.113l.793,9.512a.679.679,0,0,0,.676.623l.057,0a.679.679,0,0,0,.62-.733Z" transform="translate(-351.253 -356.445)"/>
        <path id="Trazado_728517" data-name="Trazado 728517" d="M389.335,189.134a1.94,1.94,0,0,0-1.938,1.938.679.679,0,1,0,1.358,0,.58.58,0,0,1,1.16,0,.679.679,0,1,0,1.358,0A1.94,1.94,0,0,0,389.335,189.134Z" transform="translate(-352.326 -172.012)"/>
      </g>
    </g>
  </g>
</svg>
