<svg xmlns="http://www.w3.org/2000/svg" width="62" height="62" viewBox="0 0 62 62">
  <g id="Grupo_984327" data-name="Grupo 984327" transform="translate(-1070 -7522)">
    <g id="Grupo_984029" data-name="Grupo 984029" transform="translate(826 -2901)">
      <g id="Rectángulo_340676" data-name="Rectángulo 340676" transform="translate(244 10423)" fill="none" stroke="#39a900" stroke-width="3">
        <rect width="62" height="62" rx="7" stroke="none"/>
        <rect x="1.5" y="1.5" width="59" height="59" rx="5.5" fill="none"/>
      </g>
    </g>
    <g id="fresh-air" transform="translate(1077.751 7530)">
      <g id="Grupo_984325" data-name="Grupo 984325" transform="translate(0.249 0)">
        <g id="Grupo_984264" data-name="Grupo 984264" transform="translate(5.756 29.544)">
          <g id="Grupo_984263" data-name="Grupo 984263">
            <g id="Grupo_984262" data-name="Grupo 984262">
              <path id="Trazado_728518" data-name="Trazado 728518" d="M79.314,333.447H64.925a.675.675,0,1,1,0-1.349h14.39a2.926,2.926,0,0,0,2.923-2.923.675.675,0,1,1,1.349,0A4.277,4.277,0,0,1,79.314,333.447Z" transform="translate(-64.25 -328.5)" fill="#cee9f8"/>
            </g>
          </g>
        </g>
        <g id="Grupo_984267" data-name="Grupo 984267" transform="translate(24.477 40.337)">
          <g id="Grupo_984266" data-name="Grupo 984266">
            <g id="Grupo_984265" data-name="Grupo 984265">
              <path id="Trazado_728519" data-name="Trazado 728519" d="M275.07,452.727c-1.159,0-2.464-.6-2.658-1.74a.675.675,0,0,1,1.33-.225c.068.4,1,.72,1.659.585a1.906,1.906,0,0,0,1.309-2.115.675.675,0,0,1,1.344-.115A3.151,3.151,0,0,1,275.07,452.727Z" transform="translate(-272.402 -448.5)" fill="#cee9f8"/>
            </g>
          </g>
        </g>
        <g id="Grupo_984272" data-name="Grupo 984272" transform="translate(0 18.75)">
          <g id="Grupo_984269" data-name="Grupo 984269" transform="translate(8.634)">
            <g id="Grupo_984268" data-name="Grupo 984268">
              <path id="Trazado_728520" data-name="Trazado 728520" d="M113.2,208.545c-1.292-.266-3.037.357-3.261,1.681a.675.675,0,1,0,1.33.225c.066-.388.983-.725,1.659-.585a1.9,1.9,0,0,1,1.31,2.09.687.687,0,0,0-.005.082c0,1.215-1.311,2.2-2.923,2.2H96.924a.675.675,0,1,0,0,1.349h14.39c2.328,0,4.225-1.556,4.27-3.483A3.237,3.237,0,0,0,113.2,208.545Z" transform="translate(-96.249 -208.484)" fill="#a1d7f3"/>
            </g>
          </g>
          <g id="Grupo_984271" data-name="Grupo 984271" transform="translate(0 5.757)">
            <g id="Grupo_984270" data-name="Grupo 984270">
              <path id="Trazado_728521" data-name="Trazado 728521" d="M6.681,272.5H.925a.675.675,0,0,0,0,1.349H6.681a.675.675,0,0,0,0-1.349Z" transform="translate(-0.25 -272.5)" fill="#a1d7f3"/>
            </g>
          </g>
        </g>
        <g id="Grupo_984275" data-name="Grupo 984275" transform="translate(0 37.459)">
          <g id="Grupo_984274" data-name="Grupo 984274">
            <g id="Grupo_984273" data-name="Grupo 984273">
              <path id="Trazado_728522" data-name="Trazado 728522" d="M29.7,420.727a.674.674,0,0,1-.675-.675c0-1.215-1.311-2.2-2.923-2.2H.925a.675.675,0,0,1,0-1.349H26.107c2.356,0,4.272,1.594,4.272,3.552A.675.675,0,0,1,29.7,420.727Z" transform="translate(-0.25 -416.5)" fill="#cee9f8"/>
            </g>
          </g>
        </g>
        <g id="Grupo_984278" data-name="Grupo 984278" transform="translate(5.756 28.825)">
          <g id="Grupo_984277" data-name="Grupo 984277">
            <g id="Grupo_984276" data-name="Grupo 984276">
              <path id="Trazado_728523" data-name="Trazado 728523" d="M70.68,323.288H64.925a.675.675,0,0,1,0-1.349H70.68a.765.765,0,0,0,.764-.764.675.675,0,1,1,1.349,0A2.116,2.116,0,0,1,70.68,323.288Z" transform="translate(-64.25 -320.5)" fill="#cee9f8"/>
            </g>
          </g>
        </g>
        <g id="Grupo_984281" data-name="Grupo 984281" transform="translate(0 40.337)">
          <g id="Grupo_984280" data-name="Grupo 984280">
            <g id="Grupo_984279" data-name="Grupo 984279">
              <path id="Trazado_728524" data-name="Trazado 728524" d="M18.912,453.447a.674.674,0,0,1-.675-.674,2.926,2.926,0,0,0-2.923-2.923H.925a.675.675,0,0,1,0-1.349h14.39a4.277,4.277,0,0,1,4.272,4.272A.674.674,0,0,1,18.912,453.447Z" transform="translate(-0.25 -448.5)" fill="#a1d7f3"/>
            </g>
          </g>
        </g>
        <g id="Grupo_984284" data-name="Grupo 984284" transform="translate(0 43.215)">
          <g id="Grupo_984283" data-name="Grupo 984283">
            <g id="Grupo_984282" data-name="Grupo 984282">
              <path id="Trazado_728525" data-name="Trazado 728525" d="M8.119,483.288a.674.674,0,0,1-.675-.675.765.765,0,0,0-.764-.764H.925a.675.675,0,0,1,0-1.349H6.681a2.116,2.116,0,0,1,2.114,2.114A.675.675,0,0,1,8.119,483.288Z" transform="translate(-0.25 -480.5)" fill="#a1d7f3"/>
            </g>
          </g>
        </g>
        <g id="Grupo_984297" data-name="Grupo 984297" transform="translate(2.114 0.001)">
          <g id="Grupo_984286" data-name="Grupo 984286" transform="translate(33.816 22.304)">
            <g id="Grupo_984285" data-name="Grupo 984285">
              <path id="Trazado_728526" data-name="Trazado 728526" d="M407.563,249.57c-2.51-1.992-5.752-1.608-7.03-1.35a.719.719,0,0,0-.562.558c-.264,1.259-.657,4.454,1.38,6.927a5.012,5.012,0,0,0,3.684,2.134,5.3,5.3,0,0,0,4.706-4.535C409.8,251.343,408.174,250.054,407.563,249.57Z" transform="translate(-399.755 -248.008)" fill="#6bc800"/>
            </g>
          </g>
          <g id="Grupo_984288" data-name="Grupo 984288" transform="translate(33.816 22.326)">
            <g id="Grupo_984287" data-name="Grupo 984287">
              <path id="Trazado_728527" data-name="Trazado 728527" d="M408.469,256.3a4.761,4.761,0,0,1-3.436,1.761,5.013,5.013,0,0,1-3.684-2.134c-2.037-2.473-1.643-5.668-1.38-6.927a.719.719,0,0,1,.562-.558,10.911,10.911,0,0,1,1.452-.19,8.033,8.033,0,0,0,1.511,6.148,5.013,5.013,0,0,0,3.684,2.134A3.724,3.724,0,0,0,408.469,256.3Z" transform="translate(-399.754 -248.25)" fill="#57a000"/>
            </g>
          </g>
          <g id="Grupo_984290" data-name="Grupo 984290" transform="translate(29.584)">
            <g id="Grupo_984289" data-name="Grupo 984289">
              <path id="Trazado_728528" data-name="Trazado 728528" d="M357.4,9.838A5.012,5.012,0,0,0,361.088,7.7c2.037-2.473,1.644-5.668,1.38-6.927a.719.719,0,0,0-.562-.558c-1.278-.258-4.52-.642-7.03,1.35-.611.485-2.234,1.773-2.178,3.733a4.581,4.581,0,0,0,1.529,3.038,4.536,4.536,0,0,0,3.177,1.5Z" transform="translate(-352.697 -0.008)" fill="#6bc800"/>
            </g>
          </g>
          <g id="Grupo_984292" data-name="Grupo 984292" transform="translate(31.56 0.006)">
            <g id="Grupo_984291" data-name="Grupo 984291">
              <path id="Trazado_728529" data-name="Trazado 728529" d="M381.085,7.77A5.013,5.013,0,0,1,377.4,9.9a4.268,4.268,0,0,1-2.731-1.089,3.274,3.274,0,0,0,.339.016A5.015,5.015,0,0,0,378.693,6.7,8.242,8.242,0,0,0,380.132.08,10.862,10.862,0,0,1,381.9.285a.719.719,0,0,1,.562.558c.264,1.259.657,4.454-1.38,6.927Z" transform="translate(-374.67 -0.08)" fill="#57a000"/>
            </g>
          </g>
          <g id="Grupo_984294" data-name="Grupo 984294" transform="translate(0 3.119)">
            <g id="Grupo_984293" data-name="Grupo 984293">
              <path id="Trazado_728530" data-name="Trazado 728530" d="M32.212,36.19a4.536,4.536,0,0,0-3.176-1.5,5.012,5.012,0,0,0-3.684,2.134c-2.037,2.473-1.644,5.668-1.38,6.927a.719.719,0,0,0,.562.558,8.6,8.6,0,0,0,7.03-1.35c.611-.485,2.234-1.773,2.178-3.733a4.581,4.581,0,0,0-1.529-3.038Z" transform="translate(-23.756 -34.693)" fill="#6bc800"/>
            </g>
          </g>
          <g id="Grupo_984296" data-name="Grupo 984296" transform="translate(0 3.119)">
            <g id="Grupo_984295" data-name="Grupo 984295">
              <path id="Trazado_728531" data-name="Trazado 728531" d="M31.815,35.821c-.108-.012-.256-.018-.348-.018a5.013,5.013,0,0,0-3.684,2.134,8.225,8.225,0,0,0-1.446,6.577,10.832,10.832,0,0,1-1.805-.206.719.719,0,0,1-.562-.558c-.264-1.259-.657-4.454,1.38-6.927a5.013,5.013,0,0,1,3.684-2.134,4.294,4.294,0,0,1,2.782,1.131Z" transform="translate(-23.754 -34.69)" fill="#57a000"/>
            </g>
          </g>
        </g>
        <g id="Grupo_984300" data-name="Grupo 984300" transform="translate(40.187 25.983)">
          <g id="Grupo_984299" data-name="Grupo 984299">
            <g id="Grupo_984298" data-name="Grupo 984298">
              <path id="Trazado_728532" data-name="Trazado 728532" d="M452.182,298.171a.719.719,0,0,1-.719-.721,8.522,8.522,0,0,0-4.038-7.222.719.719,0,0,1,.762-1.22,9.962,9.962,0,0,1,4.715,8.445A.72.72,0,0,1,452.182,298.171Z" transform="translate(-447.086 -288.899)" fill="#57a000"/>
            </g>
          </g>
        </g>
        <g id="Grupo_984303" data-name="Grupo 984303" transform="translate(31.613 3.678)">
          <g id="Grupo_984302" data-name="Grupo 984302">
            <g id="Grupo_984301" data-name="Grupo 984301">
              <path id="Trazado_728533" data-name="Trazado 728533" d="M352.469,50.173a.719.719,0,0,1-.719-.718,9.961,9.961,0,0,1,4.715-8.445.719.719,0,1,1,.762,1.22,8.522,8.522,0,0,0-4.038,7.222A.719.719,0,0,1,352.469,50.173Z" transform="translate(-351.75 -40.9)" fill="#57a000"/>
            </g>
          </g>
        </g>
        <g id="Grupo_984306" data-name="Grupo 984306" transform="translate(6.371 0)">
          <g id="Grupo_984305" data-name="Grupo 984305">
            <g id="Grupo_984304" data-name="Grupo 984304">
              <path id="Trazado_728534" data-name="Trazado 728534" d="M71.2,8.934a.719.719,0,0,1,.229-.991A8.522,8.522,0,0,0,75.463.721a.719.719,0,0,1,1.439,0,9.961,9.961,0,0,1-4.715,8.445.719.719,0,0,1-.991-.229Z" transform="translate(-71.086 0)" fill="#57a000"/>
            </g>
          </g>
        </g>
        <g id="Grupo_984309" data-name="Grupo 984309" transform="translate(10.747 19.426)">
          <g id="Grupo_984308" data-name="Grupo 984308">
            <g id="Grupo_984307" data-name="Grupo 984307">
              <circle id="Elipse_5907" data-name="Elipse 5907" cx="0.72" cy="0.72" r="0.72" fill="#6bc800"/>
            </g>
          </g>
        </g>
        <g id="Grupo_984312" data-name="Grupo 984312" transform="translate(14.344 5.756)">
          <g id="Grupo_984311" data-name="Grupo 984311">
            <g id="Grupo_984310" data-name="Grupo 984310">
              <circle id="Elipse_5908" data-name="Elipse 5908" cx="0.72" cy="0.72" r="0.72" fill="#57a000"/>
            </g>
          </g>
        </g>
        <g id="Grupo_984315" data-name="Grupo 984315" transform="translate(22.259 10.792)">
          <g id="Grupo_984314" data-name="Grupo 984314">
            <g id="Grupo_984313" data-name="Grupo 984313">
              <circle id="Elipse_5909" data-name="Elipse 5909" cx="0.72" cy="0.72" r="0.72" fill="#57a000"/>
            </g>
          </g>
        </g>
        <g id="Grupo_984318" data-name="Grupo 984318" transform="translate(40.246 16.548)">
          <g id="Grupo_984317" data-name="Grupo 984317">
            <g id="Grupo_984316" data-name="Grupo 984316">
              <path id="Trazado_728535" data-name="Trazado 728535" d="M448.46,185.44a.72.72,0,1,1,.72-.72A.72.72,0,0,1,448.46,185.44Zm.719-.72h0Zm-.719,0h0Z" transform="translate(-447.74 -184)" fill="#6bc800"/>
            </g>
          </g>
        </g>
        <g id="Grupo_984321" data-name="Grupo 984321" transform="translate(30.174 34.535)">
          <g id="Grupo_984320" data-name="Grupo 984320">
            <g id="Grupo_984319" data-name="Grupo 984319">
              <path id="Trazado_728536" data-name="Trazado 728536" d="M336.47,385.43a.72.72,0,1,1,.72-.72A.72.72,0,0,1,336.47,385.43Zm.719-.72h0Zm-.719,0h0Z" transform="translate(-335.75 -383.99)" fill="#57a000"/>
            </g>
          </g>
        </g>
        <g id="Grupo_984324" data-name="Grupo 984324" transform="translate(40.246 44.608)">
          <g id="Grupo_984323" data-name="Grupo 984323">
            <g id="Grupo_984322" data-name="Grupo 984322">
              <path id="Trazado_728537" data-name="Trazado 728537" d="M448.46,497.43a.72.72,0,1,1,.72-.72A.72.72,0,0,1,448.46,497.43Zm.719-.72h0Zm-.719,0h0Z" transform="translate(-447.74 -495.99)" fill="#6bc800"/>
            </g>
          </g>
        </g>
      </g>
      <g id="Grupo_984326" data-name="Grupo 984326" transform="translate(0.249 0)">
        <path id="Trazado_728538" data-name="Trazado 728538" d="M64.925,333.447h14.39a4.277,4.277,0,0,0,4.272-4.272.675.675,0,1,0-1.349,0,2.926,2.926,0,0,1-2.923,2.923H64.925a.675.675,0,1,0,0,1.349Z" transform="translate(-58.494 -298.956)"/>
        <path id="Trazado_728539" data-name="Trazado 728539" d="M109.944,210.225a.675.675,0,0,0,1.33.225c.066-.388.983-.725,1.659-.585a1.9,1.9,0,0,1,1.31,2.09.69.69,0,0,0-.005.082c0,1.215-1.311,2.2-2.923,2.2H96.925a.675.675,0,0,0,0,1.349h14.39c2.328,0,4.225-1.556,4.27-3.483a3.237,3.237,0,0,0-2.379-3.563c-1.292-.266-3.036.357-3.261,1.681Z" transform="translate(-87.616 -189.733)"/>
        <path id="Trazado_728540" data-name="Trazado 728540" d="M30.376,419.983c-.045-1.927-1.942-3.483-4.27-3.483H.924a.675.675,0,0,0,0,1.349H26.106c1.612,0,2.923.988,2.923,2.2a.667.667,0,0,0,.005.082,1.9,1.9,0,0,1-1.31,2.09c-.666.137-1.592-.192-1.659-.585a.675.675,0,1,0-1.33.226c.194,1.142,1.5,1.74,2.658,1.74a3.153,3.153,0,0,0,2.982-3.622Z" transform="translate(-0.249 -379.041)"/>
        <path id="Trazado_728541" data-name="Trazado 728541" d="M.925,273.849H6.681a.675.675,0,0,0,0-1.349H.925a.675.675,0,0,0,0,1.349Z" transform="translate(-0.25 -247.992)"/>
        <path id="Trazado_728542" data-name="Trazado 728542" d="M64.925,323.288H70.68a2.116,2.116,0,0,0,2.114-2.113.675.675,0,1,0-1.349,0,.765.765,0,0,1-.764.764H64.925a.675.675,0,0,0,0,1.349Z" transform="translate(-58.494 -291.675)"/>
        <path id="Trazado_728543" data-name="Trazado 728543" d="M15.314,448.5H.925a.675.675,0,0,0,0,1.349h14.39a2.926,2.926,0,0,1,2.923,2.923.675.675,0,0,0,1.349,0A4.277,4.277,0,0,0,15.314,448.5Z" transform="translate(-0.25 -408.163)"/>
        <path id="Trazado_728544" data-name="Trazado 728544" d="M6.681,480.5H.925a.675.675,0,0,0,0,1.349H6.681a.765.765,0,0,1,.764.764.675.675,0,1,0,1.349,0A2.116,2.116,0,0,0,6.681,480.5Z" transform="translate(-0.25 -437.285)"/>
        <path id="Trazado_728545" data-name="Trazado 728545" d="M408.75,255.758a4.121,4.121,0,0,0,.991-2.455c.056-1.96-1.567-3.249-2.178-3.733-2.51-1.992-5.752-1.608-7.03-1.35a.719.719,0,0,0-.562.558c-.264,1.259-.657,4.454,1.38,6.927a5.012,5.012,0,0,0,3.684,2.134,4.21,4.21,0,0,0,2.631-1.007,8.55,8.55,0,0,1,.722,3.406.72.72,0,1,0,1.439,0A10.028,10.028,0,0,0,408.75,255.758Zm-.814-1.335a10.14,10.14,0,0,0-2.823-2.628.719.719,0,1,0-.762,1.22,8.659,8.659,0,0,1,2.611,2.527,2.944,2.944,0,0,1-1.924.856,3.689,3.689,0,0,1-2.576-1.61,6.708,6.708,0,0,1-1.167-5.242,7.079,7.079,0,0,1,5.374,1.149c.5.4,1.669,1.325,1.634,2.565A2.4,2.4,0,0,1,407.936,254.423Z" transform="translate(-363.825 -225.703)"/>
        <path id="Trazado_728546" data-name="Trazado 728546" d="M356.543,9.838A5.012,5.012,0,0,0,360.227,7.7c2.037-2.473,1.644-5.668,1.38-6.927a.719.719,0,0,0-.562-.558c-1.278-.258-4.52-.642-7.03,1.35-.611.485-2.234,1.773-2.178,3.733a4.121,4.121,0,0,0,.991,2.455,10.027,10.027,0,0,0-1.078,4.482.719.719,0,0,0,1.439,0,8.55,8.55,0,0,1,.722-3.406A4.21,4.21,0,0,0,356.543,9.838Zm.914-5.814a.719.719,0,0,0-.991-.229,10.139,10.139,0,0,0-2.823,2.628,2.4,2.4,0,0,1-.367-1.161c-.036-1.24,1.134-2.168,1.634-2.565a6.968,6.968,0,0,1,5.374-1.149,6.709,6.709,0,0,1-1.167,5.242A3.626,3.626,0,0,1,356.483,8.4a3.025,3.025,0,0,1-1.866-.856,8.66,8.66,0,0,1,2.611-2.527.719.719,0,0,0,.229-.991Z" transform="translate(-320.138 -0.007)"/>
        <path id="Trazado_728547" data-name="Trazado 728547" d="M24.534,12.739a8.6,8.6,0,0,0,7.03-1.35c.611-.485,2.234-1.773,2.178-3.733A4.121,4.121,0,0,0,32.75,5.2,10.027,10.027,0,0,0,33.828.718a.719.719,0,1,0-1.439,0,8.551,8.551,0,0,1-.722,3.406A4.211,4.211,0,0,0,29.036,3.12a5.012,5.012,0,0,0-3.684,2.134c-2.037,2.473-1.644,5.668-1.38,6.927a.72.72,0,0,0,.562.558Zm1.929-6.57A3.636,3.636,0,0,1,29.1,4.56a3.025,3.025,0,0,1,1.866.856,8.66,8.66,0,0,1-2.611,2.527.719.719,0,1,0,.762,1.22,10.139,10.139,0,0,0,2.823-2.628A2.4,2.4,0,0,1,32.3,7.7c.036,1.24-1.134,2.168-1.634,2.565A7.08,7.08,0,0,1,25.3,11.411,6.709,6.709,0,0,1,26.463,6.169Z" transform="translate(-21.642 0)"/>
        <circle id="Elipse_5910" data-name="Elipse 5910" cx="0.72" cy="0.72" r="0.72" transform="translate(10.748 19.426)"/>
        <circle id="Elipse_5911" data-name="Elipse 5911" cx="0.72" cy="0.72" r="0.72" transform="translate(14.344 5.756)"/>
        <circle id="Elipse_5912" data-name="Elipse 5912" cx="0.72" cy="0.72" r="0.72" transform="translate(22.259 10.792)"/>
        <circle id="Elipse_5913" data-name="Elipse 5913" cx="0.72" cy="0.72" r="0.72" transform="translate(40.246 16.548)"/>
        <circle id="Elipse_5914" data-name="Elipse 5914" cx="0.72" cy="0.72" r="0.72" transform="translate(30.174 34.535)"/>
        <circle id="Elipse_5915" data-name="Elipse 5915" cx="0.72" cy="0.72" r="0.72" transform="translate(40.246 44.608)"/>
      </g>
    </g>
  </g>
</svg>
