<svg xmlns="http://www.w3.org/2000/svg" xmlns:xlink="http://www.w3.org/1999/xlink" width="295" height="248.307" viewBox="0 0 295 248.307">
  <defs>
    <clipPath id="clip-path">
      <rect id="Rectángulo_338983" data-name="Rectángulo 338983" width="295" height="208" transform="translate(0 0)" fill="#0e494d" stroke="#707070" stroke-width="1"/>
    </clipPath>
    <clipPath id="clip-path-2">
      <rect id="Rectángulo_344644" data-name="Rectángulo 344644" width="275.6" height="244.233" fill="none"/>
    </clipPath>
    <clipPath id="clip-path-4">
      <rect id="Rectángulo_344640" data-name="Rectángulo 344640" width="38.416" height="55.535" fill="none"/>
    </clipPath>
    <clipPath id="clip-path-5">
      <rect id="Rectángulo_344641" data-name="Rectángulo 344641" width="21.931" height="5.826" fill="none"/>
    </clipPath>
  </defs>
  <g id="Grupo_984147" data-name="Grupo 984147" transform="translate(-338 -3079.692)">
    <g id="Grupo_983733" data-name="Grupo 983733" transform="translate(338 3097)">
      <path id="Rectángulo_338981" data-name="Rectángulo 338981" d="M21,0H189a0,0,0,0,1,0,0V210a21,21,0,0,1-21,21H21A21,21,0,0,1,0,210V21A21,21,0,0,1,21,0Z" transform="translate(106 -0.001)" fill="#badc61"/>
      <rect id="Rectángulo_338982" data-name="Rectángulo 338982" width="171" height="197" rx="21" transform="translate(0 33.999)" fill="#34bc85"/>
      <g id="Enmascarar_grupo_559" data-name="Enmascarar grupo 559" transform="translate(0 22.999)" clip-path="url(#clip-path)">
        <path id="Unión_142" data-name="Unión 142" d="M172.654,84.166c-10.4-11.053-30.884-14.141-57.69-6.494C67.219,91.291,17.493,133.807,3.9,172.637S17.985,231.9,65.73,218.285c28.368-8.092,57.434-26.385,79.207-48.046,9.874,21.106,39.132,28.824,79.762,17.234,35.213-10.044,71.27-32.394,98.8-59.038,5.78,19.483,29.7,27.227,63.938,17.461,47.744-13.619,97.47-56.135,111.066-94.965S484.417-8.336,436.672,5.283C413.837,11.8,390.551,24.92,370.98,41.089,369.943,8.356,337.268-6.332,287.6,7.838,244.981,19.993,201.135,50.166,172.654,84.166Z" transform="matrix(-0.809, -0.588, 0.588, -0.809, 233.101, 400.65)" fill="#0e494d"/>
      </g>
    </g>
    <g id="Grupo_984146" data-name="Grupo 984146" transform="translate(348 3079.692)">
      <g id="Grupo_984145" data-name="Grupo 984145" clip-path="url(#clip-path-2)">
        <g id="Grupo_984144" data-name="Grupo 984144">
          <g id="Grupo_984143" data-name="Grupo 984143" clip-path="url(#clip-path-2)">
            <path id="Trazado_728334" data-name="Trazado 728334" d="M242.307,113.9s21.2,6.155,37.651,19.7,20.691,50.663,12.144,52.38-63.189-11.443-63.189-11.443Z" transform="translate(-78.774 -38.889)" fill="#fff"/>
            <path id="Trazado_728335" data-name="Trazado 728335" d="M242.307,113.9s21.2,6.155,37.651,19.7,20.691,50.663,12.144,52.38-63.189-11.443-63.189-11.443Z" transform="translate(-78.774 -38.889)" fill="none" stroke="#16004d" stroke-linecap="round" stroke-miterlimit="10" stroke-width="1"/>
            <path id="Trazado_728336" data-name="Trazado 728336" d="M166.724,114.21c-29.183,6.189-52.047,44.628-52.688,73.593,0,0,4.487,7.081,9.188,7.724s46.048-5.364,46.048-5.364l21.475-48.306,2.991-21Z" transform="translate(-39.242 -38.994)" fill="#fff"/>
            <path id="Trazado_728337" data-name="Trazado 728337" d="M166.724,114.21c-29.183,6.189-52.047,44.628-52.688,73.593,0,0,4.487,7.081,9.188,7.724s46.048-5.364,46.048-5.364l21.475-48.306,2.991-21Z" transform="translate(-39.242 -38.994)" fill="none" stroke="#16004d" stroke-linecap="round" stroke-miterlimit="10" stroke-width="1"/>
            <path id="Trazado_728338" data-name="Trazado 728338" d="M248.777,281.079l-8.4-125.385c0-25.01-19.9-45.285-44.438-45.285h-7.707c-24.543,0-44.438,20.275-44.438,45.285l-8.9,125.385Z" transform="translate(-46.417 -37.697)" fill="#fff"/>
            <path id="Trazado_728339" data-name="Trazado 728339" d="M210.623,174.49,231.4,114.254a43.563,43.563,0,0,0-17.919-3.845h-7.707a43.571,43.571,0,0,0-19.9,4.8Z" transform="translate(-63.962 -37.697)" fill="#2e4ecc"/>
            <path id="Trazado_728340" data-name="Trazado 728340" d="M210.623,174.49,231.4,114.254a43.563,43.563,0,0,0-17.919-3.845h-7.707a43.571,43.571,0,0,0-19.9,4.8Z" transform="translate(-63.962 -37.697)" fill="none" stroke="#16004d" stroke-miterlimit="10" stroke-width="1"/>
            <line id="Línea_1603" data-name="Línea 1603" y2="106.42" transform="translate(146.661 136.794)" fill="none" stroke="#16004d" stroke-miterlimit="10" stroke-width="1"/>
            <path id="Trazado_728341" data-name="Trazado 728341" d="M216.978,261.836a1.989,1.989,0,1,1-1.989-2A1.993,1.993,0,0,1,216.978,261.836Z" transform="translate(-73.298 -88.716)" fill="none" stroke="#16004d" stroke-miterlimit="10" stroke-width="1"/>
            <path id="Trazado_728342" data-name="Trazado 728342" d="M216.978,313.405a1.989,1.989,0,1,1-1.989-2A1.993,1.993,0,0,1,216.978,313.405Z" transform="translate(-73.298 -106.323)" fill="none" stroke="#16004d" stroke-miterlimit="10" stroke-width="1"/>
            <path id="Trazado_728343" data-name="Trazado 728343" d="M181.542,134.735v37.547l9.779-3.6-4.89,13.04L204.7,204.049" transform="translate(-62.473 -46.002)" fill="none" stroke="#16004d" stroke-linecap="round" stroke-miterlimit="10" stroke-width="1"/>
            <path id="Trazado_728344" data-name="Trazado 728344" d="M252.073,134.735v37.547l-9.779-3.6,4.89,13.04-18.271,22.326" transform="translate(-78.774 -46.002)" fill="none" stroke="#16004d" stroke-linecap="round" stroke-miterlimit="10" stroke-width="1"/>
            <path id="Trazado_728345" data-name="Trazado 728345" d="M141.981,215.255l-7.1,99.927H248.777l-7.03-104.888" transform="translate(-46.417 -71.8)" fill="none" stroke="#16004d" stroke-linecap="round" stroke-miterlimit="10" stroke-width="1"/>
            <path id="Trazado_728346" data-name="Trazado 728346" d="M186.865,47.214c-.108-.319-6.505-10.2-6.885-18.8S183.046,3.6,207.473,2.824c8.548-.272,26.77.846,26.7,21.475C234.1,45.1,224.45,57,222.283,58.132s-29.653,6.237-35.418-10.918" transform="translate(-61.926 -0.954)" fill="#161522"/>
            <path id="Trazado_728347" data-name="Trazado 728347" d="M259.948,65.112a5.928,5.928,0,1,1-5.8-6.031,5.915,5.915,0,0,1,5.8,6.031" transform="translate(-85.375 -20.171)" fill="#a66957"/>
            <path id="Trazado_728348" data-name="Trazado 728348" d="M252.413,67.082a3.191,3.191,0,0,1,.012-.379c0-.061.011-.121.018-.18.012-.122-.007.037,0-.011s.013-.086.02-.128a4.411,4.411,0,0,1,.113-.5c.024-.085.052-.169.082-.252.015-.043.033-.085.049-.128.008-.021.032-.071-.009.021.013-.03.026-.06.04-.09a3.525,3.525,0,0,1,.3-.515c.066-.1-.03.029.046-.061.033-.039.066-.078.1-.115a2.854,2.854,0,0,1,.249-.239s.084-.067.034-.028.035-.026.037-.027c.045-.032.091-.063.138-.092a2.676,2.676,0,0,1,.338-.179c-.07.031-.012,0,0,0,.047-.018.092-.036.14-.051.067-.023.135-.043.2-.061s.144-.036.216-.049c.091-.018.149-.026.186-.03a5.086,5.086,0,0,1,1.192.024.413.413,0,0,0,.41-.412.421.421,0,0,0-.41-.412,3.726,3.726,0,0,0-3.377,1.044,4.219,4.219,0,0,0-.923,2.326,3.554,3.554,0,0,0-.025.522c.022.528.842.531.82,0" transform="translate(-86.578 -21.56)" fill="#7f4040"/>
            <path id="Trazado_728349" data-name="Trazado 728349" d="M176.4,64.772A5.928,5.928,0,1,0,182.456,59a5.917,5.917,0,0,0-6.052,5.774" transform="translate(-60.704 -20.143)" fill="#a66957"/>
            <path id="Trazado_728350" data-name="Trazado 728350" d="M188.522,67.134a4.513,4.513,0,0,0-.152-1.481,3.333,3.333,0,0,0-1.71-2.218,4.456,4.456,0,0,0-2.311-.359.421.421,0,0,0-.41.412.414.414,0,0,0,.41.412,5.1,5.1,0,0,1,1.065.011c-.077-.01.06.009.06.009l.082.015c.073.013.144.029.216.047a3.108,3.108,0,0,1,.41.134c-.078-.032.072.034.1.045.051.026.1.052.15.08s.094.057.14.087l.08.055.051.038-.02-.016a2.786,2.786,0,0,1,.239.218c.035.036.068.072.1.11.02.022.037.046.057.068.056.062-.043-.065.008.009a3.52,3.52,0,0,1,.316.537l.028.063c.026.055-.036-.1,0-.011.016.042.033.083.048.125.034.094.064.19.091.286a4.918,4.918,0,0,1,.108.506c0,.022.005.044.009.066-.022-.121-.009-.074-.007-.045s.01.082.014.124q.01.1.016.205a3.382,3.382,0,0,1,0,.468.414.414,0,0,0,.41.412.419.419,0,0,0,.41-.412" transform="translate(-63.297 -21.529)" fill="#7f4040"/>
            <path id="Trazado_728351" data-name="Trazado 728351" d="M230.167,55.94A13.238,13.238,0,0,1,216.98,69.15l-11.114-.013A13.238,13.238,0,0,1,192.709,55.9l.028-23.361a13.237,13.237,0,0,1,13.187-13.21l11.115.013a13.239,13.239,0,0,1,13.156,13.242Z" transform="translate(-66.315 -6.598)" fill="#a66957"/>
            <path id="Trazado_728352" data-name="Trazado 728352" d="M219.336,112.694H211.38a7.335,7.335,0,0,1-7.32-7.35V93.653a7.335,7.335,0,0,1,7.32-7.349h7.956a7.335,7.335,0,0,1,7.32,7.349v11.692a7.335,7.335,0,0,1-7.32,7.35" transform="translate(-70.221 -29.466)" fill="#a66957"/>
            <path id="Trazado_728353" data-name="Trazado 728353" d="M203.257,67.249a4.719,4.719,0,1,1-4.343-5.089,4.725,4.725,0,0,1,4.343,5.089" transform="translate(-66.702 -21.218)" fill="#9e5656"/>
            <path id="Trazado_728354" data-name="Trazado 728354" d="M242.609,67.3a4.719,4.719,0,1,1-4.343-5.089,4.725,4.725,0,0,1,4.343,5.089" transform="translate(-80.244 -21.234)" fill="#9e5656"/>
            <path id="Trazado_728355" data-name="Trazado 728355" d="M230.193,48.524c-.517,1.235-.815,8.571-2.919,12.929-1.167,2.417-6.633,4.971-9.5,1.544-3.146-3.76-7.6-3.434-10.738-.636s-7.56,5.336-10.853,1.276C194.293,61.309,193.088,46,193.088,46s-.132.252-.351.68l-.022,18.69c-.009,7.914,5.911,14.4,13.155,14.4l11.115.013c7.244.009,13.179-6.459,13.188-14.373Z" transform="translate(-66.317 -15.705)" fill="#161522"/>
            <path id="Trazado_728356" data-name="Trazado 728356" d="M216.725,74.139a3.7,3.7,0,0,0,7.356.009Z" transform="translate(-74.58 -25.313)" fill="#fff"/>
            <path id="Trazado_728357" data-name="Trazado 728357" d="M219.5,52.739q-.918,3.974-1.764,7.965a.417.417,0,0,0,.4.521q1.753.074,3.507.159c.527.026.526-.8,0-.823q-1.753-.085-3.507-.159l.395.521q.846-3.99,1.764-7.965c.119-.515-.671-.736-.79-.219" transform="translate(-74.924 -17.906)" fill="#7f4040"/>
            <path id="Trazado_728358" data-name="Trazado 728358" d="M204.424,55.8a1.741,1.741,0,1,1-1.772-1.717,1.745,1.745,0,0,1,1.772,1.717" transform="translate(-69.148 -18.464)" fill="#161522"/>
            <path id="Trazado_728359" data-name="Trazado 728359" d="M240.315,55.749a1.741,1.741,0,1,1-1.772-1.717,1.745,1.745,0,0,1,1.772,1.717" transform="translate(-81.499 -18.448)" fill="#161522"/>
            <path id="Trazado_728360" data-name="Trazado 728360" d="M199.268,53.378l4.885-.3a.988.988,0,0,0,0-1.976l-4.885.3a.988.988,0,0,0,0,1.976" transform="translate(-68.234 -17.447)" fill="#161522"/>
            <path id="Trazado_728361" data-name="Trazado 728361" d="M234.889,51.547l5.275,1.345a.988.988,0,0,0,.523-1.905l-5.275-1.345a.988.988,0,0,0-.523,1.905" transform="translate(-80.585 -16.939)" fill="#161522"/>
            <path id="Trazado_728362" data-name="Trazado 728362" d="M216.076,1.41a30.534,30.534,0,0,0-7.483-1.4c-5.675-.14-24.517,1.025-28.8,13.871a32.124,32.124,0,0,0,1.663,23.727l.024-3.178c1.707,1.939,7.481,5.583,7.481,5.583l.736-6.218s23.184-.047,24.342-12.428c.039-.418-.941,9.788,7.188,12.444,0,0-1.994-4.809-.99-8.559,0,0,.115,7.44,5.383,9.316l.8,5.873s2.507-2.555,3.493-7.882l.367,5.107s6.144-6.254,3.95-19.285C232.6,8.723,223.378,3.629,216.076,1.41" transform="translate(-61.338 0)" fill="#161522"/>
            <path id="Trazado_728363" data-name="Trazado 728363" d="M235.094,41.93a8.31,8.31,0,0,0,3.205,5.865c2.991,2.074,7.835,6.651,10.114,11.085s4.558,12.3,7.478,14.232,7.693-.786,7.693-.786-.356-9.584,0-12.373-9.188-10.37-9.188-10.37-6.7-4.792-8.049-6.508-10.4-8.3-11.254-1.145" transform="translate(-80.901 -13.202)" fill="#92cdfe"/>
            <path id="Trazado_728364" data-name="Trazado 728364" d="M276.222,123.726l-6.681-22.439,18.911-4.908,8.017,21.344Z" transform="translate(-92.755 -32.907)" fill="#a66957"/>
            <path id="Trazado_728365" data-name="Trazado 728365" d="M269.54,127.774l31.611-7.7s33.975,56.858,17.949,71.877c-14.957,14.018-31.767,4.148-36.254-4.077-7.621-13.97-11.139-42.363-13.306-60.1" transform="translate(-92.755 -40.996)" fill="#fff"/>
            <path id="Trazado_728366" data-name="Trazado 728366" d="M269.54,127.774l31.611-7.7s33.975,56.858,17.949,71.877c-14.957,14.018-31.767,4.148-36.254-4.077C275.225,173.9,271.707,145.511,269.54,127.774Z" transform="translate(-92.755 -40.996)" fill="none" stroke="#16004d" stroke-linecap="round" stroke-miterlimit="10" stroke-width="1"/>
            <line id="Línea_1604" data-name="Línea 1604" y1="8.557" x2="35.371" transform="translate(178.011 88.284)" fill="none" stroke="#16004d" stroke-linecap="round" stroke-miterlimit="10" stroke-width="1"/>
            <path id="Trazado_728367" data-name="Trazado 728367" d="M233.86,34.276a2.231,2.231,0,0,1,.336-2.436c.988-1.395,8.663-4.22,15.5-4.291s7.194,1.573,9.188,3.218,7.337,6.642,8.547,7.791,2.351,5.3,2.421,8.3,8.12,28.965,8.12,28.965L257.959,81.76l-7.421-20.676s-.415-9.219-2.48-12.365-8.405-10.16-8.405-10.16l-1.024-2.735s-3.868.46-4.77-1.547" transform="translate(-80.404 -9.405)" fill="#92cdfe"/>
            <path id="Trazado_728368" data-name="Trazado 728368" d="M230.22,64.443V78.249a5.437,5.437,0,1,0,10.873,0V64.443Z" transform="translate(-79.224 -22.003)" fill="#50b97a"/>
            <rect id="Rectángulo_344632" data-name="Rectángulo 344632" width="10.873" height="8.958" transform="translate(150.996 11.31)" fill="#eb3341"/>
            <rect id="Rectángulo_344633" data-name="Rectángulo 344633" width="10.873" height="8.958" transform="translate(150.996 11.31)" fill="none" stroke="#16004d" stroke-linecap="round" stroke-miterlimit="10" stroke-width="1"/>
            <path id="Trazado_728369" data-name="Trazado 728369" d="M230.22,26.716V65.368a5.437,5.437,0,1,0,10.873,0V26.716Z" transform="translate(-79.224 -9.122)" fill="none" stroke="#16004d" stroke-linecap="round" stroke-miterlimit="10" stroke-width="1"/>
            <path id="Trazado_728370" data-name="Trazado 728370" d="M256.681,46.376l14.133,4.989a30.216,30.216,0,0,1-.96-4.506c-.071-3-1.211-7.152-2.421-8.3s-6.553-6.146-8.547-7.791-2.351-3.29-9.189-3.218-14.512,2.9-15.5,4.291a2.231,2.231,0,0,0-.336,2.436c.9,2.007,4.77,1.547,4.77,1.547l2.161-.265a2.913,2.913,0,0,0,.216,1.806c.43.819,2.431.59,3.4,1.083a11.883,11.883,0,0,1,5.338,4.515c.434.661,6.64,2.358,6.94,3.413" transform="translate(-80.404 -9.405)" fill="#92cdfe"/>
            <path id="Trazado_728371" data-name="Trazado 728371" d="M270.77,42.826s-6.624-.429-10.47.858-3.846,3.755-1.923,4.291,8.547.215,9.509,1.073,2.778,3.326,2.885,4.505" transform="translate(-88.478 -14.599)" fill="none" stroke="#16004d" stroke-linecap="round" stroke-miterlimit="10" stroke-width="1"/>
            <path id="Trazado_728372" data-name="Trazado 728372" d="M261.125,32.437s-9.188.483-12.821,1.77-4.334,3.061-3.579,4.559c1.068,2.119,8.983,1.44,12.766.989" transform="translate(-84.121 -11.075)" fill="none" stroke="#16004d" stroke-linecap="round" stroke-miterlimit="10" stroke-width="1"/>
            <path id="Trazado_728373" data-name="Trazado 728373" d="M240.8,38.489s-7.334,1.431-7.12-2.36" transform="translate(-80.413 -12.335)" fill="none" stroke="#16004d" stroke-linecap="round" stroke-miterlimit="10" stroke-width="1"/>
            <path id="Trazado_728374" data-name="Trazado 728374" d="M270.252,74.139a9.116,9.116,0,0,1-5.912-7.51,35.066,35.066,0,0,1,0-10.084" transform="translate(-90.846 -19.306)" fill="none" stroke="#16004d" stroke-linecap="round" stroke-miterlimit="10" stroke-width="1"/>
            <path id="Trazado_728375" data-name="Trazado 728375" d="M251.848,49.356a45.086,45.086,0,0,0,8.054,5.861" transform="translate(-86.666 -16.851)" fill="none" stroke="#16004d" stroke-linecap="round" stroke-miterlimit="10" stroke-width="1"/>
            <line id="Línea_1605" data-name="Línea 1605" y1="5.936" x2="20.015" transform="translate(177.555 66.419)" fill="none" stroke="#16004d" stroke-linecap="round" stroke-miterlimit="10" stroke-width="1"/>
            <line id="Línea_1606" data-name="Línea 1606" y1="5.826" x2="20.255" transform="translate(176.129 62.555)" fill="none" stroke="#16004d" stroke-linecap="round" stroke-miterlimit="10" stroke-width="1"/>
            <path id="Trazado_728376" data-name="Trazado 728376" d="M176.6,142.228,163.99,162.54l17.664,11.3,11.9-21.456Z" transform="translate(-56.432 -48.56)" fill="#a66957"/>
            <path id="Trazado_728377" data-name="Trazado 728377" d="M227.745,88.769h0a5.1,5.1,0,0,0,.328-3.2,1.857,1.857,0,0,0-2.377-1.278s2.738-4.141,2.332-6.046a1.846,1.846,0,0,0-2.89-1.417,4.447,4.447,0,0,0,1.139-2.782c-.066-1.047-2.075-2.474-7.52,1.693a189.8,189.8,0,0,0-20.1,18.227c-5.965,6.38-17.115,25.648-17.115,25.648l16.823,12.043s3.5-6.054,8.169-12.987,3.014-2.441,11.669-10.058,11.378-14.647,11.442-17.342-1.9-2.5-1.9-2.5" transform="translate(-62.473 -24.903)" fill="#92cdfe"/>
            <path id="Trazado_728378" data-name="Trazado 728378" d="M245.444,88.927a52.449,52.449,0,0,1-8,9.816" transform="translate(-81.708 -30.362)" fill="none" stroke="#16004d" stroke-linecap="round" stroke-miterlimit="10" stroke-width="1"/>
            <path id="Trazado_728379" data-name="Trazado 728379" d="M248.743,96.8c-.711,1.98-2.478,4.914-6.312,9.679" transform="translate(-83.426 -33.049)" fill="none" stroke="#16004d" stroke-linecap="round" stroke-miterlimit="10" stroke-width="1"/>
            <path id="Trazado_728380" data-name="Trazado 728380" d="M242.929,78.471c-1.267,1.864-4.088,4.987-10.185,10.876" transform="translate(-80.092 -26.792)" fill="none" stroke="#16004d" stroke-linecap="round" stroke-miterlimit="10" stroke-width="1"/>
            <line id="Línea_1607" data-name="Línea 1607" x1="16.823" y1="12.043" transform="translate(119.07 94.713)" fill="none" stroke="#16004d" stroke-linecap="round" stroke-miterlimit="10" stroke-width="1"/>
            <line id="Línea_1608" data-name="Línea 1608" x1="16.823" y1="12.043" transform="translate(121.618 90.82)" fill="none" stroke="#16004d" stroke-linecap="round" stroke-miterlimit="10" stroke-width="1"/>
            <path id="Trazado_728381" data-name="Trazado 728381" d="M124.07,189.78,146.791,162.1l26.852,13.839s-9.188,46.667-27.991,56.8c-13.877,7.474-32.266.385-31.625-28.581a78.6,78.6,0,0,1,5.711-26.408Z" transform="translate(-39.233 -55.346)" fill="#fff"/>
            <path id="Trazado_728382" data-name="Trazado 728382" d="M124.07,189.78,146.791,162.1l26.852,13.839s-9.188,46.667-27.991,56.8c-13.877,7.474-32.266.385-31.625-28.581a78.6,78.6,0,0,1,5.711-26.408" transform="translate(-39.233 -55.346)" fill="none" stroke="#16004d" stroke-linecap="round" stroke-miterlimit="10" stroke-width="1"/>
            <line id="Línea_1609" data-name="Línea 1609" x2="30.751" y2="16.343" transform="translate(101.193 114.509)" fill="none" stroke="#16004d" stroke-linecap="round" stroke-miterlimit="10" stroke-width="1"/>
            <path id="Trazado_728383" data-name="Trazado 728383" d="M92.828,269.931h-21.7l-8.255,28.1a2.486,2.486,0,0,0,2.376,3.192H98.706a2.487,2.487,0,0,0,2.377-3.192Z" transform="translate(-21.601 -92.161)" fill="#6fbbef"/>
            <path id="Trazado_728384" data-name="Trazado 728384" d="M88.519,138.611c-.043-.028-8.976,6.553-7.838,15.374,1.289,9.989,7.6,13.04,7.6,13.04h.475s6.312-3.052,7.6-13.04c1.139-8.821-7.8-15.4-7.838-15.374" transform="translate(-27.73 -47.325)" fill="#50b97a"/>
            <path id="Trazado_728385" data-name="Trazado 728385" d="M39.732,183.609c-.047.021.588,11.128,8.578,14.971,9.047,4.351,15.032.7,15.032.7l.258-.4s.886-6.978-6.757-13.5c-6.75-5.76-17.111-1.818-17.111-1.766" transform="translate(-13.672 -62.223)" fill="#50b97a"/>
            <path id="Trazado_728386" data-name="Trazado 728386" d="M126.9,167.157c0-.051-10.589-3.336-16.967,2.837-7.222,6.99-5.9,13.9-5.9,13.9l.282.383s6.2,3.272,14.959-1.639c7.734-4.337,7.676-15.462,7.629-15.48" transform="translate(-35.765 -56.758)" fill="#50b97a"/>
            <line id="Línea_1610" data-name="Línea 1610" y1="90.412" transform="translate(60.789 108.956)" fill="none" stroke="#1e4f1b" stroke-linecap="round" stroke-miterlimit="10" stroke-width="1"/>
            <line id="Línea_1611" data-name="Línea 1611" x1="27.75" y1="18.087" transform="translate(32.874 125.89)" fill="none" stroke="#1e4f1b" stroke-linecap="round" stroke-miterlimit="10" stroke-width="1"/>
            <line id="Línea_1612" data-name="Línea 1612" y1="2.973" x2="6.475" transform="translate(32.23 129.692)" fill="none" stroke="#1e4f1b" stroke-linecap="round" stroke-miterlimit="10" stroke-width="1"/>
            <line id="Línea_1613" data-name="Línea 1613" y2="5.78" transform="translate(45.131 128.1)" fill="none" stroke="#1e4f1b" stroke-linecap="round" stroke-miterlimit="10" stroke-width="1"/>
            <line id="Línea_1614" data-name="Línea 1614" y1="16.766" x2="23.693" transform="translate(60.821 115.899)" fill="none" stroke="#1e4f1b" stroke-linecap="round" stroke-miterlimit="10" stroke-width="1"/>
            <line id="Línea_1615" data-name="Línea 1615" x2="7.551" y2="1.406" transform="translate(73.959 123.368)" fill="none" stroke="#1e4f1b" stroke-linecap="round" stroke-miterlimit="10" stroke-width="1"/>
            <path id="Trazado_728387" data-name="Trazado 728387" d="M103.9,334.588H31.386a4.782,4.782,0,0,1-4.772-4.791v-6.525a4.782,4.782,0,0,1,4.772-4.791H103.9a4.781,4.781,0,0,1,4.772,4.791V329.8a4.781,4.781,0,0,1-4.772,4.791" transform="translate(-9.158 -108.738)" fill="#fff"/>
            <path id="Rectángulo_344634" data-name="Rectángulo 344634" d="M7.275,0H74.784A7.276,7.276,0,0,1,82.06,7.276V8.832a7.275,7.275,0,0,1-7.275,7.275H7.275A7.275,7.275,0,0,1,0,8.832V7.275A7.275,7.275,0,0,1,7.275,0Z" transform="translate(17.456 209.743)" fill="none" stroke="#0f110e" stroke-miterlimit="10" stroke-width="1"/>
            <rect id="Rectángulo_344635" data-name="Rectángulo 344635" width="11.111" height="16.107" transform="translate(28.282 209.743)" fill="#2e4ecc"/>
            <rect id="Rectángulo_344636" data-name="Rectángulo 344636" width="11.111" height="16.107" transform="translate(28.282 209.743)" fill="none" stroke="#0f110e" stroke-miterlimit="10" stroke-width="1"/>
            <rect id="Rectángulo_344637" data-name="Rectángulo 344637" width="11.111" height="16.107" transform="translate(77.358 209.743)" fill="#2e4ecc"/>
            <rect id="Rectángulo_344638" data-name="Rectángulo 344638" width="11.111" height="16.107" transform="translate(77.358 209.743)" fill="none" stroke="#0f110e" stroke-miterlimit="10" stroke-width="1"/>
            <path id="Trazado_728388" data-name="Trazado 728388" d="M113.453,345.89H11.9a1.476,1.476,0,0,1,0-2.951h101.55a1.476,1.476,0,0,1,0,2.951" transform="translate(-3.591 -117.088)" fill="#2e4ecc"/>
            <path id="Trazado_728389" data-name="Trazado 728389" d="M113.453,345.89H11.9a1.476,1.476,0,0,1,0-2.951h101.55a1.476,1.476,0,0,1,0,2.951Z" transform="translate(-3.591 -117.088)" fill="none" stroke="#0f110e" stroke-miterlimit="10" stroke-width="1"/>
            <path id="Trazado_728390" data-name="Trazado 728390" d="M113.453,366.89H11.9a1.476,1.476,0,0,1,0-2.951h101.55a1.476,1.476,0,0,1,0,2.951" transform="translate(-3.591 -124.258)" fill="#2e4ecc"/>
            <path id="Trazado_728391" data-name="Trazado 728391" d="M113.453,366.89H11.9a1.476,1.476,0,0,1,0-2.951h101.55a1.476,1.476,0,0,1,0,2.951Z" transform="translate(-3.591 -124.258)" fill="none" stroke="#0f110e" stroke-miterlimit="10" stroke-width="1"/>
            <path id="Trazado_728392" data-name="Trazado 728392" d="M113.656,345.291H12.954s2.778,3.2.5,13.756h99.705c-2.279-10.557.5-13.756.5-13.756" transform="translate(-4.458 -117.891)" fill="#fff"/>
            <path id="Trazado_728393" data-name="Trazado 728393" d="M113.656,345.291H12.954s2.778,3.2.5,13.756h99.705C110.879,348.49,113.656,345.291,113.656,345.291Z" transform="translate(-4.458 -117.891)" fill="none" stroke="#0f110e" stroke-linecap="round" stroke-linejoin="round" stroke-width="1"/>
            <line id="Línea_1616" data-name="Línea 1616" x2="93.164" transform="translate(12.043 229.912)" fill="none" stroke="#92cdfe" stroke-linecap="round" stroke-linejoin="round" stroke-width="1"/>
            <line id="Línea_1617" data-name="Línea 1617" x2="89.057" transform="translate(13.467 232.236)" fill="none" stroke="#92cdfe" stroke-linecap="round" stroke-linejoin="round" stroke-width="1"/>
            <line id="Línea_1618" data-name="Línea 1618" x2="93.164" transform="translate(12.043 234.561)" fill="none" stroke="#92cdfe" stroke-linecap="round" stroke-linejoin="round" stroke-width="1"/>
            <line id="Línea_1619" data-name="Línea 1619" x2="91.981" transform="translate(12.613 236.885)" fill="none" stroke="#92cdfe" stroke-linecap="round" stroke-linejoin="round" stroke-width="1"/>
            <line id="Línea_1620" data-name="Línea 1620" x2="93.877" transform="translate(11.33 239.209)" fill="none" stroke="#92cdfe" stroke-linecap="round" stroke-linejoin="round" stroke-width="1"/>
            <path id="Trazado_728394" data-name="Trazado 728394" d="M35.3,355.736H42.57l-2.351,3.84-2.083-1.92-4.327,1.92Z" transform="translate(-11.634 -121.457)" fill="#eb3341"/>
            <path id="Trazado_728395" data-name="Trazado 728395" d="M59.088,351.935h7.265L64,355.775l-2.083-1.92-4.327,1.92Z" transform="translate(-19.818 -120.16)" fill="#50b97a"/>
            <path id="Trazado_728396" data-name="Trazado 728396" d="M349.742,324.276H330.267a2.2,2.2,0,0,1-2.191-2.2v-.25a2.2,2.2,0,0,1,2.191-2.2h19.475a2.195,2.195,0,0,1,2.19,2.2v.25a2.195,2.195,0,0,1-2.19,2.2" transform="translate(-112.898 -109.129)" fill="#16004d"/>
            <rect id="Rectángulo_344639" data-name="Rectángulo 344639" width="10.188" height="7.709" transform="translate(222.011 213.332)" fill="#16004d"/>
            <path id="Trazado_728397" data-name="Trazado 728397" d="M370.005,285.709c-1.355-3.325-15.14-23.48-15.14-23.48s-8.451.056-6.582,5.948,6.106,17.344,4.921,24.372c-.745,4.419-2.7,12.629-4.329,15.757l-31.4.075v8.011h53.587s.035-28.009-1.054-30.682" transform="translate(-109.249 -89.532)" fill="#fff"/>
            <path id="Trazado_728398" data-name="Trazado 728398" d="M370.005,285.709c-1.355-3.325-15.14-23.48-15.14-23.48s-8.451.056-6.582,5.948,6.106,17.344,4.921,24.372c-.745,4.419-2.7,12.629-4.329,15.757l-31.4.075v8.011h53.587S371.095,288.382,370.005,285.709Z" transform="translate(-109.249 -89.532)" fill="none" stroke="#16004d" stroke-miterlimit="10" stroke-width="1"/>
            <path id="Trazado_728399" data-name="Trazado 728399" d="M369.265,237.06l-2.795-1.415a1.409,1.409,0,0,1-.62-1.888l2.315-4.609a1.4,1.4,0,0,1,1.88-.622l2.794,1.415a1.408,1.408,0,0,1,.62,1.888l-2.314,4.609a1.4,1.4,0,0,1-1.88.622" transform="translate(-125.845 -77.973)" fill="#6fbbef"/>
            <path id="Trazado_728400" data-name="Trazado 728400" d="M364.385,245.947l-4.657-2.358a1.73,1.73,0,0,1-.762-2.319l3.67-7.308a1.717,1.717,0,0,1,2.31-.765l4.657,2.358a1.729,1.729,0,0,1,.761,2.319l-3.67,7.308a1.717,1.717,0,0,1-2.31.765" transform="translate(-123.465 -79.556)" fill="#16004d"/>
            <path id="Trazado_728401" data-name="Trazado 728401" d="M339.763,296.051l-4.945-2.5a2.439,2.439,0,0,1-1.074-3.27l1.545-3.076a2.42,2.42,0,0,1,3.256-1.077l4.945,2.5a2.439,2.439,0,0,1,1.073,3.269l-1.544,3.076a2.42,2.42,0,0,1-3.256,1.077" transform="translate(-114.759 -97.601)" fill="#16004d"/>
            <path id="Trazado_728402" data-name="Trazado 728402" d="M343.1,278.233l-9.329-4.723a3.072,3.072,0,0,1-1.352-4.119L346.375,241.6a3.048,3.048,0,0,1,4.1-1.358l9.33,4.723a3.073,3.073,0,0,1,1.352,4.12l-13.954,27.79a3.049,3.049,0,0,1-4.1,1.358" transform="translate(-114.28 -81.912)" fill="#fff"/>
            <path id="Trazado_728403" data-name="Trazado 728403" d="M343.1,278.233l-9.329-4.723a3.072,3.072,0,0,1-1.352-4.119L346.375,241.6a3.048,3.048,0,0,1,4.1-1.358l9.33,4.723a3.073,3.073,0,0,1,1.352,4.12l-13.954,27.79A3.049,3.049,0,0,1,343.1,278.233Z" transform="translate(-114.28 -81.912)" fill="none" stroke="#16004d" stroke-miterlimit="10" stroke-width="1"/>
            <path id="Trazado_728404" data-name="Trazado 728404" d="M371.7,265.981a6.8,6.8,0,1,1-3.008-9.163,6.781,6.781,0,0,1,3.008,9.163" transform="translate(-123.483 -87.435)" fill="#2e4ecc"/>
            <path id="Trazado_728405" data-name="Trazado 728405" d="M370.79,266.151a4.332,4.332,0,1,1-1.916-5.836A4.32,4.32,0,0,1,370.79,266.151Z" transform="translate(-124.777 -88.719)" fill="none" stroke="#161522" stroke-miterlimit="10" stroke-width="1"/>
            <path id="Trazado_728406" data-name="Trazado 728406" d="M370.6,347.444H314.377a3.354,3.354,0,0,1-3.348-3.361V343.7a3.354,3.354,0,0,1,3.348-3.361H370.6a3.354,3.354,0,0,1,3.348,3.361v.381a3.354,3.354,0,0,1-3.348,3.361" transform="translate(-107.032 -116.201)" fill="#16004d"/>
            <path id="Trazado_728407" data-name="Trazado 728407" d="M366.626,345.734H312.414s-7.827,8.691-8.73,15.492h71.672c-.9-6.8-8.73-15.492-8.73-15.492" transform="translate(-104.504 -118.043)" fill="#16004d"/>
            <g id="Grupo_984139" data-name="Grupo 984139" transform="translate(41.169 153.525)" opacity="0.3">
              <g id="Grupo_984138" data-name="Grupo 984138">
                <g id="Grupo_984137" data-name="Grupo 984137" clip-path="url(#clip-path-4)">
                  <path id="Trazado_728408" data-name="Trazado 728408" d="M101.082,285.459,89.514,246.085a2.491,2.491,0,0,1-.1-.7V233.117H74.541V245.38a2.514,2.514,0,0,1-.1.7L62.872,285.459a2.486,2.486,0,0,0,2.377,3.192H98.705a2.486,2.486,0,0,0,2.377-3.192" transform="translate(-62.77 -233.117)" fill="#fff"/>
                </g>
              </g>
            </g>
            <path id="Trazado_728409" data-name="Trazado 728409" d="M101.082,285.459,89.514,246.085a2.491,2.491,0,0,1-.1-.7V233.117H74.541V245.38a2.514,2.514,0,0,1-.1.7L62.872,285.459a2.486,2.486,0,0,0,2.377,3.192H98.705A2.486,2.486,0,0,0,101.082,285.459Z" transform="translate(-21.6 -79.592)" fill="none" stroke="#2e4ecc" stroke-miterlimit="10" stroke-width="1"/>
            <line id="Línea_1621" data-name="Línea 1621" x2="9.332" transform="translate(66.06 193.504)" fill="none" stroke="#2e4ecc" stroke-linecap="round" stroke-miterlimit="10" stroke-width="1"/>
            <line id="Línea_1622" data-name="Línea 1622" x2="10.529" transform="translate(63.817 188.605)" fill="none" stroke="#2e4ecc" stroke-linecap="round" stroke-miterlimit="10" stroke-width="1"/>
            <line id="Línea_1623" data-name="Línea 1623" x2="7.284" transform="translate(65.063 182.638)" fill="none" stroke="#2e4ecc" stroke-linecap="round" stroke-miterlimit="10" stroke-width="1"/>
            <g id="Grupo_984142" data-name="Grupo 984142" transform="translate(49.412 147.554)" opacity="0.4">
              <g id="Grupo_984141" data-name="Grupo 984141">
                <g id="Grupo_984140" data-name="Grupo 984140" clip-path="url(#clip-path-5)">
                  <path id="Trazado_728410" data-name="Trazado 728410" d="M94.431,229.877H78.173a2.842,2.842,0,0,1-2.837-2.848v-.13a2.843,2.843,0,0,1,2.837-2.848H94.431a2.843,2.843,0,0,1,2.837,2.848v.13a2.842,2.842,0,0,1-2.837,2.848" transform="translate(-75.336 -224.051)" fill="#fff"/>
                </g>
              </g>
            </g>
            <rect id="Rectángulo_344642" data-name="Rectángulo 344642" width="21.931" height="5.826" rx="2.913" transform="translate(49.411 147.554)" fill="none" stroke="#2e4ecc" stroke-miterlimit="10" stroke-width="1"/>
            <path id="Trazado_728411" data-name="Trazado 728411" d="M274.808,368.3H11.915c-3.551,0-7.107-.063-10.657,0-.155,0-.311,0-.466,0a.824.824,0,0,0,0,1.646H263.685c3.55,0,7.107.063,10.657,0,.155,0,.31,0,.466,0a.824.824,0,0,0,0-1.646" transform="translate(0 -125.736)" fill="#161522"/>
          </g>
        </g>
      </g>
    </g>
  </g>
</svg>
