<svg xmlns="http://www.w3.org/2000/svg" xmlns:xlink="http://www.w3.org/1999/xlink" width="62" height="62" viewBox="0 0 62 62">
  <defs>
    <clipPath id="clip-path">
      <rect id="Rect치ngulo_344816" data-name="Rect치ngulo 344816" width="51.117" height="50.972" fill="none"/>
    </clipPath>
  </defs>
  <g id="Grupo_984395" data-name="Grupo 984395" transform="translate(-244 -5274)">
    <g id="Grupo_983967" data-name="Grupo 983967" transform="translate(0 -5149)">
      <g id="Rect치ngulo_340676" data-name="Rect치ngulo 340676" transform="translate(244 10423)" fill="none" stroke="#39a900" stroke-width="3">
        <rect width="62" height="62" rx="7" stroke="none"/>
        <rect x="1.5" y="1.5" width="59" height="59" rx="5.5" fill="none"/>
      </g>
    </g>
    <g id="Grupo_984562" data-name="Grupo 984562" transform="translate(249 5280)">
      <g id="Grupo_984561" data-name="Grupo 984561" clip-path="url(#clip-path)">
        <path id="Trazado_728776" data-name="Trazado 728776" d="M47.13,40.934c-.227-.863-.229-.869.58-1.1a18.84,18.84,0,0,1,11.9.37c.471.169.682.335.374.811a.986.986,0,0,0-.079.248c-.043.721-.194.851-.863.707a1.085,1.085,0,0,0-.672.065c-.7.293-1.4.6-2.112.864a.642.642,0,0,0-.478.673q.015,1.194,0,2.388c0,.357.136.451.486.413,1.9-.209,3.8-.408,5.69-.641a1.5,1.5,0,0,1,1.4.449c.29.31.618.586.9.905a8.268,8.268,0,0,0,3.017,2.194c.4.173.743.3,1.129.015A.532.532,0,0,1,68.8,49.2c.745-.37.745-.37,1.12.4A18.7,18.7,0,0,1,56.7,76.052a18.337,18.337,0,0,1-14.964-3.494c-.731-.543-.726-.55-.221-1.263.3-.733.554-.8,1.166-.323a17.983,17.983,0,0,0,1.971,1.343.726.726,0,0,0,.793.032c.5-.271,1.012-.507,1.517-.763a1.493,1.493,0,0,0,.43-.305c.483-.518.485-.516,1.088-.151.061.037.122.072.182.11.77.489.743.475.3,1.253-.318.563-.908.7-1.386,1.02.034.2.208.179.327.222.566.206,1.161.312,1.739.477.41.117.532-.039.553-.434.028-.528.123-1.053.192-1.578a1.242,1.242,0,0,1,.744-1.018c.777-.383,1.545-.787,2.329-1.156a2.809,2.809,0,0,0,1.126-.932c.576-.8,1.181-1.59,1.779-2.38s1.171-.833,1.9-.134c.217.208.441.411.636.64a.882.882,0,0,0,1.042.271c1.456-.441,2.93-.821,4.382-1.271A1.422,1.422,0,0,1,66,66.652c.173.2.384.368.558.567.2.234.319.169.475-.062a16.969,16.969,0,0,0,2.815-7.748,17.57,17.57,0,0,0-.447-5.942,1.861,1.861,0,0,0-1.209-1.53c-.447-.159-.846-.445-1.286-.629a11.05,11.05,0,0,1-4.4-3.137,1.066,1.066,0,0,0-1.035-.386c-2.035.245-4.075.444-6.11.692-1.127.137-1.552-.2-1.556-1.335q-.005-2.122,0-4.245c0-1,.113-1.166,1.04-1.544.213-.087.427-.17.713-.29a15.618,15.618,0,0,0-4.008-.1,1.964,1.964,0,0,0,.479.688,1.125,1.125,0,0,1,.194,1.369q-2.475,4.962-4.958,9.92a1.168,1.168,0,0,1-1.154.688c-.813-.007-1.627-.005-2.441,0-.572,0-.608.043-.62.594-.017.813-.01.871.815.8a5.561,5.561,0,0,1,3.486.831,9.315,9.315,0,0,0,1.471.734,1.481,1.481,0,0,1,1.029,1.7,11.487,11.487,0,0,0-.006,1.22,1.523,1.523,0,0,0,.077.522c.272.747.271.747-.385,1.206-.844.552-1,.5-1.5-.387a2.007,2.007,0,0,1-.169-1.294c.132-.921-.274-1.37-1.082-1.78a5.985,5.985,0,0,0-3.347-.757,8.959,8.959,0,0,1-1.325,0,.978.978,0,0,1-1.04-1.036q-.051-1.643,0-3.289a.983.983,0,0,1,1.085-1.046c.972-.028,1.945-.019,2.917,0a.854.854,0,0,0,.876-.533q1.982-3.991,3.986-7.971a.792.792,0,0,0-.08-.967c-.667-.839-.653-.85-1.782-.5-.741.227-.955.061-.944-.732" transform="translate(-26.756 -25.449)"/>
        <path id="Trazado_728777" data-name="Trazado 728777" d="M37.69,44.479c.341.75.359.8,1.124.5a1.218,1.218,0,0,1,1.6.461,1.125,1.125,0,0,1,.15,1.466c-1.366,2.655-2.691,5.33-4.013,8.007a.636.636,0,0,1-.681.426c-1.025-.027-2.052-.014-3.078-.008-.727,0-1.024.3-1.028,1.038q-.008,1.513,0,3.026c0,.727.3,1.021,1.036,1.03.177,0,.354,0,.531,0,2.6,0,2.6.006,4.872,1.184a.566.566,0,0,1,.359.617c-.023.388.034.783-.014,1.166a2.24,2.24,0,0,0,.574,1.546c.127.193.241.147.389.047s.33-.2.495-.3a5.128,5.128,0,0,1,1.128,1.561.2.2,0,0,1-.105.307,1.589,1.589,0,0,1-.579-.015A3.266,3.266,0,0,0,37.111,69c-.118.5-.043.573.478.613a.85.85,0,0,0,1.01-.6,1.773,1.773,0,0,1,2.145-1.023A1.881,1.881,0,0,1,42.1,69.861,1.851,1.851,0,0,1,40.453,71.6a3.9,3.9,0,0,1-.477.019q-5.119,0-10.238,0c-.256,0-.538.066-.744-.172l-1-1.655c.189-.227.453-.164.692-.165,1.291-.008,2.583.016,3.873-.01A3.157,3.157,0,0,0,35.513,67.8a3.1,3.1,0,0,0-.292-3.357,3.26,3.26,0,0,0-3.278-1.257,3.32,3.32,0,0,0-2.517,2.529c-.065.347.038.5.394.5.844.006.916-.007,1.147-.624a1.759,1.759,0,0,1,2.107-1.006A1.881,1.881,0,0,1,34.447,66.5a1.81,1.81,0,0,1-1.68,1.693c-.882.061-1.768.014-2.652.019-.53,0-1.064.034-1.591-.009a.859.859,0,0,0-1.027.563,12.941,12.941,0,0,1-.931-2.376.444.444,0,0,1,.269-.24c.266-.118.295-.321.231-.572-.091-.36-.143-.729-.232-1.089a.929.929,0,0,1,.287-.957c.767-.757,1.517-1.531,2.292-2.28a1.548,1.548,0,0,0,.517-1.218c-.022-1.183,0-2.368-.009-3.551,0-.691-.126-.856-.78-1.083-.5-.174-1.008-.331-1.507-.507-.2-.069-.418-.107-.512-.336l.413-.93c.311-.248.68-.142,1.024-.149s.491-.143.514-.5c.032-.5-.046-.9-.587-1.066a14.264,14.264,0,0,1,1.132-1.654c.165-.213.409-.187.629-.179.4.014.519-.177.515-.545,0-.27-.072-.569.176-.789A17.946,17.946,0,0,1,34.293,46.1c.176.574.612.621,1.119.582.311-.024.432-.151.449-.456.021-.361-.1-.747.152-1.076a11.216,11.216,0,0,1,1.677-.673" transform="translate(-17.317 -28.994)" fill="#9fcb00"/>
        <path id="Trazado_728778" data-name="Trazado 728778" d="M92.017,17.887a3.124,3.124,0,0,0,.018-1.106,2.356,2.356,0,0,1,.932-2.086.316.316,0,0,0,.121-.471,5.05,5.05,0,0,1-.4-1.531c-.061-.465-.376-.606-.75-.3a8.938,8.938,0,0,0-.7.727,2.383,2.383,0,0,1-3.675-.076c-.163-.184-.2-.293.016-.448a3.593,3.593,0,0,0,.566-.479c.3-.331.548-.454.9-.029a.559.559,0,0,0,.852-.039c.193-.18.365-.385.539-.584a2.388,2.388,0,0,1,2.209-.892c.261.036.343-.06.417-.263A4.656,4.656,0,0,1,93.857,9c.1-.13.3-.234.175-.447a.589.589,0,0,0-.509-.331c-.336,0-.672.021-1.007.026a2.361,2.361,0,0,1-2.51-2.624c.015-.252.047-.4.356-.324a2.839,2.839,0,0,0,.686.051c.429-.007.738.042.681.62-.037.367.259.564.625.571s.707-.023,1.06-.025a2.236,2.236,0,0,1,1.855.857c.18.228.3.311.593.168a4.543,4.543,0,0,1,1.482-.374c.43-.054.571-.31.331-.672a3.062,3.062,0,0,0-.512-.532c-1.48-1.349-1.471-2.784.058-4.116.322.372.64.748.969,1.114.136.151.053.227-.053.344-.512.569-.511.826.071,1.307a2.69,2.69,0,0,1,1.225,2.638c-.042.246.162.247.289.3a5.356,5.356,0,0,1,1.269.756c.142.111.252.343.488.2a.621.621,0,0,0,.328-.568c-.011-.318-.026-.636-.032-.955a2.363,2.363,0,0,1,2.635-2.5c.271.017.378.077.311.367a2.637,2.637,0,0,0-.047.634c.008.438-.012.786-.631.724-.365-.037-.557.267-.562.632,0,.318.017.636.026.954a2.3,2.3,0,0,1-.9,1.993c-.209.161-.25.28-.138.512a4.907,4.907,0,0,1,.384,1.48c.023.163-.054.38.183.447a.578.578,0,0,0,.593-.135c.238-.236.459-.49.692-.732a2.383,2.383,0,0,1,3.673.113c.143.166.191.267-.009.409-.158.112-.3.252-.447.375-.342.277-.63.749-1.112.113-.2-.263-.562-.141-.8.093-.2.2-.383.415-.574.625a2.352,2.352,0,0,1-2.126.84.356.356,0,0,0-.458.28,4.579,4.579,0,0,1-.788,1.309c-.289.354-.152.706.322.755A8.043,8.043,0,0,0,103,16.249a2.357,2.357,0,0,1,2.541,2.593c-.011.276-.045.441-.379.35a1.939,1.939,0,0,0-.475-.04c-.473-.007-.961.059-.881-.7.03-.292-.26-.488-.584-.494-.283,0-.566.006-.848.022a2.366,2.366,0,0,1-2.178-.956c-.141-.192-.258-.175-.433-.095a5.172,5.172,0,0,1-1.532.394c-.473.058-.624.369-.321.743a8.132,8.132,0,0,0,.725.7,2.384,2.384,0,0,1-.052,3.677c-.207.188-.325.193-.482-.034a3.333,3.333,0,0,0-.411-.485c-.324-.316-.561-.581-.056-.988.277-.224.172-.592-.083-.848-.212-.213-.446-.4-.664-.609a2.329,2.329,0,0,1-.794-2.042c.033-.279-.026-.412-.29-.5a4.435,4.435,0,0,1-1.268-.754c-.13-.1-.231-.306-.445-.191a.6.6,0,0,0-.349.552c0,.3.008.6.028.9a3.327,3.327,0,0,1-.257,1.393,1.852,1.852,0,0,1-1.649,1.283c-1.026.187-1.157.05-1.139-.977.014-.789.013-.791.758-1.019.187-.057.345-.179.535-.229" transform="translate(-56.997 -1.203)"/>
        <path id="Trazado_728779" data-name="Trazado 728779" d="M12.248,14.44c-2.159,0-4.317.017-6.476-.006a3.387,3.387,0,0,1-3.3-2.953A3.282,3.282,0,0,1,4.818,7.847a1.442,1.442,0,0,0,1.26-1.166A2.222,2.222,0,0,1,8,5.138c.286-.049.4-.093.422-.423a5.087,5.087,0,1,1,10.136.879c-.023.277.014.346.3.372a4.243,4.243,0,0,1-.4,8.475c-2.07.007-4.14,0-6.21,0Z" transform="translate(-1.591 0)"/>
        <path id="Trazado_728780" data-name="Trazado 728780" d="M89.091,46.285a.593.593,0,0,1-.7.422c-.347-.04-.427.133-.428.424a2.822,2.822,0,0,1-.041.686c-.13.509.076.611.549.6a2.553,2.553,0,0,0,2.115-1.194A17.915,17.915,0,0,1,95.936,53.1c.052.091.122.172.182.257-.23.186-.542.238-.744.479-.151.181-.286-.022-.416-.071a10,10,0,0,1-4.083-3.016,1.87,1.87,0,0,0-1.9-.69c-1.851.281-3.721.429-5.58.653-.362.044-.451-.054-.442-.405q.033-1.379,0-2.759a.479.479,0,0,1,.366-.539c.726-.277,1.446-.571,2.155-.886a1.123,1.123,0,0,1,1.145-.056c.206.13.312.034.383-.174a4.534,4.534,0,0,1,.224-.478,14.214,14.214,0,0,1,1.869.874" transform="translate(-54.07 -29.601)" fill="#9fcb00"/>
        <path id="Trazado_728781" data-name="Trazado 728781" d="M30.71,112.447l8.647.022c.849,0,1.7.008,2.547,0a1.7,1.7,0,0,0,.321-3.378,1.671,1.671,0,0,0-1.9,1.317c-.074.315-.193.4-.484.37a3.811,3.811,0,0,0-.794,0c-.419.052-.515-.107-.449-.5a3.406,3.406,0,0,1,4.039-2.826,1.923,1.923,0,0,0,.21.017,2.307,2.307,0,0,1,1.87,1.1,3.386,3.386,0,0,1,.42,3.723,3.538,3.538,0,0,1-3.428,2.03c-3,.044-5.99.011-8.985.019a1.324,1.324,0,0,1-.61-.148c-.825-.007-1.65-.027-2.475-.015-.3,0-.453-.034-.418-.389.04-.416-.132-.959.075-1.223.22-.282.787-.056,1.2-.093l.209-.022" transform="translate(-19.032 -70)"/>
        <path id="Trazado_728782" data-name="Trazado 728782" d="M24.133,73.411c.717.247,1.429.513,2.154.736a1,1,0,0,1,.8,1.087c-.018,1.274-.015,2.548,0,3.821a1.273,1.273,0,0,1-.412.988c-.834.817-1.646,1.657-2.485,2.469a.651.651,0,0,0-.217.741c.112.37.119.777.26,1.133.2.5.037.715-.456.778a.836.836,0,0,0-.2.079c-.858.207-.851.206-1.065-.691a18.664,18.664,0,0,1,.425-10.329c.238-.728.444-.865,1.2-.812" transform="translate(-14.327 -47.847)"/>
        <path id="Trazado_728783" data-name="Trazado 728783" d="M29.242,103.377c.044-.7.044-.7.762-.7,1.467,0,2.934.016,4.4-.009a1.677,1.677,0,0,0,1.648-1.775,1.707,1.707,0,0,0-1.819-1.608,1.648,1.648,0,0,0-1.52,1.332c-.071.322-.2.388-.487.366a3.931,3.931,0,0,0-.794,0c-.423.054-.512-.113-.446-.5a3.4,3.4,0,0,1,6.764.707,3.4,3.4,0,0,1-3.4,3.186c-1.537.015-3.074.016-4.61.023-.365.035-.551-.088-.479-.494a2.527,2.527,0,0,0-.015-.524" transform="translate(-19.062 -63.604)"/>
        <path id="Trazado_728784" data-name="Trazado 728784" d="M2.817,114.139c-.814,0-1.628-.014-2.441.008-.312.009-.37-.1-.373-.386-.014-1.32-.023-1.319,1.29-1.32,1.291,0,2.583.019,3.874-.01A1.678,1.678,0,0,0,6.8,110.642a1.709,1.709,0,0,0-1.834-1.592,1.675,1.675,0,0,0-1.524,1.4c-.054.252-.129.315-.365.3a5.823,5.823,0,0,0-.954,0c-.366.038-.445-.1-.4-.439a3.4,3.4,0,0,1,6.773.581,3.4,3.4,0,0,1-3.347,3.245c-.778.014-1.557,0-2.335,0" transform="translate(0 -69.972)"/>
        <path id="Trazado_728785" data-name="Trazado 728785" d="M37.592,126.919l9.724,0a3.048,3.048,0,0,1-1.03,1.66,1.452,1.452,0,0,1-.231-.12c-.315-.244-.6-.37-.781.14-.086.238-.332.3-.532.4a6.089,6.089,0,0,0-.844.433,1.6,1.6,0,0,1-2.2-.107c-.458-.382-.994-.673-1.442-1.065-.342-.3-.548-.264-.769.1a1.3,1.3,0,0,1-.22.219,13.177,13.177,0,0,1-1.674-1.656" transform="translate(-24.505 -82.73)" fill="#9fcb00"/>
        <path id="Trazado_728786" data-name="Trazado 728786" d="M21.244,66.757c0,.818,0,.818-.828.818-.871,0-.871,0-.871-.88,0-.818,0-.818.828-.818.871,0,.871,0,.871.88" transform="translate(-12.74 -42.942)"/>
        <path id="Trazado_728787" data-name="Trazado 728787" d="M30.247,65.818a3.583,3.583,0,0,0,.422.018c.219-.015.34.051.308.291a.335.335,0,0,0,0,.053c.067,1.357.067,1.357-1.258,1.357H29.3c-.006-.418.014-.839-.024-1.254-.034-.37.086-.5.454-.45a2.94,2.94,0,0,0,.521-.015" transform="translate(-19.077 -42.904)"/>
        <path id="Trazado_728788" data-name="Trazado 728788" d="M11.486,66.771c0,.8,0,.8-.788.8-.91,0-.91,0-.91-.894,0-.8,0-.8.788-.8.91,0,.91,0,.91.894" transform="translate(-6.38 -42.942)"/>
        <path id="Trazado_728789" data-name="Trazado 728789" d="M35.81,56.237c-.007.366-.041.733-.014,1.1.025.34-.111.418-.418.4s-.591.01-.887.018-.462-.057-.407-.411c.067-.428-.2-1.068.1-1.246.368-.217.956-.057,1.449-.065.155,0,.15.112.173.21" transform="translate(-22.189 -36.49)"/>
        <path id="Trazado_728790" data-name="Trazado 728790" d="M25.225,57.818c-.8,0-.8,0-.8-.792,0-.907,0-.907.9-.907.8,0,.8,0,.8.792,0,.907,0,.907-.9.907" transform="translate(-15.921 -36.581)"/>
        <path id="Trazado_728791" data-name="Trazado 728791" d="M15.472,57.818c-.807,0-.807,0-.807-.838,0-.86,0-.86.838-.86.86,0,.86,0,.86.838,0,.86,0,.86-.891.86" transform="translate(-9.559 -36.581)"/>
        <path id="Trazado_728792" data-name="Trazado 728792" d="M50.481,46.38c0,.459-.01.919,0,1.378.006.226-.065.323-.3.306-.211-.016-.424,0-.636,0-.742,0-.742,0-.786-.73.06-.968.06-.969,1.041-.967.227,0,.453.011.68.017" transform="translate(-31.784 -30.222)"/>
        <path id="Trazado_728793" data-name="Trazado 728793" d="M39.952,48.06c-.891,0-.891,0-.891-.913,0-.785,0-.785.807-.785.892,0,.892,0,.892.913,0,.785,0,.785-.807.785" transform="translate(-25.462 -30.221)"/>
        <path id="Trazado_728794" data-name="Trazado 728794" d="M30.174,46.361c.828,0,.828,0,.828.818,0,.88,0,.88-.871.88-.827,0-.827,0-.827-.818,0-.88,0-.88.871-.88" transform="translate(-19.101 -30.221)"/>
        <path id="Trazado_728795" data-name="Trazado 728795" d="M21.244,47.235c0,.824,0,.824-.822.824-.877,0-.877,0-.877-.875,0-.824,0-.824.822-.824.877,0,.877,0,.877.875" transform="translate(-12.74 -30.22)"/>
        <path id="Trazado_728796" data-name="Trazado 728796" d="M11.486,47.235c0,.824,0,.824-.822.824-.877,0-.877,0-.877-.875,0-.824,0-.824.822-.824.877,0,.877,0,.877.875" transform="translate(-6.38 -30.22)"/>
        <path id="Trazado_728797" data-name="Trazado 728797" d="M51.99,74.47l1.029-1.66a3.422,3.422,0,0,0,1.008-6.72L52.9,64.31a1.923,1.923,0,0,1,.295-.22c.316-.156.414-.344.138-.627a.823.823,0,0,1-.186-.639c.009-.6,0-1.2,0-1.8a.908.908,0,0,0-.524-.9c-1.089-.544-2.175-1.093-3.264-1.637a3.483,3.483,0,0,0-1.411-.125c-.105-.007-.212,0-.318,0-1.318,0-1.307,0-1.286-1.329,0-.306.1-.382.389-.376.937.017,1.875-.007,2.812.012a1.037,1.037,0,0,0,1.052-.637q2.451-4.931,4.925-9.85a1.016,1.016,0,0,0-.184-1.3c-.239-.251-.453-.527-.715-.836a16.123,16.123,0,0,1,4.766.113,5.43,5.43,0,0,1-1.3.6,1,1,0,0,0-.7,1.052c.015,1.521,0,3.042.006,4.563,0,.978.345,1.266,1.3,1.154,2.176-.252,4.356-.48,6.532-.733a.6.6,0,0,1,.6.213,12.332,12.332,0,0,0,4.991,3.547c.325.134.616.363.949.466a1.732,1.732,0,0,1,1.177,1.451,17.157,17.157,0,0,1-2.711,14.511c-.375-.423-.71-.8-1.048-1.183A1.041,1.041,0,0,0,68,69.483c-1.587.477-3.186.914-4.775,1.384a.672.672,0,0,1-.825-.208,10.943,10.943,0,0,0-.856-.868c-.581-.566-1.059-.534-1.545.106-.672.887-1.348,1.773-2,2.673a2.037,2.037,0,0,1-.8.657c-.827.4-1.636.831-2.467,1.221a1.144,1.144,0,0,0-.753,1.045c-.036.581-.147,1.157-.2,1.737-.03.307-.121.422-.46.349a19.278,19.278,0,0,1-2.732-.782,2.144,2.144,0,0,1,.771-.449,2.389,2.389,0,0,0,1.117-1c.219-.349.182-.514-.175-.665a1.7,1.7,0,0,1-.3-.213" transform="translate(-30.208 -28.626)" fill="#65dbfe"/>
        <path id="Trazado_728798" data-name="Trazado 728798" d="M73.727,129.187c-1.314-.012-1.272-.008-1.13-1.3a1.106,1.106,0,0,1,.8-1.071,7.661,7.661,0,0,0,4.108-3.388c.392-.652.485-.646.976-.072a1.551,1.551,0,0,0,1.908.522c1.368-.466,2.788-.775,4.162-1.222a.992.992,0,0,1,1.227.32c.472.537.509.524,0,1.036a16.753,16.753,0,0,1-10.575,5.058c-.492.048-.986.076-1.479.113" transform="translate(-47.278 -79.901)" fill="#9fcb00"/>
        <path id="Trazado_728799" data-name="Trazado 728799" d="M40.76,66.743c0,.832,0,.832-1.039.832-.66,0-.66,0-.66-1.052,0-.647,0-.647,1.065-.647.633,0,.633,0,.633.867" transform="translate(-25.462 -42.942)"/>
        <path id="Trazado_728800" data-name="Trazado 728800" d="M54.526,56.119c.872,0,.872,0,.872.893,0,.805,0,.805-.8.805-.9,0-.9,0-.9-.92,0-.779,0-.779.827-.779" transform="translate(-35.004 -36.581)"/>
        <path id="Trazado_728801" data-name="Trazado 728801" d="M43.94,56.933c0-.814,0-.814.845-.814s.854,0,.854.858c0,.84,0,.84-.818.84-.88,0-.88,0-.88-.885" transform="translate(-28.642 -36.581)"/>
        <path id="Trazado_728802" data-name="Trazado 728802" d="M50.518,66.751c0,.825,0,.825-1.046.825-.653,0-.653,0-.652-1.059,0-.64,0-.64,1.073-.639.626,0,.626,0,.626.874" transform="translate(-31.823 -42.942)"/>
        <path id="Trazado_728803" data-name="Trazado 728803" d="M114.163,25.388a3.4,3.4,0,1,1-3.383-3.422,3.4,3.4,0,0,1,3.383,3.422" transform="translate(-69.991 -14.319)" fill="#f1e268"/>
        <path id="Trazado_728804" data-name="Trazado 728804" d="M15.461,15.934c-2.14,0-4.28.009-6.42,0a1.7,1.7,0,0,1-.393-3.346,1.628,1.628,0,0,1,1.792.723c.193.322.368.352.667.2a5.175,5.175,0,0,1,.6-.216c.6-.211.6-.212.267-.775a4,4,0,0,0-.914-1.02.841.841,0,0,1,.068-1.362.556.556,0,0,1,.919.258c.485,1.02.476,1.006,1.391.349.37-.266.522-.432.242-.934a3.329,3.329,0,0,1,1.173-4.374,3.4,3.4,0,0,1,4.451.694,3.343,3.343,0,0,1-.2,4.529c-.311.306-.355.5-.049.793a2.244,2.244,0,0,1,.225.295c.5.669.481.649,1.084.083.347-.326.465-.9,1.055-.968a2.625,2.625,0,0,1,1.588.3,2.543,2.543,0,0,1-1.174,4.773c-2.122.018-4.245.005-6.367.006" transform="translate(-4.787 -3.192)" fill="#65dbfe"/>
        <path id="Trazado_728805" data-name="Trazado 728805" d="M26.878,84.176a16.453,16.453,0,0,1,.617-4.982c.029-.1.04-.2.189-.205a.845.845,0,0,1,.883.83,5.343,5.343,0,0,0,.011,1.11c.336,1.541-.62,2.389-1.7,3.246" transform="translate(-17.515 -51.489)" fill="#64dbfe"/>
        <path id="Trazado_728806" data-name="Trazado 728806" d="M88.02,82.42c1.338-.52,1.331-.52,1.333.922,0,.271-.042.425-.332.538a2.625,2.625,0,0,0-.663.517,2.494,2.494,0,0,1-3.382.014c-.135-.114-.259-.241-.394-.355a.808.808,0,0,0-1.226,0c-.163.135-.314.287-.478.421a2.487,2.487,0,0,1-3.217-.015c-.177-.147-.341-.309-.518-.455a.784.784,0,0,0-1.1,0c-.2.169-.393.357-.6.519a2.489,2.489,0,0,1-3.135-.039c-.313-.251-.55-.609-.98-.7-.15-.031-.107-.16-.109-.257-.006-.248,0-.5,0-.743,0-.791.058-.831.826-.566a3.118,3.118,0,0,1,1.17.8c.205.205.323.171.473-.066a4.057,4.057,0,0,0,.574-2.844.758.758,0,0,0-.443-.592,3.382,3.382,0,0,1,3-6.057.764.764,0,0,0,.691.006,3.137,3.137,0,0,1,2.716,0,.768.768,0,0,0,.691-.008,3.382,3.382,0,0,1,4.614,3.993,1.074,1.074,0,0,0,.093.844,5.973,5.973,0,0,1,.409,4.12" transform="translate(-47.721 -47.687)"/>
        <path id="Trazado_728807" data-name="Trazado 728807" d="M97.446,79.793a1.641,1.641,0,0,1,.316-.014c.366.053.532-.06.622-.46a1.6,1.6,0,0,1,1.583-1.24,1.71,1.71,0,0,1,1.607,1.089,1.69,1.69,0,0,1-.507,1.916,1.625,1.625,0,0,1-2.014.087,1.117,1.117,0,0,0-1.264-.212.87.87,0,0,1-.342-1.167" transform="translate(-63.461 -50.896)" fill="#e5e5e5"/>
        <path id="Trazado_728808" data-name="Trazado 728808" d="M87.688,79.844a.753.753,0,0,1,.156-.015c.428.047.691,0,.814-.55a1.57,1.57,0,0,1,1.954-1.086,4.147,4.147,0,0,0-.372,1.619,7.516,7.516,0,0,1,.368,1.342c.068.219-.076.312-.269.35a1.443,1.443,0,0,1-1.133-.341,1.014,1.014,0,0,0-1.176-.153.87.87,0,0,1-.343-1.167" transform="translate(-57.101 -50.947)" fill="#e5e5e5"/>
        <path id="Trazado_728809" data-name="Trazado 728809" d="M82.335,81.511a1.685,1.685,0,1,1,.271-3.32,4.3,4.3,0,0,0-.37,1.624,7.5,7.5,0,0,1,.368,1.343c.068.22-.08.31-.269.352" transform="translate(-52.494 -50.951)" fill="#e4e4e4"/>
        <path id="Trazado_728810" data-name="Trazado 728810" d="M88.75,92.754a4.682,4.682,0,0,1-.046.583,2.025,2.025,0,0,1-.249.851c-.206.248-.5-.106-.767-.087a.336.336,0,0,1-.105-.01c-.319-.084-.768.207-.922-.032-.141-.219.036-.641.071-.973.006-.053,0-.106,0-.159.01-1.06.01-1.06,1.016-1.353a.866.866,0,0,1,.919.553c.044.224.059.454.08.627" transform="translate(-56.455 -59.682)" fill="#3ea6fd"/>
        <path id="Trazado_728811" data-name="Trazado 728811" d="M107.781,90.986a3.958,3.958,0,0,1-.2,3.335c-.093.183-.188.234-.339.069a.133.133,0,0,0-.041-.033,1.42,1.42,0,0,1-.905-1.725c.086-.725.084-1.265.94-1.38a2,2,0,0,0,.541-.266" transform="translate(-69.277 -59.31)" fill="#3ea6fd"/>
        <path id="Trazado_728812" data-name="Trazado 728812" d="M98.005,92.744c.17,1.2-.593,1.846-1.433,2.442-.142.1-.338.2-.487.075-.125-.107.037-.253.084-.373a5.693,5.693,0,0,0,.385-2.742c-.068-.624.523-.433.791-.611.234-.155.5.054.545.375.043.277.077.556.115.833" transform="translate(-62.603 -59.634)" fill="#3ea6fd"/>
        <path id="Trazado_728813" data-name="Trazado 728813" d="M85.509,84.606c.216-.121.174-.286.106-.481a2.73,2.73,0,0,1-.2-1.214l.845.032A1.85,1.85,0,0,0,86.6,84.11a1.476,1.476,0,0,1-1.089.5" transform="translate(-55.668 -54.046)" fill="#cbcbcb"/>
        <path id="Trazado_728814" data-name="Trazado 728814" d="M95.268,84.6c.216-.121.173-.285.105-.48a2.73,2.73,0,0,1-.2-1.213l.845.032a1.851,1.851,0,0,0,.343,1.167,1.484,1.484,0,0,1-1.089.494" transform="translate(-62.029 -54.047)" fill="#cbcbcb"/>
      </g>
    </g>
  </g>
</svg>
