<svg xmlns="http://www.w3.org/2000/svg" width="62" height="62" viewBox="0 0 62 62">
  <g id="Grupo_984398" data-name="Grupo 984398" transform="translate(-880 -5274)">
    <g id="Grupo_983968" data-name="Grupo 983968" transform="translate(636 -5149)">
      <g id="Rectángulo_340676" data-name="Rectángulo 340676" transform="translate(244 10423)" fill="none" stroke="#39a900" stroke-width="3">
        <rect width="62" height="62" rx="7" stroke="none"/>
        <rect x="1.5" y="1.5" width="59" height="59" rx="5.5" fill="none"/>
      </g>
    </g>
    <g id="viento_1_" data-name="viento (1)" transform="translate(885 5174.093)">
      <path id="Trazado_728861" data-name="Trazado 728861" d="M77.138,141.382a3.271,3.271,0,0,0-2.571-1.264c-1.959.12-2.375,1.2-3.084,2.667a7.149,7.149,0,0,1-3.868,3.479,6.548,6.548,0,0,1-7.631-2.3,3.78,3.78,0,0,0-2.016-1.355,1.012,1.012,0,0,1,.106-1.959,5.332,5.332,0,0,1,4.21,1,3.4,3.4,0,0,0,2.307.719c2.082-.2,2.322-2.208,2.636-2.873a7.932,7.932,0,0,1,15.167,2.361,7.107,7.107,0,0,1-4.892,7.456,5.912,5.912,0,0,1-2.9.155,1.015,1.015,0,0,1-.082-1.968C77.851,146.509,78.669,143.253,77.138,141.382Z" transform="translate(-51.332 -16.858)" fill="#b9f0ff"/>
      <path id="Trazado_728862" data-name="Trazado 728862" d="M8.5,282.928c5.46-.379,7.312-2.178,10.068-2.087a7.259,7.259,0,0,1,5.492,2.889,10.629,10.629,0,0,0,12.573,2.325,16.653,16.653,0,0,0,3.547-2.635c1.717-1.2,4.754-.038,5.229,2.907a4.982,4.982,0,0,1-.071,1.545,1.21,1.21,0,0,0,.441,1.371c.49.269,1,.017,1.446-.553a7.712,7.712,0,0,0,.668-1.053c2.28-4.757-2.007-9.688-6.763-9.743-3.173-.036-4.856,1.958-5.765,2.733a6.986,6.986,0,0,1-8.559.191,11.13,11.13,0,0,0-8.788-2.678c-3.134.482-4.744,2.115-8.478,2.776q-.6.106-1.2.163a.929.929,0,0,0,.159,1.85Z" transform="translate(-6.721 -145.219)" fill="#7ce3ff"/>
      <path id="Trazado_728863" data-name="Trazado 728863" d="M329.454,171.585c1.43-2.156,4.309-2.736,6.991-.828a5.345,5.345,0,0,0,4.8.806c1.66-.81,1.744-2.11,1.04-2.842a2.286,2.286,0,0,0-2.472-.3,1.1,1.1,0,0,1-1.414-.652c-.589-1.6,3.264-4.32,6.607-2.086,3.76,2.446,3.067,8.426-1.9,10.43a8.714,8.714,0,0,1-9.236-2.289,2.352,2.352,0,0,0-1.8-1.026,3.284,3.284,0,0,0-1.217.382,1.1,1.1,0,0,1-1.4-1.593Z" transform="translate(-295.186 -43.864)" fill="#55dafe"/>
      <path id="Trazado_728864" data-name="Trazado 728864" d="M308.345,121.179h6.724a2.636,2.636,0,0,0,0-5.272.776.776,0,0,0,0,1.553,1.083,1.083,0,1,1,0,2.167h-6.724a.776.776,0,0,0,0,1.553Z" transform="translate(-275.734)"/>
      <path id="Trazado_728865" data-name="Trazado 728865" d="M411.888,300.772h-.045a.776.776,0,0,0,0,1.553h.045a.776.776,0,0,0,0-1.553Z" transform="translate(-368.52 -165.731)"/>
      <path id="Trazado_728866" data-name="Trazado 728866" d="M446.159,300.772h-3.885a.776.776,0,1,0,0,1.553h3.885a1.083,1.083,0,0,1,0,2.167.776.776,0,1,0,0,1.553,2.636,2.636,0,0,0,0-5.272Z" transform="translate(-395.801 -165.731)"/>
      <path id="Trazado_728867" data-name="Trazado 728867" d="M18.657,153.391a.776.776,0,1,0-.777-.776A.778.778,0,0,0,18.657,153.391Z" transform="translate(-16.029 -32.212)"/>
      <path id="Trazado_728868" data-name="Trazado 728868" d="M48.665,153.391h8.051a.776.776,0,0,0,0-1.553H48.665a.776.776,0,0,0,0,1.553Z" transform="translate(-42.933 -32.212)"/>
      <path id="Trazado_728869" data-name="Trazado 728869" d="M57.669,135.028a2.72,2.72,0,0,1-1.6-.58,6.106,6.106,0,0,0-4.822-1.132,1.79,1.79,0,0,0-.176,3.463,2.979,2.979,0,0,1,1.628,1.089,7.515,7.515,0,0,0,12.81-1.319c.637-1.328.957-2.234,2.532-2.234a2.6,2.6,0,0,1,1.822.984c1.2,1.469.512,4.064-2.235,4.879a1.794,1.794,0,0,0,.145,3.472c5.551,1.151,10.692-5.12,8.022-11.058a.776.776,0,1,0-1.416.637c2.122,4.721-1.889,9.814-6.291,8.9a.239.239,0,0,1-.019-.464c3.871-1.149,4.875-5.052,3-7.349a4.047,4.047,0,0,0-3.221-1.549c-2.415.148-3.008,1.588-3.733,3.1a5.956,5.956,0,0,1-10.182,1.055,4.5,4.5,0,0,0-2.406-1.629.236.236,0,0,1,.025-.456c3.13-.621,3.71,1.977,6.441,1.727,2.532-.247,2.96-2.588,3.277-3.347a7.145,7.145,0,0,1,11.5-2.273.776.776,0,1,0,1.08-1.115,8.685,8.685,0,0,0-14.2,3.3C59.327,134.086,58.946,135.028,57.669,135.028Z" transform="translate(-44.657 -10.286)"/>
      <path id="Trazado_728870" data-name="Trazado 728870" d="M34.32,270.391a8.768,8.768,0,0,0-6.184,2.92,6.07,6.07,0,0,1-3.9,1.375c-2.944,0-3.845-1.656-6.171-2.872a.776.776,0,1,0-.719,1.376,16.419,16.419,0,0,1,2.283,1.529,7.63,7.63,0,0,0,4.608,1.519c5.426,0,5.456-4.326,10.164-4.295,3.468.04,6.626,3.026,6.626,6.265,0,2.147-1.375,3.747-1.594,3.627-.114-.063-.078-.409-.052-.545.875-4.608-3.749-7.054-6.359-5.237-.786.527-3.166,3.616-7.852,3.616a9.871,9.871,0,0,1-7.4-3.353,7.9,7.9,0,0,0-5.9-2.976c-2.97-.1-4.769,1.716-10.147,2.089a.152.152,0,0,1-.03-.3c5.871-.564,7.658-3.854,12.948-2.874a.776.776,0,1,0,.283-1.526c-5.858-1.086-7.869,2.326-13.379,2.855a1.7,1.7,0,0,0,.286,3.4,24.72,24.72,0,0,0,6.622-1.383c1.636-.538,4.989-1.9,8.139,1.738a11.419,11.419,0,0,0,13.666,2.691C33.421,278.44,33.389,277,35.01,277a3.084,3.084,0,0,1,2.928,3.152c0,.663-.142.877-.142,1.4,0,1.923,2.427,3.07,4.072-.31,2.5-5.208-2.046-10.825-7.548-10.855Z" transform="translate(0 -138.494)"/>
      <path id="Trazado_728871" data-name="Trazado 728871" d="M341.456,163.452a5.989,5.989,0,0,0-2.74-5.113c-3.555-2.375-7.875.06-7.875,2.387a1.871,1.871,0,0,0,2.538,1.718,1.987,1.987,0,0,1,.832-.187c1.005,0,1.611,1.1-.016,1.907a4.609,4.609,0,0,1-4.024-.735c-4.415-3.141-8.4.16-8.4,2.064a1.905,1.905,0,0,0,1.874,1.885c1.194,0,1.644-1.277,2.917.25a9.8,9.8,0,0,0,7.035,3.087,8.415,8.415,0,0,0,3.082-.581A7.323,7.323,0,0,0,341.456,163.452Zm-7.863,5.711a8.267,8.267,0,0,1-5.849-2.536,3.05,3.05,0,0,0-2.42-1.3,3.974,3.974,0,0,0-1.572.479.325.325,0,0,1-.375-.486c1.2-1.806,3.591-2.261,5.9-.621a6,6,0,0,0,5.59.869c3.163-1.544,1.958-4.861-.652-4.861a3.674,3.674,0,0,0-1.429.3.316.316,0,0,1-.389-.281c0-.882,2.79-2.88,5.468-1.091a4.466,4.466,0,0,1,2.042,3.817C339.9,166.51,337.137,169.163,333.593,169.163Z" transform="translate(-288.462 -37.168)"/>
    </g>
  </g>
</svg>
