<svg xmlns="http://www.w3.org/2000/svg" width="62" height="62" viewBox="0 0 62 62">
  <g id="Grupo_984397" data-name="Grupo 984397" transform="translate(-244 -5274)">
    <g id="Grupo_983967" data-name="Grupo 983967" transform="translate(0 -5149)">
      <g id="Rectángulo_340676" data-name="Rectángulo 340676" transform="translate(244 10423)" fill="none" stroke="#39a900" stroke-width="3">
        <rect width="62" height="62" rx="7" stroke="none"/>
        <rect x="1.5" y="1.5" width="59" height="59" rx="5.5" fill="none"/>
      </g>
    </g>
    <g id="_15-wind" data-name="15-wind" transform="translate(250.781 5281)">
      <path id="Trazado_728829" data-name="Trazado 728829" d="M6.212,12h0a11,11,0,0,1,11-11,11.784,11.784,0,0,1,10,6c1.017-.469,2-2,6-2,3.807,0,7.192,3.437,8,7,3.1,1.7,6,5.215,6,9a10,10,0,0,1-10,10h-26a10,10,0,0,1-10-10,10.537,10.537,0,0,1,5-9Z" fill="#bec3d2"/>
      <path id="Trazado_728830" data-name="Trazado 728830" d="M47.212,21c0-3.78-2.9-7.3-6-9a9.69,9.69,0,0,0-3.03-4.97A7.626,7.626,0,0,0,33.212,5a8.821,8.821,0,0,0-4.18.85c-.83.43-1.32.92-1.82,1.15a11.784,11.784,0,0,0-10-6A10.986,10.986,0,0,0,6.253,11.191,10.94,10.94,0,0,1,11.212,10a11.784,11.784,0,0,1,10,6c.5-.23.99-.72,1.82-1.15a8.821,8.821,0,0,1,4.18-.85,7.626,7.626,0,0,1,4.97,2.03A9.69,9.69,0,0,1,35.212,21c3.1,1.7,6,5.22,6,9,0,.056-.007.11-.008.165A10,10,0,0,0,47.212,21Z" fill="#dce1eb"/>
      <ellipse id="Elipse_5928" data-name="Elipse 5928" cx="1.642" cy="2.286" rx="1.642" ry="2.286" transform="translate(32.121 9.254) rotate(-45)" fill="#fafcff"/>
      <ellipse id="Elipse_5929" data-name="Elipse 5929" cx="0.825" cy="1.148" rx="0.825" ry="1.148" transform="translate(20.5 5.488) rotate(-45)" fill="#fafcff"/>
      <ellipse id="Elipse_5930" data-name="Elipse 5930" cx="0.413" cy="0.574" rx="0.413" ry="0.574" transform="translate(36.943 11.109) rotate(-45)" fill="#fafcff"/>
      <path id="Trazado_728831" data-name="Trazado 728831" d="M9.292,37c4.8,0,3.84,4,3.84,4C8.332,41,9.292,37,9.292,37Z" fill="#a5e887"/>
      <path id="Trazado_728832" data-name="Trazado 728832" d="M1.332,41c7.2,0,5.76,6,5.76,6-7.2,0-5.76-6-5.76-6Z" fill="#a5e887"/>
      <path id="Trazado_728833" data-name="Trazado 728833" d="M43.212,34.92c0-4.8,4-3.84,4-3.84C47.212,35.88,43.212,34.92,43.212,34.92Z" fill="#a5e887"/>
      <path id="Trazado_728834" data-name="Trazado 728834" d="M11.212,24.88c0-7.2,6-5.76,6-5.76C17.212,26.32,11.212,24.88,11.212,24.88Z" fill="#a5e887"/>
      <path id="Trazado_728835" data-name="Trazado 728835" d="M11.212,24.88s.04.009.1.02l5.8-5.8C16.358,18.955,11.212,18.207,11.212,24.88Z" fill="#c2fa93"/>
      <path id="Trazado_728836" data-name="Trazado 728836" d="M43.212,34.92l.067.013,3.866-3.866c-.5-.1-3.933-.6-3.933,3.853Z" fill="#c2fa93"/>
      <path id="Trazado_728837" data-name="Trazado 728837" d="M9.292,37s-.006.027-.013.067l3.866,3.866c.1-.5.6-3.933-3.853-3.933Z" fill="#c2fa93"/>
      <path id="Trazado_728838" data-name="Trazado 728838" d="M1.332,41s-.009.04-.02.1l5.8,5.8c.145-.754.893-5.9-5.78-5.9Z" fill="#c2fa93"/>
      <g id="Grupo_984567" data-name="Grupo 984567">
        <path id="Trazado_728839" data-name="Trazado 728839" d="M20.212,24a4,4,0,0,0-4,4,1,1,0,0,0,2,0,4,4,0,0,1,3-3.858,3.933,3.933,0,0,0-1-.142Z" fill="#9da3b5"/>
        <path id="Trazado_728840" data-name="Trazado 728840" d="M22.212,26a1.978,1.978,0,0,0-1,.278,1.994,1.994,0,0,1-1,3.722h2a2,2,0,0,0,0-4Z" fill="#9da3b5"/>
        <path id="Trazado_728841" data-name="Trazado 728841" d="M27.212,27a3,3,0,0,1,.061-.6,4.992,4.992,0,0,1,3.981-4.3,5.965,5.965,0,0,0-1.042-.1,4.992,4.992,0,0,0-4.788,3.639,3.859,3.859,0,0,1,.545,3.685A3.99,3.99,0,0,0,29.212,31a.99.99,0,0,0,.647-.252A3.993,3.993,0,0,1,27.212,27Z" fill="#9da3b5"/>
        <path id="Trazado_728842" data-name="Trazado 728842" d="M36.212,28a4,4,0,0,0-4-4,2.971,2.971,0,0,0-.932.163A3.994,3.994,0,0,1,34.212,28,4.826,4.826,0,0,1,33.2,31h2a4.826,4.826,0,0,0,1.009-3Z" fill="#9da3b5"/>
        <path id="Trazado_728843" data-name="Trazado 728843" d="M9.212,24.88a6.112,6.112,0,0,0,2.161.031c-.1-.017-.161-.031-.161-.031,0-4.282,2.119-5.5,3.839-5.791C14.131,18.925,9.212,18.351,9.212,24.88Z" fill="#9da3b5"/>
      </g>
      <path id="Trazado_728844" data-name="Trazado 728844" d="M46.212,21a9.022,9.022,0,0,1-7.2,8.819l.4,1.961A11.03,11.03,0,0,0,48.212,21a8.922,8.922,0,0,0-.3-2.253l-1.935.506A6.917,6.917,0,0,1,46.212,21Z"/>
      <path id="Trazado_728845" data-name="Trazado 728845" d="M47.1,16.635a12.475,12.475,0,0,0-1.508-2.272l-1.54,1.277a10.446,10.446,0,0,1,1.267,1.906Z"/>
      <path id="Trazado_728846" data-name="Trazado 728846" d="M26.334,7.479a1,1,0,0,0,1.3.429,5.624,5.624,0,0,0,.889-.549A7,7,0,0,1,33.212,6c3.467,0,6.346,3.229,7.025,6.221a1,1,0,0,0,.494.656,11.227,11.227,0,0,1,1.84,1.268l1.289-1.529a13.361,13.361,0,0,0-1.784-1.274C41.052,7.73,37.493,4,33.212,4a8.868,8.868,0,0,0-5.678,1.607l-.128-.186L25.769,6.57A9.535,9.535,0,0,1,26.334,7.479Z"/>
      <path id="Trazado_728847" data-name="Trazado 728847" d="M4.617,29.8l1.2-1.6a8.933,8.933,0,0,1-3.6-7.2,9.619,9.619,0,0,1,4.305-8.018A1.046,1.046,0,0,0,7.212,12a10.011,10.011,0,0,1,10-10,10.606,10.606,0,0,1,7.3,3.1l1.4-1.43A12.618,12.618,0,0,0,17.212,0,12.017,12.017,0,0,0,5.226,11.434,11.546,11.546,0,0,0,.212,21a10.913,10.913,0,0,0,4.405,8.8Z"/>
      <path id="Trazado_728848" data-name="Trazado 728848" d="M12.4,26a5.759,5.759,0,0,0,3.59-1.146c1.477-1.164,2.226-3.094,2.226-5.734a1,1,0,0,0-.767-.972,6.341,6.341,0,0,0-5.007,1c-1.477,1.165-2.226,3.094-2.226,5.735a1,1,0,0,0,.767.972A6.49,6.49,0,0,0,12.4,26Zm1.269-5.271A3.882,3.882,0,0,1,16.176,20a4.464,4.464,0,0,1-1.417,3.27,3.851,3.851,0,0,1-2.511.73,4.46,4.46,0,0,1,1.417-3.273Z"/>
      <path id="Trazado_728849" data-name="Trazado 728849" d="M1.33,40a1,1,0,0,0-.973.767,6.35,6.35,0,0,0,1,5.007C2.524,47.251,4.454,48,7.094,48a1,1,0,0,0,.972-.767,6.343,6.343,0,0,0-1-5.007C5.9,40.749,3.971,40,1.33,40Zm1.609,4.547a3.869,3.869,0,0,1-.724-2.512,4.468,4.468,0,0,1,3.27,1.418,3.867,3.867,0,0,1,.724,2.512,4.468,4.468,0,0,1-3.27-1.418Z"/>
      <path id="Trazado_728850" data-name="Trazado 728850" d="M9.291,36a1,1,0,0,0-.973.767,4.59,4.59,0,0,0,.731,3.622A4.907,4.907,0,0,0,13.134,42a1,1,0,0,0,.972-.767,4.59,4.59,0,0,0-.731-3.622A4.906,4.906,0,0,0,9.291,36Zm1.336,3.16a2.032,2.032,0,0,1-.4-1.094,2.4,2.4,0,0,1,1.573.774,2.041,2.041,0,0,1,.4,1.094,2.408,2.408,0,0,1-1.573-.774Z"/>
      <path id="Trazado_728851" data-name="Trazado 728851" d="M47.445,30.1a4.6,4.6,0,0,0-3.622.731,4.91,4.91,0,0,0-1.611,4.086,1,1,0,0,0,.767.973A4.81,4.81,0,0,0,44,36a4.18,4.18,0,0,0,2.6-.833,4.91,4.91,0,0,0,1.611-4.086,1,1,0,0,0-.766-.976Zm-2.073,3.481a2.022,2.022,0,0,1-1.094.4,2.41,2.41,0,0,1,.774-1.574,2.022,2.022,0,0,1,1.094-.4,2.415,2.415,0,0,1-.774,1.574Z"/>
      <path id="Trazado_728852" data-name="Trazado 728852" d="M5.212,30h2v2h-2Z"/>
      <path id="Trazado_728853" data-name="Trazado 728853" d="M9.212,32h13a4,4,0,1,0-4-4h2a2,2,0,1,1,2,2h-13Z"/>
      <path id="Trazado_728854" data-name="Trazado 728854" d="M15.212,36h2v2h-2Z"/>
      <path id="Trazado_728855" data-name="Trazado 728855" d="M24.212,36h-5v2h5a2,2,0,1,1-2,2h-2a4,4,0,1,0,4-4Z"/>
      <path id="Trazado_728856" data-name="Trazado 728856" d="M29.212,36h2v2h-2Z"/>
      <path id="Trazado_728857" data-name="Trazado 728857" d="M38.212,36h-5v2h5a4,4,0,0,1,0,8,2,2,0,0,1,0-4V40a4,4,0,0,0,0,8,6,6,0,0,0,0-12Z"/>
      <path id="Trazado_728858" data-name="Trazado 728858" d="M13.212,33h4v2h-4Z"/>
      <path id="Trazado_728859" data-name="Trazado 728859" d="M38.212,28a6.006,6.006,0,0,0-6-6,5.006,5.006,0,0,0-5,5,4,4,0,0,0,4,4V29a2,2,0,0,1-2-2,3,3,0,0,1,3-3,4,4,0,0,1,4,4,5.006,5.006,0,0,1-5,5h-12v2h12A7.008,7.008,0,0,0,38.212,28Z"/>
      <path id="Trazado_728860" data-name="Trazado 728860" d="M1.212,30h2v2h-2Z"/>
    </g>
  </g>
</svg>
