<svg xmlns="http://www.w3.org/2000/svg" width="62" height="62" viewBox="0 0 62 62">
  <g id="Grupo_984396" data-name="Grupo 984396" transform="translate(-880 -5274)">
    <g id="Grupo_983968" data-name="Grupo 983968" transform="translate(636 -5149)">
      <g id="Rectángulo_340676" data-name="Rectángulo 340676" transform="translate(244 10423)" fill="none" stroke="#39a900" stroke-width="3">
        <rect width="62" height="62" rx="7" stroke="none"/>
        <rect x="1.5" y="1.5" width="59" height="59" rx="5.5" fill="none"/>
      </g>
    </g>
    <g id="riesgo" transform="translate(883.737 5278.644)">
      <g id="Grupo_984566" data-name="Grupo 984566" transform="translate(1.086 0.823)">
        <g id="Grupo_984563" data-name="Grupo 984563" transform="translate(20.575 20.613)">
          <circle id="Elipse_5927" data-name="Elipse 5927" cx="3.784" cy="3.784" r="3.784" transform="translate(0 7.015) rotate(-68.028)" fill="#685e68"/>
          <path id="Trazado_728815" data-name="Trazado 728815" d="M236.711,238.87a2.221,2.221,0,1,0-2.221-2.221A2.225,2.225,0,0,0,236.711,238.87Z" transform="translate(-231.773 -231.729)" fill="#544854" fill-rule="evenodd"/>
        </g>
        <g id="Grupo_984564" data-name="Grupo 984564">
          <path id="Trazado_728816" data-name="Trazado 728816" d="M33.775,15.205a18.328,18.328,0,0,0-18.3,17.351,1.029,1.029,0,0,1-1.028.976H9.292A1.03,1.03,0,0,1,8.263,32.46a25.534,25.534,0,0,1,51.024,0,1.03,1.03,0,0,1-1.029,1.072H53.1a1.029,1.029,0,0,1-1.028-.976A18.327,18.327,0,0,0,33.775,15.205Z" transform="translate(-8.262 -7.998)" fill="#8ac9fe" fill-rule="evenodd"/>
          <path id="Trazado_728817" data-name="Trazado 728817" d="M52.028,107.932a18.267,18.267,0,0,0-5.342,11.983,1.029,1.029,0,0,1-1.028.976h-2.6a21.862,21.862,0,0,1,6.423-15.507Z" transform="translate(-39.475 -95.357)" fill="#60b7ff" fill-rule="evenodd"/>
          <path id="Trazado_728818" data-name="Trazado 728818" d="M387.265,97.715a18.267,18.267,0,0,0-5.342-11.983l5.1-5.1a25.451,25.451,0,0,1,7.457,16.983,1.03,1.03,0,0,1-1.029,1.072h-5.154A1.029,1.029,0,0,1,387.265,97.715Z" transform="translate(-343.451 -73.156)" fill="#fe646f" fill-rule="evenodd"/>
          <path id="Trazado_728819" data-name="Trazado 728819" d="M387.265,119.914a18.267,18.267,0,0,0-5.342-11.983l2.548-2.548a21.862,21.862,0,0,1,6.423,15.507h-2.6A1.029,1.029,0,0,1,387.265,119.914Z" transform="translate(-343.451 -95.356)" fill="#fd4755" fill-rule="evenodd"/>
          <path id="Trazado_728820" data-name="Trazado 728820" d="M269.017,20.573a18.269,18.269,0,0,0-12.959-5.368V8a25.454,25.454,0,0,1,18.055,7.479Z" transform="translate(-230.545 -7.998)" fill="#ffe177" fill-rule="evenodd"/>
          <path id="Trazado_728821" data-name="Trazado 728821" d="M269.017,51.969A18.269,18.269,0,0,0,256.058,46.6V43a21.862,21.862,0,0,1,15.507,6.423Z" transform="translate(-230.545 -39.394)" fill="#ffd064" fill-rule="evenodd"/>
          <path id="Trazado_728822" data-name="Trazado 728822" d="M98.75,8v7.207a18.269,18.269,0,0,0-12.959,5.368l-5.1-5.1A25.454,25.454,0,0,1,98.75,8Z" transform="translate(-73.237 -7.998)" fill="#ccf49f" fill-rule="evenodd"/>
          <path id="Trazado_728823" data-name="Trazado 728823" d="M120.95,46.6a18.269,18.269,0,0,0-12.959,5.368l-2.548-2.548A21.862,21.862,0,0,1,120.95,43Z" transform="translate(-95.437 -39.394)" fill="#b3e59f" fill-rule="evenodd"/>
        </g>
        <g id="Grupo_984565" data-name="Grupo 984565" transform="translate(23.503 27.874)">
          <path id="Trazado_728824" data-name="Trazado 728824" d="M252.778,280.731l8.768,15.186a4,4,0,0,1-3.467,6.006H240.543a4,4,0,0,1-3.467-6.006l8.768-15.186a4,4,0,0,1,6.935,0Z" transform="translate(-236.535 -278.729)" fill="#ffe177" fill-rule="evenodd"/>
          <path id="Trazado_728825" data-name="Trazado 728825" d="M364.087,280.731l8.768,15.186a4,4,0,0,1-3.467,6.006H360.62V278.729A3.977,3.977,0,0,1,364.087,280.731Z" transform="translate(-347.844 -278.729)" fill="#ffd064" fill-rule="evenodd"/>
          <path id="Trazado_728826" data-name="Trazado 728826" d="M348.921,346.64a1.343,1.343,0,1,1-1.343,1.343A1.343,1.343,0,0,1,348.921,346.64Zm0-2.4a1.048,1.048,0,0,1-1.047-1.01l-.265-7.337a1.048,1.048,0,0,1,1.047-1.086h.53a1.048,1.048,0,0,1,1.047,1.086l-.265,7.337A1.048,1.048,0,0,1,348.921,344.242Z" transform="translate(-336.145 -329.035)" fill="#fe646f" fill-rule="evenodd"/>
          <path id="Trazado_728827" data-name="Trazado 728827" d="M360.619,346.64a1.343,1.343,0,0,1,0,2.686h0Zm0-2.4V334.81h.265a1.048,1.048,0,0,1,1.047,1.086l-.265,7.337A1.048,1.048,0,0,1,360.619,344.243Z" transform="translate(-347.843 -329.036)" fill="#fd4755" fill-rule="evenodd"/>
        </g>
      </g>
      <path id="Trazado_728828" data-name="Trazado 728828" d="M37.365,48.163a.519.519,0,1,1,.519-.519A.519.519,0,0,1,37.365,48.163Zm0-2.685a2.166,2.166,0,1,0,2.166,2.166A2.168,2.168,0,0,0,37.365,45.478Zm-.427-10.115a.2.2,0,0,1,.162-.069h.53a.194.194,0,0,1,.162.069.2.2,0,0,1,.063.164l-.265,7.337a.225.225,0,0,1-.449,0l-.265-7.337a.2.2,0,0,1,.062-.164Zm.427,9.364a1.865,1.865,0,0,0,1.871-1.8l.265-7.337a1.871,1.871,0,0,0-1.871-1.94H37.1a1.87,1.87,0,0,0-1.87,1.94l.264,7.337A1.864,1.864,0,0,0,37.365,44.728Zm11.523,4.75a3.157,3.157,0,0,0,0-3.181L40.119,31.111a3.18,3.18,0,0,0-5.508,0L25.843,46.3a3.18,3.18,0,0,0,2.754,4.77H46.131A3.156,3.156,0,0,0,48.888,49.477Zm-7.343-19.19a4.828,4.828,0,0,0-8.362,0L24.416,45.473a4.827,4.827,0,0,0,4.18,7.241H46.131a4.827,4.827,0,0,0,4.18-7.241ZM23.638,26.357a2.96,2.96,0,1,1,2.96,2.96,2.963,2.963,0,0,1-2.96-2.96Zm7.567,0a4.612,4.612,0,1,1-.8-2.589l9.448-4.188a.824.824,0,0,1,.668,1.506l-9.448,4.187a4.581,4.581,0,0,1,.13,1.084Zm20.024-.888a.177.177,0,0,0,.058-.151A24.6,24.6,0,0,0,44.663,9.457l-3.949,3.949a19.063,19.063,0,0,1,5.009,11.932.205.205,0,0,0,.2.2h5.151A.176.176,0,0,0,51.229,25.469ZM27.422,7.225V1.661A24.634,24.634,0,0,1,43.5,8.293l-3.949,3.95A19.094,19.094,0,0,0,27.422,7.225ZM13.649,12.243,9.7,8.293A24.636,24.636,0,0,1,25.775,1.661V7.225a19.093,19.093,0,0,0-12.126,5.018Zm-6.174,13.1a19.062,19.062,0,0,1,5.009-11.932L8.535,9.457A24.61,24.61,0,0,0,1.909,25.318a.18.18,0,0,0,.058.152.177.177,0,0,0,.148.063H7.27a.206.206,0,0,0,.2-.2ZM44.868,7.358A26.358,26.358,0,0,0,.264,25.25a1.815,1.815,0,0,0,.513,1.36,1.816,1.816,0,0,0,1.338.57H7.27a1.852,1.852,0,0,0,1.85-1.756,17.5,17.5,0,0,1,34.958,0,1.853,1.853,0,0,0,1.85,1.756h5.151a1.855,1.855,0,0,0,1.856-1.93A26.233,26.233,0,0,0,44.868,7.358Z" fill-rule="evenodd"/>
    </g>
  </g>
</svg>
